<svg width="270" height="220" viewBox="0 0 270 220" fill="none" xmlns="http://www.w3.org/2000/svg">
<path d="M101 182.8C89.4 182.8 79.0667 179.933 70 174.2C60.9333 168.467 53.8 160.2 48.6 149.4C43.5333 138.467 41 125.467 41 110.4C41 95.3333 43.5333 82.4 48.6 71.6C53.8 60.6667 60.9333 52.3333 70 46.6C79.0667 40.8667 89.4 38 101 38C112.6 38 122.933 40.8667 132 46.6C141.067 52.3333 148.133 60.6667 153.2 71.6C158.4 82.4 161 95.3333 161 110.4C161 125.467 158.4 138.467 153.2 149.4C148.133 160.2 141.067 168.467 132 174.2C122.933 179.933 112.6 182.8 101 182.8ZM101 155.4C109.533 155.4 116.2 151.733 121 144.4C125.933 137.067 128.4 125.733 128.4 110.4C128.4 95.0667 125.933 83.7333 121 76.4C116.2 69.0667 109.533 65.4 101 65.4C92.6 65.4 85.9333 69.0667 81 76.4C76.2 83.7333 73.8 95.0667 73.8 110.4C73.8 125.733 76.2 137.067 81 144.4C85.9333 151.733 92.6 155.4 101 155.4Z" fill="#2580EA" fill-opacity="0.12"/>
<path d="M229.57 40.4V180.4H197.17V66.4H169.17V40.4H229.57Z" fill="#2580EA" fill-opacity="0.12"/>
<path fill-rule="evenodd" clip-rule="evenodd" d="M47.6958 149.827L47.6927 149.82C42.5517 138.727 40 125.577 40 110.4C40 95.2239 42.5515 82.1384 47.6947 71.1753L47.6969 71.1705C52.9673 60.0891 60.2193 51.6017 69.4655 45.7548C78.7052 39.9121 89.2268 37 101 37C112.773 37 123.295 39.9121 132.534 45.7548C141.781 51.6021 148.967 60.0905 154.104 71.1729C159.382 82.137 162 95.2237 162 110.4C162 125.579 159.381 138.732 154.104 149.827C148.966 160.779 141.779 169.199 132.534 175.045C123.295 180.888 112.773 183.8 101 183.8C89.2268 183.8 78.7052 180.888 69.4655 175.045C60.2225 169.2 52.9704 160.782 47.699 149.834L47.6958 149.827ZM153.2 71.6C148.133 60.6667 141.067 52.3333 132 46.6C122.933 40.8667 112.6 38 101 38C89.4 38 79.0667 40.8667 70 46.6C60.9333 52.3333 53.8 60.6667 48.6 71.6C43.5333 82.4 41 95.3333 41 110.4C41 125.467 43.5333 138.467 48.6 149.4C53.8 160.2 60.9333 168.467 70 174.2C79.0667 179.933 89.4 182.8 101 182.8C112.6 182.8 122.933 179.933 132 174.2C141.067 168.467 148.133 160.2 153.2 149.4C158.4 138.467 161 125.467 161 110.4C161 95.3333 158.4 82.4 153.2 71.6ZM120.17 143.842C124.938 136.755 127.4 125.664 127.4 110.4C127.4 95.1363 124.938 84.0447 120.17 76.9582L120.163 76.9477C115.542 69.8874 109.185 66.4 101 66.4C92.9551 66.4 86.592 69.8821 81.8333 76.9528C77.1954 84.0421 74.8 95.1369 74.8 110.4C74.8 125.663 77.1954 136.758 81.8333 143.847C86.592 150.918 92.9551 154.4 101 154.4C109.185 154.4 115.542 150.913 120.163 143.852L120.17 143.842ZM81 144.4C76.2 137.067 73.8 125.733 73.8 110.4C73.8 95.0667 76.2 83.7333 81 76.4C85.9333 69.0667 92.6 65.4 101 65.4C109.533 65.4 116.2 69.0667 121 76.4C125.933 83.7333 128.4 95.0667 128.4 110.4C128.4 125.733 125.933 137.067 121 144.4C116.2 151.733 109.533 155.4 101 155.4C92.6 155.4 85.9333 151.733 81 144.4ZM230.57 39.4V181.4H196.17V67.4H168.17V39.4H230.57ZM197.17 66.4V180.4H229.57V40.4H169.17V66.4H197.17Z" fill="white" fill-opacity="0.8"/>
</svg>
