<svg width="270" height="220" viewBox="0 0 270 220" fill="none" xmlns="http://www.w3.org/2000/svg">
<path d="M75 182.8C63.4 182.8 53.0667 179.933 44 174.2C34.9333 168.467 27.8 160.2 22.6 149.4C17.5333 138.467 15 125.467 15 110.4C15 95.3333 17.5333 82.4 22.6 71.6C27.8 60.6667 34.9333 52.3333 44 46.6C53.0667 40.8667 63.4 38 75 38C86.6 38 96.9333 40.8667 106 46.6C115.067 52.3333 122.133 60.6667 127.2 71.6C132.4 82.4 135 95.3333 135 110.4C135 125.467 132.4 138.467 127.2 149.4C122.133 160.2 115.067 168.467 106 174.2C96.9333 179.933 86.6 182.8 75 182.8ZM75 155.4C83.5333 155.4 90.2 151.733 95 144.4C99.9333 137.067 102.4 125.733 102.4 110.4C102.4 95.0667 99.9333 83.7333 95 76.4C90.2 69.0667 83.5333 65.4 75 65.4C66.6 65.4 59.9333 69.0667 55 76.4C50.2 83.7333 47.8 95.0667 47.8 110.4C47.8 125.733 50.2 137.067 55 144.4C59.9333 151.733 66.6 155.4 75 155.4Z" fill="#2580EA" fill-opacity="0.12"/>
<path d="M254.17 154V180.4H148.37V159.4L202.37 108.4C208.104 102.933 211.97 98.2667 213.97 94.4C215.97 90.4 216.97 86.4667 216.97 82.6C216.97 77 215.037 72.7333 211.17 69.8C207.437 66.7333 201.904 65.2 194.57 65.2C188.437 65.2 182.904 66.4 177.97 68.8C173.037 71.0667 168.904 74.5333 165.57 79.2L141.97 64C147.437 55.8667 154.97 49.5333 164.57 45C174.17 40.3333 185.17 38 197.57 38C207.97 38 217.037 39.7333 224.77 43.2C232.637 46.5333 238.704 51.3333 242.97 57.6C247.37 63.7333 249.57 71 249.57 79.4C249.57 87 247.97 94.1333 244.77 100.8C241.57 107.467 235.37 115.067 226.17 123.6L193.97 154H254.17Z" fill="#2580EA" fill-opacity="0.12"/>
<path fill-rule="evenodd" clip-rule="evenodd" d="M21.6958 149.827L21.6927 149.82C16.5517 138.727 14 125.577 14 110.4C14 95.2239 16.5515 82.1384 21.6947 71.1753L21.6969 71.1705C26.9673 60.0891 34.2193 51.6017 43.4655 45.7548C52.7052 39.9121 63.2268 37 75 37C86.7732 37 97.2949 39.9121 106.534 45.7548C115.781 51.6021 122.967 60.0905 128.104 71.1729C133.382 82.137 136 95.2237 136 110.4C136 125.579 133.381 138.732 128.104 149.827C122.966 160.779 115.779 169.199 106.534 175.045C97.2949 180.888 86.7732 183.8 75 183.8C63.2268 183.8 52.7052 180.888 43.4655 175.045C34.2225 169.2 26.9704 160.782 21.699 149.834L21.6958 149.827ZM127.2 71.6C122.133 60.6667 115.067 52.3333 106 46.6C96.9333 40.8667 86.6 38 75 38C63.4 38 53.0667 40.8667 44 46.6C34.9333 52.3333 27.8 60.6667 22.6 71.6C17.5333 82.4 15 95.3333 15 110.4C15 125.467 17.5333 138.467 22.6 149.4C27.8 160.2 34.9333 168.467 44 174.2C53.0667 179.933 63.4 182.8 75 182.8C86.6 182.8 96.9333 179.933 106 174.2C115.067 168.467 122.133 160.2 127.2 149.4C132.4 138.467 135 125.467 135 110.4C135 95.3333 132.4 82.4 127.2 71.6ZM94.1703 143.842C98.9376 136.755 101.4 125.664 101.4 110.4C101.4 95.1363 98.9376 84.0447 94.1703 76.9582L94.1632 76.9477C89.5419 69.8874 83.1851 66.4 75 66.4C66.9551 66.4 60.592 69.8821 55.8333 76.9528C51.1954 84.0421 48.8 95.1369 48.8 110.4C48.8 125.663 51.1954 136.758 55.8333 143.847C60.592 150.918 66.9551 154.4 75 154.4C83.1851 154.4 89.542 150.913 94.1633 143.852L94.1703 143.842ZM55 144.4C50.2 137.067 47.8 125.733 47.8 110.4C47.8 95.0667 50.2 83.7333 55 76.4C59.9333 69.0667 66.6 65.4 75 65.4C83.5333 65.4 90.2 69.0667 95 76.4C99.9333 83.7333 102.4 95.0667 102.4 110.4C102.4 125.733 99.9333 137.067 95 144.4C90.2 151.733 83.5333 155.4 75 155.4C66.6 155.4 59.9333 151.733 55 144.4ZM255.17 153V181.4H147.37V158.969L201.68 107.676C201.681 107.676 201.682 107.675 201.682 107.674C207.386 102.236 211.155 97.6634 213.079 93.9467C215.018 90.0659 215.97 86.2869 215.97 82.6C215.97 77.2582 214.143 73.3102 210.566 70.5967L210.551 70.585L210.536 70.5727C207.053 67.7122 201.787 66.2 194.57 66.2C188.571 66.2 183.189 67.373 178.408 69.6992L178.398 69.7041L178.388 69.7087C173.622 71.8984 169.622 75.2481 166.384 79.7812L165.83 80.5568L140.571 64.2885L141.14 63.4422C146.715 55.1482 154.392 48.7017 164.138 44.0982C173.894 39.357 185.045 37 197.57 37C208.076 37 217.284 38.7502 225.17 42.2833C233.182 45.6799 239.404 50.5898 243.79 57.0273C248.321 63.3474 250.57 70.8202 250.57 79.4C250.57 87.1455 248.938 94.4272 245.672 101.233C242.393 108.064 236.089 115.764 226.854 124.33C226.853 124.331 226.852 124.332 226.85 124.333L196.486 153H255.17ZM193.97 154H254.17V180.4H148.37V159.4L202.37 108.4C208.104 102.933 211.97 98.2667 213.97 94.4C215.97 90.4 216.97 86.4667 216.97 82.6C216.97 77 215.037 72.7333 211.17 69.8C207.437 66.7333 201.904 65.2 194.57 65.2C188.437 65.2 182.904 66.4 177.97 68.8C173.037 71.0667 168.904 74.5333 165.57 79.2L141.971 64.0002C142.157 63.7231 142.345 63.4479 142.536 63.175C147.953 55.4372 155.297 49.3789 164.57 45C174.17 40.3333 185.17 38 197.57 38C207.97 38 217.037 39.7333 224.77 43.2C232.637 46.5333 238.704 51.3333 242.97 57.6C247.37 63.7333 249.57 71 249.57 79.4C249.57 87 247.97 94.1333 244.77 100.8C241.57 107.467 235.37 115.067 226.17 123.6L193.97 154Z" fill="white" fill-opacity="0.8"/>
</svg>
