<svg width="270" height="220" viewBox="0 0 270 220" fill="none" xmlns="http://www.w3.org/2000/svg">
<path d="M76 182.8C64.4 182.8 54.0667 179.933 45 174.2C35.9333 168.467 28.8 160.2 23.6 149.4C18.5333 138.467 16 125.467 16 110.4C16 95.3333 18.5333 82.4 23.6 71.6C28.8 60.6667 35.9333 52.3333 45 46.6C54.0667 40.8667 64.4 38 76 38C87.6 38 97.9333 40.8667 107 46.6C116.067 52.3333 123.133 60.6667 128.2 71.6C133.4 82.4 136 95.3333 136 110.4C136 125.467 133.4 138.467 128.2 149.4C123.133 160.2 116.067 168.467 107 174.2C97.9333 179.933 87.6 182.8 76 182.8ZM76 155.4C84.5333 155.4 91.2 151.733 96 144.4C100.933 137.067 103.4 125.733 103.4 110.4C103.4 95.0667 100.933 83.7333 96 76.4C91.2 69.0667 84.5333 65.4 76 65.4C67.6 65.4 60.9333 69.0667 56 76.4C51.2 83.7333 48.8 95.0667 48.8 110.4C48.8 125.733 51.2 137.067 56 144.4C60.9333 151.733 67.6 155.4 76 155.4Z" fill="#2580EA" fill-opacity="0.12"/>
<path d="M215.189 97.4C227.456 99.4 236.856 104 243.389 111.2C249.922 118.267 253.189 127.067 253.189 137.6C253.189 145.733 251.056 153.267 246.789 160.2C242.522 167 235.989 172.467 227.189 176.6C218.522 180.733 207.856 182.8 195.189 182.8C185.322 182.8 175.589 181.533 165.989 179C156.522 176.333 148.456 172.6 141.789 167.8L154.389 143C159.722 147 165.856 150.133 172.789 152.4C179.856 154.533 187.056 155.6 194.389 155.6C202.522 155.6 208.922 154.067 213.589 151C218.256 147.8 220.589 143.333 220.589 137.6C220.589 126.133 211.856 120.4 194.389 120.4H179.589V99L208.389 66.4H148.789V40.4H246.789V61.4L215.189 97.4Z" fill="#2580EA" fill-opacity="0.12"/>
<path fill-rule="evenodd" clip-rule="evenodd" d="M22.6958 149.827L22.6927 149.82C17.5517 138.727 15 125.577 15 110.4C15 95.2239 17.5515 82.1384 22.6947 71.1753L22.6969 71.1705C27.9673 60.0891 35.2193 51.6017 44.4655 45.7548C53.7052 39.9121 64.2268 37 76 37C87.7732 37 98.2949 39.9121 107.534 45.7548C116.781 51.6021 123.967 60.0905 129.104 71.1729C134.382 82.137 137 95.2237 137 110.4C137 125.579 134.381 138.732 129.104 149.827C123.966 160.779 116.779 169.199 107.534 175.045C98.2949 180.888 87.7732 183.8 76 183.8C64.2268 183.8 53.7052 180.888 44.4655 175.045C35.2225 169.2 27.9704 160.782 22.699 149.834L22.6958 149.827ZM128.2 71.6C123.133 60.6667 116.067 52.3333 107 46.6C97.9333 40.8667 87.6 38 76 38C64.4 38 54.0667 40.8667 45 46.6C35.9333 52.3333 28.8 60.6667 23.6 71.6C18.5333 82.4 16 95.3333 16 110.4C16 125.467 18.5333 138.467 23.6 149.4C28.8 160.2 35.9333 168.467 45 174.2C54.0667 179.933 64.4 182.8 76 182.8C87.6 182.8 97.9333 179.933 107 174.2C116.067 168.467 123.133 160.2 128.2 149.4C133.4 138.467 136 125.467 136 110.4C136 95.3333 133.4 82.4 128.2 71.6ZM95.1703 143.842C99.9376 136.755 102.4 125.664 102.4 110.4C102.4 95.1363 99.9376 84.0447 95.1703 76.9582L95.1632 76.9477C90.5419 69.8874 84.1851 66.4 76 66.4C67.9551 66.4 61.592 69.8821 56.8333 76.9528C52.1954 84.0421 49.8 95.1369 49.8 110.4C49.8 125.663 52.1954 136.758 56.8333 143.847C61.592 150.918 67.9551 154.4 76 154.4C84.1851 154.4 90.542 150.913 95.1633 143.852L95.1703 143.842ZM56 144.4C51.2 137.067 48.8 125.733 48.8 110.4C48.8 95.0667 51.2 83.7333 56 76.4C60.9333 69.0667 67.6 65.4 76 65.4C84.5333 65.4 91.2 69.0667 96 76.4C100.933 83.7333 103.4 95.0667 103.4 110.4C103.4 125.733 100.933 137.067 96 144.4C91.2 151.733 84.5333 155.4 76 155.4C67.6 155.4 60.9333 151.733 56 144.4ZM155.205 143.601C160.346 147.315 166.207 150.248 172.789 152.4C179.856 154.533 187.056 155.6 194.389 155.6C202.522 155.6 208.922 154.067 213.589 151C218.256 147.8 220.589 143.333 220.589 137.6C220.589 126.133 211.856 120.4 194.389 120.4H179.589V99L208.389 66.4H148.789V40.4H246.789V61.4L215.189 97.4C215.578 97.4633 215.963 97.5293 216.346 97.5979C228.048 99.694 237.063 104.228 243.389 111.2C249.922 118.267 253.189 127.067 253.189 137.6C253.189 145.733 251.056 153.267 246.789 160.2C242.522 167 235.989 172.467 227.189 176.6C218.522 180.733 207.856 182.8 195.189 182.8C185.322 182.8 175.589 181.533 165.989 179C156.522 176.333 148.456 172.6 141.789 167.8L154.389 143C154.659 143.203 154.931 143.403 155.205 143.601ZM227.617 177.504C218.781 181.717 207.958 183.8 195.189 183.8C185.236 183.8 175.417 182.522 165.734 179.967L165.726 179.965L165.718 179.963C156.16 177.27 147.983 173.492 141.205 168.612L140.509 168.111L154.037 141.486L154.989 142.2C160.224 146.126 166.254 149.21 173.089 151.446C180.059 153.549 187.158 154.6 194.389 154.6C202.407 154.6 208.587 153.087 213.032 150.17C217.417 147.16 219.589 143.006 219.589 137.6C219.589 132.165 217.544 128.197 213.49 125.536C209.363 122.826 203.045 121.4 194.389 121.4H178.589V98.6215L206.171 67.4H147.789V39.4H247.789V61.7766L217.115 96.7221C228.69 98.8929 237.725 103.472 244.126 110.524C250.845 117.793 254.189 126.842 254.189 137.6C254.189 145.919 252.004 153.633 247.641 160.724L247.636 160.732C243.248 167.725 236.552 173.306 227.617 177.504Z" fill="white" fill-opacity="0.8"/>
</svg>
