<svg width="270" height="220" viewBox="0 0 270 220" fill="none" xmlns="http://www.w3.org/2000/svg">
<path d="M63 182.8C51.4 182.8 41.0667 179.933 32 174.2C22.9333 168.467 15.8 160.2 10.6 149.4C5.53333 138.467 3 125.467 3 110.4C3 95.3333 5.53333 82.4 10.6 71.6C15.8 60.6667 22.9333 52.3333 32 46.6C41.0667 40.8667 51.4 38 63 38C74.6 38 84.9333 40.8667 94 46.6C103.067 52.3333 110.133 60.6667 115.2 71.6C120.4 82.4 123 95.3333 123 110.4C123 125.467 120.4 138.467 115.2 149.4C110.133 160.2 103.067 168.467 94 174.2C84.9333 179.933 74.6 182.8 63 182.8ZM63 155.4C71.5333 155.4 78.2 151.733 83 144.4C87.9333 137.067 90.4 125.733 90.4 110.4C90.4 95.0667 87.9333 83.7333 83 76.4C78.2 69.0667 71.5333 65.4 63 65.4C54.6 65.4 47.9333 69.0667 43 76.4C38.2 83.7333 35.8 95.0667 35.8 110.4C35.8 125.733 38.2 137.067 43 144.4C47.9333 151.733 54.6 155.4 63 155.4Z" fill="#2580EA" fill-opacity="0.12"/>
<path d="M266.942 151H244.142V180.4H212.542V151H137.142V129.2L203.142 40.4H237.142L175.942 124.6H213.542V98.4H244.142V124.6H266.942V151Z" fill="#2580EA" fill-opacity="0.12"/>
<path fill-rule="evenodd" clip-rule="evenodd" d="M9.6958 149.827L9.69269 149.82C4.55167 138.727 2 125.577 2 110.4C2 95.2239 4.55151 82.1384 9.69468 71.1753L9.69692 71.1705C14.9673 60.0891 22.2193 51.6017 31.4655 45.7548C40.7052 39.9121 51.2268 37 63 37C74.7732 37 85.2949 39.9121 94.5345 45.7548C103.781 51.6021 110.967 60.0905 116.104 71.1729C121.382 82.137 124 95.2237 124 110.4C124 125.579 121.381 138.732 116.104 149.827C110.966 160.779 103.779 169.199 94.5345 175.045C85.2949 180.888 74.7732 183.8 63 183.8C51.2268 183.8 40.7052 180.888 31.4655 175.045C22.2225 169.2 14.9704 160.782 9.699 149.834L9.6958 149.827ZM115.2 71.6C110.133 60.6667 103.067 52.3333 94 46.6C84.9333 40.8667 74.6 38 63 38C51.4 38 41.0667 40.8667 32 46.6C22.9333 52.3333 15.8 60.6667 10.6 71.6C5.53333 82.4 3 95.3333 3 110.4C3 125.467 5.53333 138.467 10.6 149.4C15.8 160.2 22.9333 168.467 32 174.2C41.0667 179.933 51.4 182.8 63 182.8C74.6 182.8 84.9333 179.933 94 174.2C103.067 168.467 110.133 160.2 115.2 149.4C120.4 138.467 123 125.467 123 110.4C123 95.3333 120.4 82.4 115.2 71.6ZM82.1703 143.842C86.9376 136.755 89.4 125.664 89.4 110.4C89.4 95.1363 86.9376 84.0447 82.1703 76.9582L82.1632 76.9477C77.5419 69.8874 71.1851 66.4 63 66.4C54.9551 66.4 48.592 69.8821 43.8333 76.9528C39.1954 84.0421 36.8 95.1369 36.8 110.4C36.8 125.663 39.1954 136.758 43.8333 143.847C48.592 150.918 54.9551 154.4 63 154.4C71.1851 154.4 77.542 150.913 82.1633 143.852L82.1703 143.842ZM43 144.4C38.2 137.067 35.8 125.733 35.8 110.4C35.8 95.0667 38.2 83.7333 43 76.4C47.9333 69.0667 54.6 65.4 63 65.4C71.5333 65.4 78.2 69.0667 83 76.4C87.9333 83.7333 90.4 95.0667 90.4 110.4C90.4 125.733 87.9333 137.067 83 144.4C78.2 151.733 71.5333 155.4 63 155.4C54.6 155.4 47.9333 151.733 43 144.4ZM267.942 152H245.142V181.4H211.542V152H136.142V128.869L202.639 39.4H239.105L177.905 123.6H212.542V97.4H245.142V123.6H267.942V152ZM244.142 124.6V98.4H213.542V124.6H175.942L237.142 40.4H203.142L137.142 129.2V151H212.542V180.4H244.142V151H266.942V124.6H244.142Z" fill="white" fill-opacity="0.8"/>
</svg>
