<svg width="270" height="220" viewBox="0 0 270 220" fill="none" xmlns="http://www.w3.org/2000/svg">
<path d="M74 182.8C62.4 182.8 52.0667 179.933 43 174.2C33.9333 168.467 26.8 160.2 21.6 149.4C16.5333 138.467 14 125.467 14 110.4C14 95.3333 16.5333 82.4 21.6 71.6C26.8 60.6667 33.9333 52.3333 43 46.6C52.0667 40.8667 62.4 38 74 38C85.6 38 95.9333 40.8667 105 46.6C114.067 52.3333 121.133 60.6667 126.2 71.6C131.4 82.4 134 95.3333 134 110.4C134 125.467 131.4 138.467 126.2 149.4C121.133 160.2 114.067 168.467 105 174.2C95.9333 179.933 85.6 182.8 74 182.8ZM74 155.4C82.5333 155.4 89.2 151.733 94 144.4C98.9333 137.067 101.4 125.733 101.4 110.4C101.4 95.0667 98.9333 83.7333 94 76.4C89.2 69.0667 82.5333 65.4 74 65.4C65.6 65.4 58.9333 69.0667 54 76.4C49.2 83.7333 46.8 95.0667 46.8 110.4C46.8 125.733 49.2 137.067 54 144.4C58.9333 151.733 65.6 155.4 74 155.4Z" fill="#2580EA" fill-opacity="0.12"/>
<path d="M197.742 93C217.476 93 232.009 96.9333 241.342 104.8C250.809 112.667 255.542 123.2 255.542 136.4C255.542 144.933 253.409 152.733 249.142 159.8C244.876 166.733 238.342 172.333 229.542 176.6C220.876 180.733 210.142 182.8 197.342 182.8C187.476 182.8 177.742 181.533 168.142 179C158.676 176.333 150.609 172.6 143.942 167.8L156.742 143C162.076 147 168.209 150.133 175.142 152.4C182.076 154.533 189.209 155.6 196.542 155.6C204.676 155.6 211.076 154 215.742 150.8C220.409 147.6 222.742 143.133 222.742 137.4C222.742 131.4 220.276 126.867 215.342 123.8C210.542 120.733 202.142 119.2 190.142 119.2H154.342L161.542 40.4H246.942V66.4H188.542L186.342 93H197.742Z" fill="#2580EA" fill-opacity="0.12"/>
<path fill-rule="evenodd" clip-rule="evenodd" d="M20.6958 149.827L20.6927 149.82C15.5517 138.727 13 125.577 13 110.4C13 95.2239 15.5515 82.1384 20.6947 71.1753L20.6969 71.1705C25.9673 60.0891 33.2193 51.6017 42.4655 45.7548C51.7052 39.9121 62.2268 37 74 37C85.7732 37 96.2949 39.9121 105.534 45.7548C114.781 51.6021 121.967 60.0905 127.104 71.1729C132.382 82.137 135 95.2237 135 110.4C135 125.579 132.381 138.732 127.104 149.827C121.966 160.779 114.779 169.199 105.534 175.045C96.2949 180.888 85.7732 183.8 74 183.8C62.2268 183.8 51.7052 180.888 42.4655 175.045C33.2225 169.2 25.9704 160.782 20.699 149.834L20.6958 149.827ZM126.2 71.6C121.133 60.6667 114.067 52.3333 105 46.6C95.9333 40.8667 85.6 38 74 38C62.4 38 52.0667 40.8667 43 46.6C33.9333 52.3333 26.8 60.6667 21.6 71.6C16.5333 82.4 14 95.3333 14 110.4C14 125.467 16.5333 138.467 21.6 149.4C26.8 160.2 33.9333 168.467 43 174.2C52.0667 179.933 62.4 182.8 74 182.8C85.6 182.8 95.9333 179.933 105 174.2C114.067 168.467 121.133 160.2 126.2 149.4C131.4 138.467 134 125.467 134 110.4C134 95.3333 131.4 82.4 126.2 71.6ZM93.1703 143.842C97.9376 136.755 100.4 125.664 100.4 110.4C100.4 95.1363 97.9376 84.0447 93.1703 76.9582L93.1632 76.9477C88.5419 69.8874 82.1851 66.4 74 66.4C65.9551 66.4 59.592 69.8821 54.8333 76.9528C50.1954 84.0421 47.8 95.1369 47.8 110.4C47.8 125.663 50.1954 136.758 54.8333 143.847C59.592 150.918 65.9551 154.4 74 154.4C82.1851 154.4 88.542 150.913 93.1633 143.852L93.1703 143.842ZM54 144.4C49.2 137.067 46.8 125.733 46.8 110.4C46.8 95.0667 49.2 83.7333 54 76.4C58.9333 69.0667 65.6 65.4 74 65.4C82.5333 65.4 89.2 69.0667 94 76.4C98.9333 83.7333 101.4 95.0667 101.4 110.4C101.4 125.733 98.9333 137.067 94 144.4C89.2 151.733 82.5333 155.4 74 155.4C65.6 155.4 58.9333 151.733 54 144.4ZM161.542 40.4H246.942V66.4H188.542L186.342 93H197.742C217.476 93 232.009 96.9333 241.342 104.8C250.809 112.667 255.542 123.2 255.542 136.4C255.542 144.933 253.409 152.733 249.142 159.8C244.876 166.733 238.342 172.333 229.542 176.6C220.876 180.733 210.142 182.8 197.342 182.8C187.476 182.8 177.742 181.533 168.142 179C158.676 176.333 150.609 172.6 143.942 167.8L156.742 143C157.012 143.202 157.284 143.402 157.558 143.6C162.698 147.315 168.56 150.248 175.142 152.4C182.076 154.533 189.209 155.6 196.542 155.6C204.676 155.6 211.076 154 215.742 150.8C220.409 147.6 222.742 143.133 222.742 137.4C222.742 131.4 220.276 126.867 215.342 123.8C210.542 120.733 202.142 119.2 190.142 119.2H154.342L161.542 40.4ZM175.445 151.447C182.279 153.549 189.31 154.6 196.542 154.6C204.558 154.6 210.735 153.021 215.177 149.975C219.567 146.965 221.742 142.809 221.742 137.4C221.742 131.732 219.442 127.526 214.814 124.649L214.804 124.643C210.264 121.742 202.121 120.2 190.142 120.2H153.247L160.629 39.4H247.942V67.4H189.463L187.428 92H197.742C217.574 92 232.388 95.9468 241.984 104.033C251.696 112.105 256.542 122.929 256.542 136.4C256.542 145.109 254.362 153.089 249.998 160.317L249.994 160.324C245.609 167.45 238.915 173.167 229.978 177.5L229.973 177.503C221.135 181.718 210.244 183.8 197.342 183.8C187.389 183.8 177.57 182.522 167.887 179.967L167.879 179.965L167.871 179.963C158.314 177.27 150.136 173.492 143.358 168.612L142.658 168.108L156.396 141.49L157.342 142.2C162.578 146.127 168.609 149.211 175.445 151.447Z" fill="white" fill-opacity="0.8"/>
</svg>
