<svg width="250" height="113" viewBox="0 0 250 113" fill="none" xmlns="http://www.w3.org/2000/svg">
<g opacity="0.12">
<ellipse cx="4" cy="3.79856" rx="4" ry="3.79856" fill="#2580EA"/>
<ellipse cx="136" cy="3.79856" rx="4" ry="3.79856" fill="#2580EA"/>
<ellipse cx="48" cy="3.79856" rx="4" ry="3.79856" fill="#2580EA"/>
<ellipse cx="180" cy="3.79856" rx="4" ry="3.79856" fill="#2580EA"/>
<ellipse cx="92" cy="3.79856" rx="4" ry="3.79856" fill="#2580EA"/>
<ellipse cx="224" cy="3.79856" rx="4" ry="3.79856" fill="#2580EA"/>
<ellipse cx="4" cy="24.6907" rx="4" ry="3.79856" fill="#2580EA"/>
<ellipse cx="136" cy="24.6907" rx="4" ry="3.79856" fill="#2580EA"/>
<ellipse cx="48" cy="24.6907" rx="4" ry="3.79856" fill="#2580EA"/>
<ellipse cx="180" cy="24.6907" rx="4" ry="3.79856" fill="#2580EA"/>
<ellipse cx="92" cy="24.6907" rx="4" ry="3.79856" fill="#2580EA"/>
<ellipse cx="224" cy="24.6907" rx="4" ry="3.79856" fill="#2580EA"/>
<ellipse cx="4" cy="45.5827" rx="4" ry="3.79856" fill="#2580EA"/>
<ellipse cx="136" cy="45.5827" rx="4" ry="3.79856" fill="#2580EA"/>
<ellipse cx="48" cy="45.5827" rx="4" ry="3.79856" fill="#2580EA"/>
<ellipse cx="180" cy="45.5827" rx="4" ry="3.79856" fill="#2580EA"/>
<ellipse cx="92" cy="45.5827" rx="4" ry="3.79856" fill="#2580EA"/>
<ellipse cx="224" cy="45.5827" rx="4" ry="3.79856" fill="#2580EA"/>
<ellipse cx="4" cy="66.4748" rx="4" ry="3.79856" fill="#2580EA"/>
<ellipse cx="136" cy="66.4748" rx="4" ry="3.79856" fill="#2580EA"/>
<ellipse cx="48" cy="66.4748" rx="4" ry="3.79856" fill="#2580EA"/>
<ellipse cx="180" cy="66.4748" rx="4" ry="3.79856" fill="#2580EA"/>
<ellipse cx="92" cy="66.4748" rx="4" ry="3.79856" fill="#2580EA"/>
<ellipse cx="224" cy="66.4748" rx="4" ry="3.79856" fill="#2580EA"/>
<ellipse cx="4" cy="87.3669" rx="4" ry="3.79856" fill="#2580EA"/>
<ellipse cx="4" cy="108.259" rx="4" ry="3.79856" fill="#2580EA"/>
<ellipse cx="136" cy="87.3669" rx="4" ry="3.79856" fill="#2580EA"/>
<ellipse cx="136" cy="108.259" rx="4" ry="3.79856" fill="#2580EA"/>
<ellipse cx="48" cy="87.3669" rx="4" ry="3.79856" fill="#2580EA"/>
<ellipse cx="48" cy="108.259" rx="4" ry="3.79856" fill="#2580EA"/>
<ellipse cx="180" cy="87.3669" rx="4" ry="3.79856" fill="#2580EA"/>
<ellipse cx="180" cy="108.259" rx="4" ry="3.79856" fill="#2580EA"/>
<ellipse cx="92" cy="87.3669" rx="4" ry="3.79856" fill="#2580EA"/>
<ellipse cx="92" cy="108.259" rx="4" ry="3.79856" fill="#2580EA"/>
<ellipse cx="224" cy="87.3669" rx="4" ry="3.79856" fill="#2580EA"/>
<ellipse cx="224" cy="108.259" rx="4" ry="3.79856" fill="#2580EA"/>
<ellipse cx="26" cy="87.3669" rx="4" ry="3.79856" fill="#2580EA"/>
<ellipse cx="26" cy="108.259" rx="4" ry="3.79856" fill="#2580EA"/>
<ellipse cx="158" cy="87.3669" rx="4" ry="3.79856" fill="#2580EA"/>
<ellipse cx="158" cy="108.259" rx="4" ry="3.79856" fill="#2580EA"/>
<ellipse cx="70" cy="87.3669" rx="4" ry="3.79856" fill="#2580EA"/>
<ellipse cx="70" cy="108.259" rx="4" ry="3.79856" fill="#2580EA"/>
<ellipse cx="202" cy="87.3669" rx="4" ry="3.79856" fill="#2580EA"/>
<ellipse cx="202" cy="108.259" rx="4" ry="3.79856" fill="#2580EA"/>
<ellipse cx="114" cy="87.3669" rx="4" ry="3.79856" fill="#2580EA"/>
<ellipse cx="114" cy="108.259" rx="4" ry="3.79856" fill="#2580EA"/>
<ellipse cx="246" cy="87.3669" rx="4" ry="3.79856" fill="#2580EA"/>
<ellipse cx="246" cy="108.259" rx="4" ry="3.79856" fill="#2580EA"/>
<ellipse cx="26" cy="66.4748" rx="4" ry="3.79856" fill="#2580EA"/>
<ellipse cx="158" cy="66.4748" rx="4" ry="3.79856" fill="#2580EA"/>
<ellipse cx="70" cy="66.4748" rx="4" ry="3.79856" fill="#2580EA"/>
<ellipse cx="202" cy="66.4748" rx="4" ry="3.79856" fill="#2580EA"/>
<ellipse cx="114" cy="66.4748" rx="4" ry="3.79856" fill="#2580EA"/>
<ellipse cx="246" cy="66.4748" rx="4" ry="3.79856" fill="#2580EA"/>
<ellipse cx="26" cy="45.5827" rx="4" ry="3.79856" fill="#2580EA"/>
<ellipse cx="158" cy="45.5827" rx="4" ry="3.79856" fill="#2580EA"/>
<ellipse cx="70" cy="45.5827" rx="4" ry="3.79856" fill="#2580EA"/>
<ellipse cx="202" cy="45.5827" rx="4" ry="3.79856" fill="#2580EA"/>
<ellipse cx="114" cy="45.5827" rx="4" ry="3.79856" fill="#2580EA"/>
<ellipse cx="246" cy="45.5827" rx="4" ry="3.79856" fill="#2580EA"/>
<ellipse cx="26" cy="24.6907" rx="4" ry="3.79856" fill="#2580EA"/>
<ellipse cx="158" cy="24.6907" rx="4" ry="3.79856" fill="#2580EA"/>
<ellipse cx="70" cy="24.6907" rx="4" ry="3.79856" fill="#2580EA"/>
<ellipse cx="202" cy="24.6907" rx="4" ry="3.79856" fill="#2580EA"/>
<ellipse cx="114" cy="24.6907" rx="4" ry="3.79856" fill="#2580EA"/>
<ellipse cx="246" cy="24.6907" rx="4" ry="3.79856" fill="#2580EA"/>
<ellipse cx="26" cy="3.79856" rx="4" ry="3.79856" fill="#2580EA"/>
<ellipse cx="158" cy="3.79856" rx="4" ry="3.79856" fill="#2580EA"/>
<ellipse cx="70" cy="3.79856" rx="4" ry="3.79856" fill="#2580EA"/>
<ellipse cx="202" cy="3.79856" rx="4" ry="3.79856" fill="#2580EA"/>
<ellipse cx="114" cy="3.79856" rx="4" ry="3.79856" fill="#2580EA"/>
<ellipse cx="246" cy="3.79856" rx="4" ry="3.79856" fill="#2580EA"/>
</g>
</svg>
