<svg width="295" height="282" viewBox="0 0 295 282" fill="none" xmlns="http://www.w3.org/2000/svg">
<circle cx="159.795" cy="3.04733" r="2.19845" fill="#2582ED" fill-opacity="0.12"/>
<circle cx="232.344" cy="3.04733" r="2.19845" fill="#2582ED" fill-opacity="0.12"/>
<circle cx="183.978" cy="3.04733" r="2.19845" fill="#2582ED" fill-opacity="0.12"/>
<circle cx="256.527" cy="3.04733" r="2.19845" fill="#2582ED" fill-opacity="0.12"/>
<circle cx="208.161" cy="3.04733" r="2.19845" fill="#2582ED" fill-opacity="0.12"/>
<circle cx="280.71" cy="3.04733" r="2.19845" fill="#2582ED" fill-opacity="0.12"/>
<circle cx="159.795" cy="15.1388" r="2.19845" fill="#2582ED" fill-opacity="0.12"/>
<circle cx="232.344" cy="15.1388" r="2.19845" fill="#2582ED" fill-opacity="0.12"/>
<circle cx="183.978" cy="15.1388" r="2.19845" fill="#2582ED" fill-opacity="0.12"/>
<circle cx="256.527" cy="15.1388" r="2.19845" fill="#2582ED" fill-opacity="0.12"/>
<circle cx="208.161" cy="15.1388" r="2.19845" fill="#2582ED" fill-opacity="0.12"/>
<circle cx="280.71" cy="15.1388" r="2.19845" fill="#2582ED" fill-opacity="0.12"/>
<circle cx="159.795" cy="27.2303" r="2.19845" fill="#2582ED" fill-opacity="0.12"/>
<circle cx="232.344" cy="27.2303" r="2.19845" fill="#2582ED" fill-opacity="0.12"/>
<circle cx="183.978" cy="27.2303" r="2.19845" fill="#2582ED" fill-opacity="0.12"/>
<circle cx="256.527" cy="27.2303" r="2.19845" fill="#2582ED" fill-opacity="0.12"/>
<circle cx="208.161" cy="27.2303" r="2.19845" fill="#2582ED" fill-opacity="0.12"/>
<circle cx="280.71" cy="27.2303" r="2.19845" fill="#2582ED" fill-opacity="0.12"/>
<circle cx="159.795" cy="39.3217" r="2.19845" fill="#2582ED" fill-opacity="0.12"/>
<circle cx="232.344" cy="39.3217" r="2.19845" fill="#2582ED" fill-opacity="0.12"/>
<circle cx="183.978" cy="39.3217" r="2.19845" fill="#2582ED" fill-opacity="0.12"/>
<circle cx="256.527" cy="39.3217" r="2.19845" fill="#2582ED" fill-opacity="0.12"/>
<circle cx="208.161" cy="39.3217" r="2.19845" fill="#2582ED" fill-opacity="0.12"/>
<circle cx="280.71" cy="39.3217" r="2.19845" fill="#2582ED" fill-opacity="0.12"/>
<circle cx="159.795" cy="51.4132" r="2.19845" fill="#2582ED" fill-opacity="0.12"/>
<circle cx="159.795" cy="63.5047" r="2.19845" fill="#2582ED" fill-opacity="0.12"/>
<circle cx="232.344" cy="51.4132" r="2.19845" fill="#2582ED" fill-opacity="0.12"/>
<circle cx="232.344" cy="63.5047" r="2.19845" fill="#2582ED" fill-opacity="0.12"/>
<circle cx="183.978" cy="51.4132" r="2.19845" fill="#2582ED" fill-opacity="0.12"/>
<circle cx="183.978" cy="63.5047" r="2.19845" fill="#2582ED" fill-opacity="0.12"/>
<circle cx="256.527" cy="51.4132" r="2.19845" fill="#2582ED" fill-opacity="0.12"/>
<circle cx="256.527" cy="63.5047" r="2.19845" fill="#2582ED" fill-opacity="0.12"/>
<circle cx="208.161" cy="51.4132" r="2.19845" fill="#2582ED" fill-opacity="0.12"/>
<circle cx="208.161" cy="63.5047" r="2.19845" fill="#2582ED" fill-opacity="0.12"/>
<circle cx="280.71" cy="51.4132" r="2.19845" fill="#2582ED" fill-opacity="0.12"/>
<circle cx="280.71" cy="63.5047" r="2.19845" fill="#2582ED" fill-opacity="0.12"/>
<circle cx="171.887" cy="51.4132" r="2.19845" fill="#2582ED" fill-opacity="0.12"/>
<circle cx="171.887" cy="63.5047" r="2.19845" fill="#2582ED" fill-opacity="0.12"/>
<circle cx="244.436" cy="51.4132" r="2.19845" fill="#2582ED" fill-opacity="0.12"/>
<circle cx="244.436" cy="63.5047" r="2.19845" fill="#2582ED" fill-opacity="0.12"/>
<circle cx="196.07" cy="51.4132" r="2.19845" fill="#2582ED" fill-opacity="0.12"/>
<circle cx="196.07" cy="63.5047" r="2.19845" fill="#2582ED" fill-opacity="0.12"/>
<circle cx="268.619" cy="51.4132" r="2.19845" fill="#2582ED" fill-opacity="0.12"/>
<circle cx="268.619" cy="63.5047" r="2.19845" fill="#2582ED" fill-opacity="0.12"/>
<circle cx="220.253" cy="51.4132" r="2.19845" fill="#2582ED" fill-opacity="0.12"/>
<circle cx="220.253" cy="63.5047" r="2.19845" fill="#2582ED" fill-opacity="0.12"/>
<circle cx="292.801" cy="51.4132" r="2.19845" fill="#2582ED" fill-opacity="0.12"/>
<circle cx="292.801" cy="63.5047" r="2.19845" fill="#2582ED" fill-opacity="0.12"/>
<circle cx="171.887" cy="39.3217" r="2.19845" fill="#2582ED" fill-opacity="0.12"/>
<circle cx="244.436" cy="39.3217" r="2.19845" fill="#2582ED" fill-opacity="0.12"/>
<circle cx="196.07" cy="39.3217" r="2.19845" fill="#2582ED" fill-opacity="0.12"/>
<circle cx="268.619" cy="39.3217" r="2.19845" fill="#2582ED" fill-opacity="0.12"/>
<circle cx="220.253" cy="39.3217" r="2.19845" fill="#2582ED" fill-opacity="0.12"/>
<circle cx="292.801" cy="39.3217" r="2.19845" fill="#2582ED" fill-opacity="0.12"/>
<circle cx="171.887" cy="27.2303" r="2.19845" fill="#2582ED" fill-opacity="0.12"/>
<circle cx="244.436" cy="27.2303" r="2.19845" fill="#2582ED" fill-opacity="0.12"/>
<circle cx="196.07" cy="27.2303" r="2.19845" fill="#2582ED" fill-opacity="0.12"/>
<circle cx="268.619" cy="27.2303" r="2.19845" fill="#2582ED" fill-opacity="0.12"/>
<circle cx="220.253" cy="27.2303" r="2.19845" fill="#2582ED" fill-opacity="0.12"/>
<circle cx="292.801" cy="27.2303" r="2.19845" fill="#2582ED" fill-opacity="0.12"/>
<circle cx="171.887" cy="15.1388" r="2.19845" fill="#2582ED" fill-opacity="0.12"/>
<circle cx="244.436" cy="15.1388" r="2.19845" fill="#2582ED" fill-opacity="0.12"/>
<circle cx="196.07" cy="15.1388" r="2.19845" fill="#2582ED" fill-opacity="0.12"/>
<circle cx="268.619" cy="15.1388" r="2.19845" fill="#2582ED" fill-opacity="0.12"/>
<circle cx="220.253" cy="15.1388" r="2.19845" fill="#2582ED" fill-opacity="0.12"/>
<circle cx="292.801" cy="15.1388" r="2.19845" fill="#2582ED" fill-opacity="0.12"/>
<circle cx="171.887" cy="3.04733" r="2.19845" fill="#2582ED" fill-opacity="0.12"/>
<circle cx="244.436" cy="3.04733" r="2.19845" fill="#2582ED" fill-opacity="0.12"/>
<circle cx="196.07" cy="3.04733" r="2.19845" fill="#2582ED" fill-opacity="0.12"/>
<circle cx="268.619" cy="3.04733" r="2.19845" fill="#2582ED" fill-opacity="0.12"/>
<circle cx="220.253" cy="3.04733" r="2.19845" fill="#2582ED" fill-opacity="0.12"/>
<circle cx="292.801" cy="3.04733" r="2.19845" fill="#2582ED" fill-opacity="0.12"/>
<circle cx="159.795" cy="218.495" r="2.19845" fill="#2582ED" fill-opacity="0.12"/>
<circle cx="232.344" cy="218.495" r="2.19845" fill="#2582ED" fill-opacity="0.12"/>
<circle cx="183.978" cy="218.495" r="2.19845" fill="#2582ED" fill-opacity="0.12"/>
<circle cx="256.527" cy="218.495" r="2.19845" fill="#2582ED" fill-opacity="0.12"/>
<circle cx="208.161" cy="218.495" r="2.19845" fill="#2582ED" fill-opacity="0.12"/>
<circle cx="280.71" cy="218.495" r="2.19845" fill="#2582ED" fill-opacity="0.12"/>
<circle cx="159.795" cy="230.587" r="2.19845" fill="#2582ED" fill-opacity="0.12"/>
<circle cx="232.344" cy="230.587" r="2.19845" fill="#2582ED" fill-opacity="0.12"/>
<circle cx="183.978" cy="230.587" r="2.19845" fill="#2582ED" fill-opacity="0.12"/>
<circle cx="256.527" cy="230.587" r="2.19845" fill="#2582ED" fill-opacity="0.12"/>
<circle cx="208.161" cy="230.587" r="2.19845" fill="#2582ED" fill-opacity="0.12"/>
<circle cx="280.71" cy="230.587" r="2.19845" fill="#2582ED" fill-opacity="0.12"/>
<circle cx="159.795" cy="242.678" r="2.19845" fill="#2582ED" fill-opacity="0.12"/>
<circle cx="232.344" cy="242.678" r="2.19845" fill="#2582ED" fill-opacity="0.12"/>
<circle cx="183.978" cy="242.678" r="2.19845" fill="#2582ED" fill-opacity="0.12"/>
<circle cx="256.527" cy="242.678" r="2.19845" fill="#2582ED" fill-opacity="0.12"/>
<circle cx="208.161" cy="242.678" r="2.19845" fill="#2582ED" fill-opacity="0.12"/>
<circle cx="280.71" cy="242.678" r="2.19845" fill="#2582ED" fill-opacity="0.12"/>
<circle cx="159.795" cy="254.77" r="2.19845" fill="#2582ED" fill-opacity="0.12"/>
<circle cx="232.344" cy="254.77" r="2.19845" fill="#2582ED" fill-opacity="0.12"/>
<circle cx="183.978" cy="254.77" r="2.19845" fill="#2582ED" fill-opacity="0.12"/>
<circle cx="256.527" cy="254.77" r="2.19845" fill="#2582ED" fill-opacity="0.12"/>
<circle cx="208.161" cy="254.77" r="2.19845" fill="#2582ED" fill-opacity="0.12"/>
<circle cx="280.71" cy="254.77" r="2.19845" fill="#2582ED" fill-opacity="0.12"/>
<circle cx="159.795" cy="266.861" r="2.19845" fill="#2582ED" fill-opacity="0.12"/>
<circle cx="159.795" cy="278.953" r="2.19845" fill="#2582ED" fill-opacity="0.12"/>
<circle cx="232.344" cy="266.861" r="2.19845" fill="#2582ED" fill-opacity="0.12"/>
<circle cx="232.344" cy="278.953" r="2.19845" fill="#2582ED" fill-opacity="0.12"/>
<circle cx="183.978" cy="266.861" r="2.19845" fill="#2582ED" fill-opacity="0.12"/>
<circle cx="183.978" cy="278.953" r="2.19845" fill="#2582ED" fill-opacity="0.12"/>
<circle cx="256.527" cy="266.861" r="2.19845" fill="#2582ED" fill-opacity="0.12"/>
<circle cx="256.527" cy="278.953" r="2.19845" fill="#2582ED" fill-opacity="0.12"/>
<circle cx="208.161" cy="266.861" r="2.19845" fill="#2582ED" fill-opacity="0.12"/>
<circle cx="208.161" cy="278.953" r="2.19845" fill="#2582ED" fill-opacity="0.12"/>
<circle cx="280.71" cy="266.861" r="2.19845" fill="#2582ED" fill-opacity="0.12"/>
<circle cx="280.71" cy="278.953" r="2.19845" fill="#2582ED" fill-opacity="0.12"/>
<circle cx="171.887" cy="266.861" r="2.19845" fill="#2582ED" fill-opacity="0.12"/>
<circle cx="171.887" cy="278.953" r="2.19845" fill="#2582ED" fill-opacity="0.12"/>
<circle cx="244.436" cy="266.861" r="2.19845" fill="#2582ED" fill-opacity="0.12"/>
<circle cx="244.436" cy="278.953" r="2.19845" fill="#2582ED" fill-opacity="0.12"/>
<circle cx="196.07" cy="266.861" r="2.19845" fill="#2582ED" fill-opacity="0.12"/>
<circle cx="196.07" cy="278.953" r="2.19845" fill="#2582ED" fill-opacity="0.12"/>
<circle cx="268.619" cy="266.861" r="2.19845" fill="#2582ED" fill-opacity="0.12"/>
<circle cx="268.619" cy="278.953" r="2.19845" fill="#2582ED" fill-opacity="0.12"/>
<circle cx="220.253" cy="266.861" r="2.19845" fill="#2582ED" fill-opacity="0.12"/>
<circle cx="220.253" cy="278.953" r="2.19845" fill="#2582ED" fill-opacity="0.12"/>
<circle cx="292.801" cy="266.861" r="2.19845" fill="#2582ED" fill-opacity="0.12"/>
<circle cx="292.801" cy="278.953" r="2.19845" fill="#2582ED" fill-opacity="0.12"/>
<circle cx="171.887" cy="254.77" r="2.19845" fill="#2582ED" fill-opacity="0.12"/>
<circle cx="244.436" cy="254.77" r="2.19845" fill="#2582ED" fill-opacity="0.12"/>
<circle cx="196.07" cy="254.77" r="2.19845" fill="#2582ED" fill-opacity="0.12"/>
<circle cx="268.619" cy="254.77" r="2.19845" fill="#2582ED" fill-opacity="0.12"/>
<circle cx="220.253" cy="254.77" r="2.19845" fill="#2582ED" fill-opacity="0.12"/>
<circle cx="292.801" cy="254.77" r="2.19845" fill="#2582ED" fill-opacity="0.12"/>
<circle cx="171.887" cy="242.678" r="2.19845" fill="#2582ED" fill-opacity="0.12"/>
<circle cx="244.436" cy="242.678" r="2.19845" fill="#2582ED" fill-opacity="0.12"/>
<circle cx="196.07" cy="242.678" r="2.19845" fill="#2582ED" fill-opacity="0.12"/>
<circle cx="268.619" cy="242.678" r="2.19845" fill="#2582ED" fill-opacity="0.12"/>
<circle cx="220.253" cy="242.678" r="2.19845" fill="#2582ED" fill-opacity="0.12"/>
<circle cx="292.801" cy="242.678" r="2.19845" fill="#2582ED" fill-opacity="0.12"/>
<circle cx="171.887" cy="230.587" r="2.19845" fill="#2582ED" fill-opacity="0.12"/>
<circle cx="244.436" cy="230.587" r="2.19845" fill="#2582ED" fill-opacity="0.12"/>
<circle cx="196.07" cy="230.587" r="2.19845" fill="#2582ED" fill-opacity="0.12"/>
<circle cx="268.619" cy="230.587" r="2.19845" fill="#2582ED" fill-opacity="0.12"/>
<circle cx="220.253" cy="230.587" r="2.19845" fill="#2582ED" fill-opacity="0.12"/>
<circle cx="292.801" cy="230.587" r="2.19845" fill="#2582ED" fill-opacity="0.12"/>
<circle cx="171.887" cy="218.495" r="2.19845" fill="#2582ED" fill-opacity="0.12"/>
<circle cx="244.436" cy="218.495" r="2.19845" fill="#2582ED" fill-opacity="0.12"/>
<circle cx="196.07" cy="218.495" r="2.19845" fill="#2582ED" fill-opacity="0.12"/>
<circle cx="268.619" cy="218.495" r="2.19845" fill="#2582ED" fill-opacity="0.12"/>
<circle cx="220.253" cy="218.495" r="2.19845" fill="#2582ED" fill-opacity="0.12"/>
<circle cx="292.801" cy="218.495" r="2.19845" fill="#2582ED" fill-opacity="0.12"/>
<circle cx="14.6976" cy="3.04733" r="2.19845" fill="#2582ED" fill-opacity="0.12"/>
<circle cx="2.60616" cy="3.04733" r="2.19845" fill="#2582ED" fill-opacity="0.12"/>
<circle cx="87.2465" cy="3.04733" r="2.19845" fill="#2582ED" fill-opacity="0.12"/>
<circle cx="38.8806" cy="3.04733" r="2.19845" fill="#2582ED" fill-opacity="0.12"/>
<circle cx="111.429" cy="3.04733" r="2.19845" fill="#2582ED" fill-opacity="0.12"/>
<circle cx="63.0636" cy="3.04733" r="2.19845" fill="#2582ED" fill-opacity="0.12"/>
<circle cx="135.612" cy="3.04733" r="2.19845" fill="#2582ED" fill-opacity="0.12"/>
<circle cx="14.6976" cy="15.1388" r="2.19845" fill="#2582ED" fill-opacity="0.12"/>
<circle cx="2.60616" cy="15.1388" r="2.19845" fill="#2582ED" fill-opacity="0.12"/>
<circle cx="87.2465" cy="15.1388" r="2.19845" fill="#2582ED" fill-opacity="0.12"/>
<circle cx="38.8806" cy="15.1388" r="2.19845" fill="#2582ED" fill-opacity="0.12"/>
<circle cx="111.429" cy="15.1388" r="2.19845" fill="#2582ED" fill-opacity="0.12"/>
<circle cx="63.0636" cy="15.1388" r="2.19845" fill="#2582ED" fill-opacity="0.12"/>
<circle cx="135.612" cy="15.1388" r="2.19845" fill="#2582ED" fill-opacity="0.12"/>
<circle cx="14.6976" cy="27.2303" r="2.19845" fill="#2582ED" fill-opacity="0.12"/>
<circle cx="2.60616" cy="27.2303" r="2.19845" fill="#2582ED" fill-opacity="0.12"/>
<circle cx="87.2465" cy="27.2303" r="2.19845" fill="#2582ED" fill-opacity="0.12"/>
<circle cx="38.8806" cy="27.2303" r="2.19845" fill="#2582ED" fill-opacity="0.12"/>
<circle cx="111.429" cy="27.2303" r="2.19845" fill="#2582ED" fill-opacity="0.12"/>
<circle cx="63.0636" cy="27.2303" r="2.19845" fill="#2582ED" fill-opacity="0.12"/>
<circle cx="135.612" cy="27.2303" r="2.19845" fill="#2582ED" fill-opacity="0.12"/>
<circle cx="14.6976" cy="39.3217" r="2.19845" fill="#2582ED" fill-opacity="0.12"/>
<circle cx="87.2465" cy="39.3217" r="2.19845" fill="#2582ED" fill-opacity="0.12"/>
<circle cx="38.8806" cy="39.3217" r="2.19845" fill="#2582ED" fill-opacity="0.12"/>
<circle cx="111.429" cy="39.3217" r="2.19845" fill="#2582ED" fill-opacity="0.12"/>
<circle cx="63.0636" cy="39.3217" r="2.19845" fill="#2582ED" fill-opacity="0.12"/>
<circle cx="135.612" cy="39.3217" r="2.19845" fill="#2582ED" fill-opacity="0.12"/>
<circle cx="14.6976" cy="51.4132" r="2.19845" fill="#2582ED" fill-opacity="0.12"/>
<circle cx="14.6976" cy="63.5047" r="2.19845" fill="#2582ED" fill-opacity="0.12"/>
<circle cx="87.2465" cy="51.4132" r="2.19845" fill="#2582ED" fill-opacity="0.12"/>
<circle cx="87.2465" cy="63.5047" r="2.19845" fill="#2582ED" fill-opacity="0.12"/>
<circle cx="38.8806" cy="51.4132" r="2.19845" fill="#2582ED" fill-opacity="0.12"/>
<circle cx="38.8806" cy="63.5047" r="2.19845" fill="#2582ED" fill-opacity="0.12"/>
<circle cx="111.429" cy="51.4132" r="2.19845" fill="#2582ED" fill-opacity="0.12"/>
<circle cx="111.429" cy="63.5047" r="2.19845" fill="#2582ED" fill-opacity="0.12"/>
<circle cx="63.0636" cy="51.4132" r="2.19845" fill="#2582ED" fill-opacity="0.12"/>
<circle cx="63.0636" cy="63.5047" r="2.19845" fill="#2582ED" fill-opacity="0.12"/>
<circle cx="135.612" cy="51.4132" r="2.19845" fill="#2582ED" fill-opacity="0.12"/>
<circle cx="135.612" cy="63.5047" r="2.19845" fill="#2582ED" fill-opacity="0.12"/>
<circle cx="26.789" cy="51.4132" r="2.19845" fill="#2582ED" fill-opacity="0.12"/>
<circle cx="26.789" cy="63.5047" r="2.19845" fill="#2582ED" fill-opacity="0.12"/>
<circle cx="99.338" cy="51.4132" r="2.19845" fill="#2582ED" fill-opacity="0.12"/>
<circle cx="99.338" cy="63.5047" r="2.19845" fill="#2582ED" fill-opacity="0.12"/>
<circle cx="50.972" cy="51.4132" r="2.19845" fill="#2582ED" fill-opacity="0.12"/>
<circle cx="50.972" cy="63.5047" r="2.19845" fill="#2582ED" fill-opacity="0.12"/>
<circle cx="123.521" cy="51.4132" r="2.19845" fill="#2582ED" fill-opacity="0.12"/>
<circle cx="123.521" cy="63.5047" r="2.19845" fill="#2582ED" fill-opacity="0.12"/>
<circle cx="75.155" cy="51.4132" r="2.19845" fill="#2582ED" fill-opacity="0.12"/>
<circle cx="75.155" cy="63.5047" r="2.19845" fill="#2582ED" fill-opacity="0.12"/>
<circle cx="147.704" cy="51.4132" r="2.19845" fill="#2582ED" fill-opacity="0.12"/>
<circle cx="147.704" cy="63.5047" r="2.19845" fill="#2582ED" fill-opacity="0.12"/>
<circle cx="26.789" cy="39.3217" r="2.19845" fill="#2582ED" fill-opacity="0.12"/>
<circle cx="99.338" cy="39.3217" r="2.19845" fill="#2582ED" fill-opacity="0.12"/>
<circle cx="50.972" cy="39.3217" r="2.19845" fill="#2582ED" fill-opacity="0.12"/>
<circle cx="123.521" cy="39.3217" r="2.19845" fill="#2582ED" fill-opacity="0.12"/>
<circle cx="75.155" cy="39.3217" r="2.19845" fill="#2582ED" fill-opacity="0.12"/>
<circle cx="147.704" cy="39.3217" r="2.19845" fill="#2582ED" fill-opacity="0.12"/>
<circle cx="26.789" cy="27.2303" r="2.19845" fill="#2582ED" fill-opacity="0.12"/>
<circle cx="99.338" cy="27.2303" r="2.19845" fill="#2582ED" fill-opacity="0.12"/>
<circle cx="50.972" cy="27.2303" r="2.19845" fill="#2582ED" fill-opacity="0.12"/>
<circle cx="123.521" cy="27.2303" r="2.19845" fill="#2582ED" fill-opacity="0.12"/>
<circle cx="75.155" cy="27.2303" r="2.19845" fill="#2582ED" fill-opacity="0.12"/>
<circle cx="147.704" cy="27.2303" r="2.19845" fill="#2582ED" fill-opacity="0.12"/>
<circle cx="26.789" cy="15.1388" r="2.19845" fill="#2582ED" fill-opacity="0.12"/>
<circle cx="99.338" cy="15.1388" r="2.19845" fill="#2582ED" fill-opacity="0.12"/>
<circle cx="50.972" cy="15.1388" r="2.19845" fill="#2582ED" fill-opacity="0.12"/>
<circle cx="123.521" cy="15.1388" r="2.19845" fill="#2582ED" fill-opacity="0.12"/>
<circle cx="75.155" cy="15.1388" r="2.19845" fill="#2582ED" fill-opacity="0.12"/>
<circle cx="147.704" cy="15.1388" r="2.19845" fill="#2582ED" fill-opacity="0.12"/>
<circle cx="26.789" cy="3.04733" r="2.19845" fill="#2582ED" fill-opacity="0.12"/>
<circle cx="99.338" cy="3.04733" r="2.19845" fill="#2582ED" fill-opacity="0.12"/>
<circle cx="50.972" cy="3.04733" r="2.19845" fill="#2582ED" fill-opacity="0.12"/>
<circle cx="123.521" cy="3.04733" r="2.19845" fill="#2582ED" fill-opacity="0.12"/>
<circle cx="75.155" cy="3.04733" r="2.19845" fill="#2582ED" fill-opacity="0.12"/>
<circle cx="147.704" cy="3.04733" r="2.19845" fill="#2582ED" fill-opacity="0.12"/>
<circle cx="14.6976" cy="218.495" r="2.19845" fill="#2582ED" fill-opacity="0.12"/>
<circle cx="87.2465" cy="218.495" r="2.19845" fill="#2582ED" fill-opacity="0.12"/>
<circle cx="38.8806" cy="218.495" r="2.19845" fill="#2582ED" fill-opacity="0.12"/>
<circle cx="111.429" cy="218.495" r="2.19845" fill="#2582ED" fill-opacity="0.12"/>
<circle cx="63.0636" cy="218.495" r="2.19845" fill="#2582ED" fill-opacity="0.12"/>
<circle cx="135.612" cy="218.495" r="2.19845" fill="#2582ED" fill-opacity="0.12"/>
<circle cx="14.6976" cy="230.587" r="2.19845" fill="#2582ED" fill-opacity="0.12"/>
<circle cx="87.2465" cy="230.587" r="2.19845" fill="#2582ED" fill-opacity="0.12"/>
<circle cx="38.8806" cy="230.587" r="2.19845" fill="#2582ED" fill-opacity="0.12"/>
<circle cx="111.429" cy="230.587" r="2.19845" fill="#2582ED" fill-opacity="0.12"/>
<circle cx="63.0636" cy="230.587" r="2.19845" fill="#2582ED" fill-opacity="0.12"/>
<circle cx="135.612" cy="230.587" r="2.19845" fill="#2582ED" fill-opacity="0.12"/>
<circle cx="14.6976" cy="242.678" r="2.19845" fill="#2582ED" fill-opacity="0.12"/>
<circle cx="87.2465" cy="242.678" r="2.19845" fill="#2582ED" fill-opacity="0.12"/>
<circle cx="38.8806" cy="242.678" r="2.19845" fill="#2582ED" fill-opacity="0.12"/>
<circle cx="111.429" cy="242.678" r="2.19845" fill="#2582ED" fill-opacity="0.12"/>
<circle cx="63.0636" cy="242.678" r="2.19845" fill="#2582ED" fill-opacity="0.12"/>
<circle cx="135.612" cy="242.678" r="2.19845" fill="#2582ED" fill-opacity="0.12"/>
<circle cx="14.6976" cy="254.77" r="2.19845" fill="#2582ED" fill-opacity="0.12"/>
<circle cx="2.60616" cy="254.77" r="2.19845" fill="#2582ED" fill-opacity="0.12"/>
<circle cx="87.2465" cy="254.77" r="2.19845" fill="#2582ED" fill-opacity="0.12"/>
<circle cx="38.8806" cy="254.77" r="2.19845" fill="#2582ED" fill-opacity="0.12"/>
<circle cx="111.429" cy="254.77" r="2.19845" fill="#2582ED" fill-opacity="0.12"/>
<circle cx="63.0636" cy="254.77" r="2.19845" fill="#2582ED" fill-opacity="0.12"/>
<circle cx="135.612" cy="254.77" r="2.19845" fill="#2582ED" fill-opacity="0.12"/>
<circle cx="14.6976" cy="266.861" r="2.19845" fill="#2582ED" fill-opacity="0.12"/>
<circle cx="2.60616" cy="266.861" r="2.19845" fill="#2582ED" fill-opacity="0.12"/>
<circle cx="14.6976" cy="278.953" r="2.19845" fill="#2582ED" fill-opacity="0.12"/>
<circle cx="2.60616" cy="278.953" r="2.19845" fill="#2582ED" fill-opacity="0.12"/>
<circle cx="87.2465" cy="266.861" r="2.19845" fill="#2582ED" fill-opacity="0.12"/>
<circle cx="87.2465" cy="278.953" r="2.19845" fill="#2582ED" fill-opacity="0.12"/>
<circle cx="38.8806" cy="266.861" r="2.19845" fill="#2582ED" fill-opacity="0.12"/>
<circle cx="38.8806" cy="278.953" r="2.19845" fill="#2582ED" fill-opacity="0.12"/>
<circle cx="111.429" cy="266.861" r="2.19845" fill="#2582ED" fill-opacity="0.12"/>
<circle cx="111.429" cy="278.953" r="2.19845" fill="#2582ED" fill-opacity="0.12"/>
<circle cx="63.0636" cy="266.861" r="2.19845" fill="#2582ED" fill-opacity="0.12"/>
<circle cx="63.0636" cy="278.953" r="2.19845" fill="#2582ED" fill-opacity="0.12"/>
<circle cx="135.612" cy="266.861" r="2.19845" fill="#2582ED" fill-opacity="0.12"/>
<circle cx="135.612" cy="278.953" r="2.19845" fill="#2582ED" fill-opacity="0.12"/>
<circle cx="26.789" cy="266.861" r="2.19845" fill="#2582ED" fill-opacity="0.12"/>
<circle cx="26.789" cy="278.953" r="2.19845" fill="#2582ED" fill-opacity="0.12"/>
<circle cx="99.338" cy="266.861" r="2.19845" fill="#2582ED" fill-opacity="0.12"/>
<circle cx="99.338" cy="278.953" r="2.19845" fill="#2582ED" fill-opacity="0.12"/>
<circle cx="50.972" cy="266.861" r="2.19845" fill="#2582ED" fill-opacity="0.12"/>
<circle cx="50.972" cy="278.953" r="2.19845" fill="#2582ED" fill-opacity="0.12"/>
<circle cx="123.521" cy="266.861" r="2.19845" fill="#2582ED" fill-opacity="0.12"/>
<circle cx="123.521" cy="278.953" r="2.19845" fill="#2582ED" fill-opacity="0.12"/>
<circle cx="75.155" cy="266.861" r="2.19845" fill="#2582ED" fill-opacity="0.12"/>
<circle cx="75.155" cy="278.953" r="2.19845" fill="#2582ED" fill-opacity="0.12"/>
<circle cx="147.704" cy="266.861" r="2.19845" fill="#2582ED" fill-opacity="0.12"/>
<circle cx="147.704" cy="278.953" r="2.19845" fill="#2582ED" fill-opacity="0.12"/>
<circle cx="26.789" cy="254.77" r="2.19845" fill="#2582ED" fill-opacity="0.12"/>
<circle cx="99.338" cy="254.77" r="2.19845" fill="#2582ED" fill-opacity="0.12"/>
<circle cx="50.972" cy="254.77" r="2.19845" fill="#2582ED" fill-opacity="0.12"/>
<circle cx="123.521" cy="254.77" r="2.19845" fill="#2582ED" fill-opacity="0.12"/>
<circle cx="75.155" cy="254.77" r="2.19845" fill="#2582ED" fill-opacity="0.12"/>
<circle cx="147.704" cy="254.77" r="2.19845" fill="#2582ED" fill-opacity="0.12"/>
<circle cx="26.789" cy="242.678" r="2.19845" fill="#2582ED" fill-opacity="0.12"/>
<circle cx="99.338" cy="242.678" r="2.19845" fill="#2582ED" fill-opacity="0.12"/>
<circle cx="50.972" cy="242.678" r="2.19845" fill="#2582ED" fill-opacity="0.12"/>
<circle cx="123.521" cy="242.678" r="2.19845" fill="#2582ED" fill-opacity="0.12"/>
<circle cx="75.155" cy="242.678" r="2.19845" fill="#2582ED" fill-opacity="0.12"/>
<circle cx="147.704" cy="242.678" r="2.19845" fill="#2582ED" fill-opacity="0.12"/>
<circle cx="26.789" cy="230.587" r="2.19845" fill="#2582ED" fill-opacity="0.12"/>
<circle cx="99.338" cy="230.587" r="2.19845" fill="#2582ED" fill-opacity="0.12"/>
<circle cx="50.972" cy="230.587" r="2.19845" fill="#2582ED" fill-opacity="0.12"/>
<circle cx="123.521" cy="230.587" r="2.19845" fill="#2582ED" fill-opacity="0.12"/>
<circle cx="75.155" cy="230.587" r="2.19845" fill="#2582ED" fill-opacity="0.12"/>
<circle cx="147.704" cy="230.587" r="2.19845" fill="#2582ED" fill-opacity="0.12"/>
<circle cx="26.789" cy="218.495" r="2.19845" fill="#2582ED" fill-opacity="0.12"/>
<circle cx="99.338" cy="218.495" r="2.19845" fill="#2582ED" fill-opacity="0.12"/>
<circle cx="50.972" cy="218.495" r="2.19845" fill="#2582ED" fill-opacity="0.12"/>
<circle cx="123.521" cy="218.495" r="2.19845" fill="#2582ED" fill-opacity="0.12"/>
<circle cx="75.155" cy="218.495" r="2.19845" fill="#2582ED" fill-opacity="0.12"/>
<circle cx="147.704" cy="218.495" r="2.19845" fill="#2582ED" fill-opacity="0.12"/>
</svg>
