<svg width="250" height="140" viewBox="0 0 250 140" fill="none" xmlns="http://www.w3.org/2000/svg">
<circle cx="4" cy="4" r="4" fill="#2582ED" fill-opacity="0.12"/>
<circle cx="136" cy="4" r="4" fill="#2582ED" fill-opacity="0.12"/>
<circle cx="48" cy="4" r="4" fill="#2582ED" fill-opacity="0.12"/>
<circle cx="180" cy="4" r="4" fill="#2582ED" fill-opacity="0.12"/>
<circle cx="92" cy="4" r="4" fill="#2582ED" fill-opacity="0.12"/>
<circle cx="224" cy="4" r="4" fill="#2582ED" fill-opacity="0.12"/>
<circle cx="4" cy="26" r="4" fill="#2582ED" fill-opacity="0.12"/>
<circle cx="136" cy="26" r="4" fill="#2582ED" fill-opacity="0.12"/>
<circle cx="48" cy="26" r="4" fill="#2582ED" fill-opacity="0.12"/>
<circle cx="180" cy="26" r="4" fill="#2582ED" fill-opacity="0.12"/>
<circle cx="92" cy="26" r="4" fill="#2582ED" fill-opacity="0.12"/>
<circle cx="224" cy="26" r="4" fill="#2582ED" fill-opacity="0.12"/>
<circle cx="4" cy="48" r="4" fill="#2582ED" fill-opacity="0.12"/>
<circle cx="136" cy="48" r="4" fill="#2582ED" fill-opacity="0.12"/>
<circle cx="48" cy="48" r="4" fill="#2582ED" fill-opacity="0.12"/>
<circle cx="180" cy="48" r="4" fill="#2582ED" fill-opacity="0.12"/>
<circle cx="92" cy="48" r="4" fill="#2582ED" fill-opacity="0.12"/>
<circle cx="224" cy="48" r="4" fill="#2582ED" fill-opacity="0.12"/>
<circle cx="4" cy="70" r="4" fill="#2582ED" fill-opacity="0.12"/>
<circle cx="136" cy="70" r="4" fill="#2582ED" fill-opacity="0.12"/>
<circle cx="48" cy="70" r="4" fill="#2582ED" fill-opacity="0.12"/>
<circle cx="180" cy="70" r="4" fill="#2582ED" fill-opacity="0.12"/>
<circle cx="92" cy="70" r="4" fill="#2582ED" fill-opacity="0.12"/>
<circle cx="224" cy="70" r="4" fill="#2582ED" fill-opacity="0.12"/>
<circle cx="4" cy="92" r="4" fill="#2582ED" fill-opacity="0.12"/>
<circle cx="4" cy="114" r="4" fill="#2582ED" fill-opacity="0.12"/>
<circle cx="4" cy="136" r="4" fill="#2582ED" fill-opacity="0.12"/>
<circle cx="136" cy="92" r="4" fill="#2582ED" fill-opacity="0.12"/>
<circle cx="136" cy="114" r="4" fill="#2582ED" fill-opacity="0.12"/>
<circle cx="136" cy="136" r="4" fill="#2582ED" fill-opacity="0.12"/>
<circle cx="48" cy="92" r="4" fill="#2582ED" fill-opacity="0.12"/>
<circle cx="48" cy="114" r="4" fill="#2582ED" fill-opacity="0.12"/>
<circle cx="48" cy="136" r="4" fill="#2582ED" fill-opacity="0.12"/>
<circle cx="180" cy="92" r="4" fill="#2582ED" fill-opacity="0.12"/>
<circle cx="180" cy="114" r="4" fill="#2582ED" fill-opacity="0.12"/>
<circle cx="180" cy="136" r="4" fill="#2582ED" fill-opacity="0.12"/>
<circle cx="92" cy="92" r="4" fill="#2582ED" fill-opacity="0.12"/>
<circle cx="92" cy="114" r="4" fill="#2582ED" fill-opacity="0.12"/>
<circle cx="92" cy="136" r="4" fill="#2582ED" fill-opacity="0.12"/>
<circle cx="224" cy="92" r="4" fill="#2582ED" fill-opacity="0.12"/>
<circle cx="224" cy="114" r="4" fill="#2582ED" fill-opacity="0.12"/>
<circle cx="224" cy="136" r="4" fill="#2582ED" fill-opacity="0.12"/>
<circle cx="26" cy="92" r="4" fill="#2582ED" fill-opacity="0.12"/>
<circle cx="26" cy="114" r="4" fill="#2582ED" fill-opacity="0.12"/>
<circle cx="26" cy="136" r="4" fill="#2582ED" fill-opacity="0.12"/>
<circle cx="158" cy="92" r="4" fill="#2582ED" fill-opacity="0.12"/>
<circle cx="158" cy="114" r="4" fill="#2582ED" fill-opacity="0.12"/>
<circle cx="158" cy="136" r="4" fill="#2582ED" fill-opacity="0.12"/>
<circle cx="70" cy="92" r="4" fill="#2582ED" fill-opacity="0.12"/>
<circle cx="70" cy="114" r="4" fill="#2582ED" fill-opacity="0.12"/>
<circle cx="70" cy="136" r="4" fill="#2582ED" fill-opacity="0.12"/>
<circle cx="202" cy="92" r="4" fill="#2582ED" fill-opacity="0.12"/>
<circle cx="202" cy="114" r="4" fill="#2582ED" fill-opacity="0.12"/>
<circle cx="202" cy="136" r="4" fill="#2582ED" fill-opacity="0.12"/>
<circle cx="114" cy="92" r="4" fill="#2582ED" fill-opacity="0.12"/>
<circle cx="114" cy="114" r="4" fill="#2582ED" fill-opacity="0.12"/>
<circle cx="114" cy="136" r="4" fill="#2582ED" fill-opacity="0.12"/>
<circle cx="246" cy="92" r="4" fill="#2582ED" fill-opacity="0.12"/>
<circle cx="246" cy="114" r="4" fill="#2582ED" fill-opacity="0.12"/>
<circle cx="246" cy="136" r="4" fill="#2582ED" fill-opacity="0.12"/>
<circle cx="26" cy="70" r="4" fill="#2582ED" fill-opacity="0.12"/>
<circle cx="158" cy="70" r="4" fill="#2582ED" fill-opacity="0.12"/>
<circle cx="70" cy="70" r="4" fill="#2582ED" fill-opacity="0.12"/>
<circle cx="202" cy="70" r="4" fill="#2582ED" fill-opacity="0.12"/>
<circle cx="114" cy="70" r="4" fill="#2582ED" fill-opacity="0.12"/>
<circle cx="246" cy="70" r="4" fill="#2582ED" fill-opacity="0.12"/>
<circle cx="26" cy="48" r="4" fill="#2582ED" fill-opacity="0.12"/>
<circle cx="158" cy="48" r="4" fill="#2582ED" fill-opacity="0.12"/>
<circle cx="70" cy="48" r="4" fill="#2582ED" fill-opacity="0.12"/>
<circle cx="202" cy="48" r="4" fill="#2582ED" fill-opacity="0.12"/>
<circle cx="114" cy="48" r="4" fill="#2582ED" fill-opacity="0.12"/>
<circle cx="246" cy="48" r="4" fill="#2582ED" fill-opacity="0.12"/>
<circle cx="26" cy="26" r="4" fill="#2582ED" fill-opacity="0.12"/>
<circle cx="158" cy="26" r="4" fill="#2582ED" fill-opacity="0.12"/>
<circle cx="70" cy="26" r="4" fill="#2582ED" fill-opacity="0.12"/>
<circle cx="202" cy="26" r="4" fill="#2582ED" fill-opacity="0.12"/>
<circle cx="114" cy="26" r="4" fill="#2582ED" fill-opacity="0.12"/>
<circle cx="246" cy="26" r="4" fill="#2582ED" fill-opacity="0.12"/>
<circle cx="26" cy="4" r="4" fill="#2582ED" fill-opacity="0.12"/>
<circle cx="158" cy="4" r="4" fill="#2582ED" fill-opacity="0.12"/>
<circle cx="70" cy="4" r="4" fill="#2582ED" fill-opacity="0.12"/>
<circle cx="202" cy="4" r="4" fill="#2582ED" fill-opacity="0.12"/>
<circle cx="114" cy="4" r="4" fill="#2582ED" fill-opacity="0.12"/>
<circle cx="246" cy="4" r="4" fill="#2582ED" fill-opacity="0.12"/>
</svg>
