<svg width="536" height="510" viewBox="0 0 536 510" fill="none" xmlns="http://www.w3.org/2000/svg">
<circle cx="290" cy="4" r="4" fill="#2582ED" fill-opacity="0.12"/>
<circle cx="422" cy="4" r="4" fill="#2582ED" fill-opacity="0.12"/>
<circle cx="334" cy="4" r="4" fill="#2582ED" fill-opacity="0.12"/>
<circle cx="466" cy="4" r="4" fill="#2582ED" fill-opacity="0.12"/>
<circle cx="378" cy="4" r="4" fill="#2582ED" fill-opacity="0.12"/>
<circle cx="510" cy="4" r="4" fill="#2582ED" fill-opacity="0.12"/>
<circle cx="290" cy="26" r="4" fill="#2582ED" fill-opacity="0.12"/>
<circle cx="422" cy="26" r="4" fill="#2582ED" fill-opacity="0.12"/>
<circle cx="334" cy="26" r="4" fill="#2582ED" fill-opacity="0.12"/>
<circle cx="466" cy="26" r="4" fill="#2582ED" fill-opacity="0.12"/>
<circle cx="378" cy="26" r="4" fill="#2582ED" fill-opacity="0.12"/>
<circle cx="510" cy="26" r="4" fill="#2582ED" fill-opacity="0.12"/>
<circle cx="290" cy="48" r="4" fill="#2582ED" fill-opacity="0.12"/>
<circle cx="422" cy="48" r="4" fill="#2582ED" fill-opacity="0.12"/>
<circle cx="334" cy="48" r="4" fill="#2582ED" fill-opacity="0.12"/>
<circle cx="466" cy="48" r="4" fill="#2582ED" fill-opacity="0.12"/>
<circle cx="378" cy="48" r="4" fill="#2582ED" fill-opacity="0.12"/>
<circle cx="510" cy="48" r="4" fill="#2582ED" fill-opacity="0.12"/>
<circle cx="290" cy="70" r="4" fill="#2582ED" fill-opacity="0.12"/>
<circle cx="422" cy="70" r="4" fill="#2582ED" fill-opacity="0.12"/>
<circle cx="334" cy="70" r="4" fill="#2582ED" fill-opacity="0.12"/>
<circle cx="466" cy="70" r="4" fill="#2582ED" fill-opacity="0.12"/>
<circle cx="378" cy="70" r="4" fill="#2582ED" fill-opacity="0.12"/>
<circle cx="510" cy="70" r="4" fill="#2582ED" fill-opacity="0.12"/>
<circle cx="290" cy="92" r="4" fill="#2582ED" fill-opacity="0.12"/>
<circle cx="290" cy="114" r="4" fill="#2582ED" fill-opacity="0.12"/>
<circle cx="422" cy="92" r="4" fill="#2582ED" fill-opacity="0.12"/>
<circle cx="422" cy="114" r="4" fill="#2582ED" fill-opacity="0.12"/>
<circle cx="334" cy="92" r="4" fill="#2582ED" fill-opacity="0.12"/>
<circle cx="334" cy="114" r="4" fill="#2582ED" fill-opacity="0.12"/>
<circle cx="466" cy="92" r="4" fill="#2582ED" fill-opacity="0.12"/>
<circle cx="466" cy="114" r="4" fill="#2582ED" fill-opacity="0.12"/>
<circle cx="378" cy="92" r="4" fill="#2582ED" fill-opacity="0.12"/>
<circle cx="378" cy="114" r="4" fill="#2582ED" fill-opacity="0.12"/>
<circle cx="510" cy="92" r="4" fill="#2582ED" fill-opacity="0.12"/>
<circle cx="510" cy="114" r="4" fill="#2582ED" fill-opacity="0.12"/>
<circle cx="312" cy="92" r="4" fill="#2582ED" fill-opacity="0.12"/>
<circle cx="312" cy="114" r="4" fill="#2582ED" fill-opacity="0.12"/>
<circle cx="444" cy="92" r="4" fill="#2582ED" fill-opacity="0.12"/>
<circle cx="444" cy="114" r="4" fill="#2582ED" fill-opacity="0.12"/>
<circle cx="356" cy="92" r="4" fill="#2582ED" fill-opacity="0.12"/>
<circle cx="356" cy="114" r="4" fill="#2582ED" fill-opacity="0.12"/>
<circle cx="488" cy="92" r="4" fill="#2582ED" fill-opacity="0.12"/>
<circle cx="488" cy="114" r="4" fill="#2582ED" fill-opacity="0.12"/>
<circle cx="400" cy="92" r="4" fill="#2582ED" fill-opacity="0.12"/>
<circle cx="400" cy="114" r="4" fill="#2582ED" fill-opacity="0.12"/>
<circle cx="532" cy="92" r="4" fill="#2582ED" fill-opacity="0.12"/>
<circle cx="532" cy="114" r="4" fill="#2582ED" fill-opacity="0.12"/>
<circle cx="312" cy="70" r="4" fill="#2582ED" fill-opacity="0.12"/>
<circle cx="444" cy="70" r="4" fill="#2582ED" fill-opacity="0.12"/>
<circle cx="356" cy="70" r="4" fill="#2582ED" fill-opacity="0.12"/>
<circle cx="488" cy="70" r="4" fill="#2582ED" fill-opacity="0.12"/>
<circle cx="400" cy="70" r="4" fill="#2582ED" fill-opacity="0.12"/>
<circle cx="532" cy="70" r="4" fill="#2582ED" fill-opacity="0.12"/>
<circle cx="312" cy="48" r="4" fill="#2582ED" fill-opacity="0.12"/>
<circle cx="444" cy="48" r="4" fill="#2582ED" fill-opacity="0.12"/>
<circle cx="356" cy="48" r="4" fill="#2582ED" fill-opacity="0.12"/>
<circle cx="488" cy="48" r="4" fill="#2582ED" fill-opacity="0.12"/>
<circle cx="400" cy="48" r="4" fill="#2582ED" fill-opacity="0.12"/>
<circle cx="532" cy="48" r="4" fill="#2582ED" fill-opacity="0.12"/>
<circle cx="312" cy="26" r="4" fill="#2582ED" fill-opacity="0.12"/>
<circle cx="444" cy="26" r="4" fill="#2582ED" fill-opacity="0.12"/>
<circle cx="356" cy="26" r="4" fill="#2582ED" fill-opacity="0.12"/>
<circle cx="488" cy="26" r="4" fill="#2582ED" fill-opacity="0.12"/>
<circle cx="400" cy="26" r="4" fill="#2582ED" fill-opacity="0.12"/>
<circle cx="532" cy="26" r="4" fill="#2582ED" fill-opacity="0.12"/>
<circle cx="312" cy="4" r="4" fill="#2582ED" fill-opacity="0.12"/>
<circle cx="444" cy="4" r="4" fill="#2582ED" fill-opacity="0.12"/>
<circle cx="356" cy="4" r="4" fill="#2582ED" fill-opacity="0.12"/>
<circle cx="488" cy="4" r="4" fill="#2582ED" fill-opacity="0.12"/>
<circle cx="400" cy="4" r="4" fill="#2582ED" fill-opacity="0.12"/>
<circle cx="532" cy="4" r="4" fill="#2582ED" fill-opacity="0.12"/>
<circle cx="290" cy="396" r="4" fill="#2582ED" fill-opacity="0.12"/>
<circle cx="422" cy="396" r="4" fill="#2582ED" fill-opacity="0.12"/>
<circle cx="334" cy="396" r="4" fill="#2582ED" fill-opacity="0.12"/>
<circle cx="466" cy="396" r="4" fill="#2582ED" fill-opacity="0.12"/>
<circle cx="378" cy="396" r="4" fill="#2582ED" fill-opacity="0.12"/>
<circle cx="510" cy="396" r="4" fill="#2582ED" fill-opacity="0.12"/>
<circle cx="290" cy="418" r="4" fill="#2582ED" fill-opacity="0.12"/>
<circle cx="422" cy="418" r="4" fill="#2582ED" fill-opacity="0.12"/>
<circle cx="334" cy="418" r="4" fill="#2582ED" fill-opacity="0.12"/>
<circle cx="466" cy="418" r="4" fill="#2582ED" fill-opacity="0.12"/>
<circle cx="378" cy="418" r="4" fill="#2582ED" fill-opacity="0.12"/>
<circle cx="510" cy="418" r="4" fill="#2582ED" fill-opacity="0.12"/>
<circle cx="290" cy="440" r="4" fill="#2582ED" fill-opacity="0.12"/>
<circle cx="422" cy="440" r="4" fill="#2582ED" fill-opacity="0.12"/>
<circle cx="334" cy="440" r="4" fill="#2582ED" fill-opacity="0.12"/>
<circle cx="466" cy="440" r="4" fill="#2582ED" fill-opacity="0.12"/>
<circle cx="378" cy="440" r="4" fill="#2582ED" fill-opacity="0.12"/>
<circle cx="510" cy="440" r="4" fill="#2582ED" fill-opacity="0.12"/>
<circle cx="290" cy="462" r="4" fill="#2582ED" fill-opacity="0.12"/>
<circle cx="422" cy="462" r="4" fill="#2582ED" fill-opacity="0.12"/>
<circle cx="334" cy="462" r="4" fill="#2582ED" fill-opacity="0.12"/>
<circle cx="466" cy="462" r="4" fill="#2582ED" fill-opacity="0.12"/>
<circle cx="378" cy="462" r="4" fill="#2582ED" fill-opacity="0.12"/>
<circle cx="510" cy="462" r="4" fill="#2582ED" fill-opacity="0.12"/>
<circle cx="290" cy="484" r="4" fill="#2582ED" fill-opacity="0.12"/>
<circle cx="290" cy="506" r="4" fill="#2582ED" fill-opacity="0.12"/>
<circle cx="422" cy="484" r="4" fill="#2582ED" fill-opacity="0.12"/>
<circle cx="422" cy="506" r="4" fill="#2582ED" fill-opacity="0.12"/>
<circle cx="334" cy="484" r="4" fill="#2582ED" fill-opacity="0.12"/>
<circle cx="334" cy="506" r="4" fill="#2582ED" fill-opacity="0.12"/>
<circle cx="466" cy="484" r="4" fill="#2582ED" fill-opacity="0.12"/>
<circle cx="466" cy="506" r="4" fill="#2582ED" fill-opacity="0.12"/>
<circle cx="378" cy="484" r="4" fill="#2582ED" fill-opacity="0.12"/>
<circle cx="378" cy="506" r="4" fill="#2582ED" fill-opacity="0.12"/>
<circle cx="510" cy="484" r="4" fill="#2582ED" fill-opacity="0.12"/>
<circle cx="510" cy="506" r="4" fill="#2582ED" fill-opacity="0.12"/>
<circle cx="312" cy="484" r="4" fill="#2582ED" fill-opacity="0.12"/>
<circle cx="312" cy="506" r="4" fill="#2582ED" fill-opacity="0.12"/>
<circle cx="444" cy="484" r="4" fill="#2582ED" fill-opacity="0.12"/>
<circle cx="444" cy="506" r="4" fill="#2582ED" fill-opacity="0.12"/>
<circle cx="356" cy="484" r="4" fill="#2582ED" fill-opacity="0.12"/>
<circle cx="356" cy="506" r="4" fill="#2582ED" fill-opacity="0.12"/>
<circle cx="488" cy="484" r="4" fill="#2582ED" fill-opacity="0.12"/>
<circle cx="488" cy="506" r="4" fill="#2582ED" fill-opacity="0.12"/>
<circle cx="400" cy="484" r="4" fill="#2582ED" fill-opacity="0.12"/>
<circle cx="400" cy="506" r="4" fill="#2582ED" fill-opacity="0.12"/>
<circle cx="532" cy="484" r="4" fill="#2582ED" fill-opacity="0.12"/>
<circle cx="532" cy="506" r="4" fill="#2582ED" fill-opacity="0.12"/>
<circle cx="312" cy="462" r="4" fill="#2582ED" fill-opacity="0.12"/>
<circle cx="444" cy="462" r="4" fill="#2582ED" fill-opacity="0.12"/>
<circle cx="356" cy="462" r="4" fill="#2582ED" fill-opacity="0.12"/>
<circle cx="488" cy="462" r="4" fill="#2582ED" fill-opacity="0.12"/>
<circle cx="400" cy="462" r="4" fill="#2582ED" fill-opacity="0.12"/>
<circle cx="532" cy="462" r="4" fill="#2582ED" fill-opacity="0.12"/>
<circle cx="312" cy="440" r="4" fill="#2582ED" fill-opacity="0.12"/>
<circle cx="444" cy="440" r="4" fill="#2582ED" fill-opacity="0.12"/>
<circle cx="356" cy="440" r="4" fill="#2582ED" fill-opacity="0.12"/>
<circle cx="488" cy="440" r="4" fill="#2582ED" fill-opacity="0.12"/>
<circle cx="400" cy="440" r="4" fill="#2582ED" fill-opacity="0.12"/>
<circle cx="532" cy="440" r="4" fill="#2582ED" fill-opacity="0.12"/>
<circle cx="312" cy="418" r="4" fill="#2582ED" fill-opacity="0.12"/>
<circle cx="444" cy="418" r="4" fill="#2582ED" fill-opacity="0.12"/>
<circle cx="356" cy="418" r="4" fill="#2582ED" fill-opacity="0.12"/>
<circle cx="488" cy="418" r="4" fill="#2582ED" fill-opacity="0.12"/>
<circle cx="400" cy="418" r="4" fill="#2582ED" fill-opacity="0.12"/>
<circle cx="532" cy="418" r="4" fill="#2582ED" fill-opacity="0.12"/>
<circle cx="312" cy="396" r="4" fill="#2582ED" fill-opacity="0.12"/>
<circle cx="444" cy="396" r="4" fill="#2582ED" fill-opacity="0.12"/>
<circle cx="356" cy="396" r="4" fill="#2582ED" fill-opacity="0.12"/>
<circle cx="488" cy="396" r="4" fill="#2582ED" fill-opacity="0.12"/>
<circle cx="400" cy="396" r="4" fill="#2582ED" fill-opacity="0.12"/>
<circle cx="532" cy="396" r="4" fill="#2582ED" fill-opacity="0.12"/>
<circle cx="26" cy="4" r="4" fill="#2582ED" fill-opacity="0.12"/>
<circle cx="4" cy="4" r="4" fill="#2582ED" fill-opacity="0.12"/>
<circle cx="158" cy="4" r="4" fill="#2582ED" fill-opacity="0.12"/>
<circle cx="70" cy="4" r="4" fill="#2582ED" fill-opacity="0.12"/>
<circle cx="202" cy="4" r="4" fill="#2582ED" fill-opacity="0.12"/>
<circle cx="114" cy="4" r="4" fill="#2582ED" fill-opacity="0.12"/>
<circle cx="246" cy="4" r="4" fill="#2582ED" fill-opacity="0.12"/>
<circle cx="26" cy="26" r="4" fill="#2582ED" fill-opacity="0.12"/>
<circle cx="4" cy="26" r="4" fill="#2582ED" fill-opacity="0.12"/>
<circle cx="158" cy="26" r="4" fill="#2582ED" fill-opacity="0.12"/>
<circle cx="70" cy="26" r="4" fill="#2582ED" fill-opacity="0.12"/>
<circle cx="202" cy="26" r="4" fill="#2582ED" fill-opacity="0.12"/>
<circle cx="114" cy="26" r="4" fill="#2582ED" fill-opacity="0.12"/>
<circle cx="246" cy="26" r="4" fill="#2582ED" fill-opacity="0.12"/>
<circle cx="26" cy="48" r="4" fill="#2582ED" fill-opacity="0.12"/>
<circle cx="4" cy="48" r="4" fill="#2582ED" fill-opacity="0.12"/>
<circle cx="158" cy="48" r="4" fill="#2582ED" fill-opacity="0.12"/>
<circle cx="70" cy="48" r="4" fill="#2582ED" fill-opacity="0.12"/>
<circle cx="202" cy="48" r="4" fill="#2582ED" fill-opacity="0.12"/>
<circle cx="114" cy="48" r="4" fill="#2582ED" fill-opacity="0.12"/>
<circle cx="246" cy="48" r="4" fill="#2582ED" fill-opacity="0.12"/>
<circle cx="26" cy="70" r="4" fill="#2582ED" fill-opacity="0.12"/>
<circle cx="158" cy="70" r="4" fill="#2582ED" fill-opacity="0.12"/>
<circle cx="70" cy="70" r="4" fill="#2582ED" fill-opacity="0.12"/>
<circle cx="202" cy="70" r="4" fill="#2582ED" fill-opacity="0.12"/>
<circle cx="114" cy="70" r="4" fill="#2582ED" fill-opacity="0.12"/>
<circle cx="246" cy="70" r="4" fill="#2582ED" fill-opacity="0.12"/>
<circle cx="26" cy="92" r="4" fill="#2582ED" fill-opacity="0.12"/>
<circle cx="26" cy="114" r="4" fill="#2582ED" fill-opacity="0.12"/>
<circle cx="158" cy="92" r="4" fill="#2582ED" fill-opacity="0.12"/>
<circle cx="158" cy="114" r="4" fill="#2582ED" fill-opacity="0.12"/>
<circle cx="70" cy="92" r="4" fill="#2582ED" fill-opacity="0.12"/>
<circle cx="70" cy="114" r="4" fill="#2582ED" fill-opacity="0.12"/>
<circle cx="202" cy="92" r="4" fill="#2582ED" fill-opacity="0.12"/>
<circle cx="202" cy="114" r="4" fill="#2582ED" fill-opacity="0.12"/>
<circle cx="114" cy="92" r="4" fill="#2582ED" fill-opacity="0.12"/>
<circle cx="114" cy="114" r="4" fill="#2582ED" fill-opacity="0.12"/>
<circle cx="246" cy="92" r="4" fill="#2582ED" fill-opacity="0.12"/>
<circle cx="246" cy="114" r="4" fill="#2582ED" fill-opacity="0.12"/>
<circle cx="48" cy="92" r="4" fill="#2582ED" fill-opacity="0.12"/>
<circle cx="48" cy="114" r="4" fill="#2582ED" fill-opacity="0.12"/>
<circle cx="180" cy="92" r="4" fill="#2582ED" fill-opacity="0.12"/>
<circle cx="180" cy="114" r="4" fill="#2582ED" fill-opacity="0.12"/>
<circle cx="92" cy="92" r="4" fill="#2582ED" fill-opacity="0.12"/>
<circle cx="92" cy="114" r="4" fill="#2582ED" fill-opacity="0.12"/>
<circle cx="224" cy="92" r="4" fill="#2582ED" fill-opacity="0.12"/>
<circle cx="224" cy="114" r="4" fill="#2582ED" fill-opacity="0.12"/>
<circle cx="136" cy="92" r="4" fill="#2582ED" fill-opacity="0.12"/>
<circle cx="136" cy="114" r="4" fill="#2582ED" fill-opacity="0.12"/>
<circle cx="268" cy="92" r="4" fill="#2582ED" fill-opacity="0.12"/>
<circle cx="268" cy="114" r="4" fill="#2582ED" fill-opacity="0.12"/>
<circle cx="48" cy="70" r="4" fill="#2582ED" fill-opacity="0.12"/>
<circle cx="180" cy="70" r="4" fill="#2582ED" fill-opacity="0.12"/>
<circle cx="92" cy="70" r="4" fill="#2582ED" fill-opacity="0.12"/>
<circle cx="224" cy="70" r="4" fill="#2582ED" fill-opacity="0.12"/>
<circle cx="136" cy="70" r="4" fill="#2582ED" fill-opacity="0.12"/>
<circle cx="268" cy="70" r="4" fill="#2582ED" fill-opacity="0.12"/>
<circle cx="48" cy="48" r="4" fill="#2582ED" fill-opacity="0.12"/>
<circle cx="180" cy="48" r="4" fill="#2582ED" fill-opacity="0.12"/>
<circle cx="92" cy="48" r="4" fill="#2582ED" fill-opacity="0.12"/>
<circle cx="224" cy="48" r="4" fill="#2582ED" fill-opacity="0.12"/>
<circle cx="136" cy="48" r="4" fill="#2582ED" fill-opacity="0.12"/>
<circle cx="268" cy="48" r="4" fill="#2582ED" fill-opacity="0.12"/>
<circle cx="48" cy="26" r="4" fill="#2582ED" fill-opacity="0.12"/>
<circle cx="180" cy="26" r="4" fill="#2582ED" fill-opacity="0.12"/>
<circle cx="92" cy="26" r="4" fill="#2582ED" fill-opacity="0.12"/>
<circle cx="224" cy="26" r="4" fill="#2582ED" fill-opacity="0.12"/>
<circle cx="136" cy="26" r="4" fill="#2582ED" fill-opacity="0.12"/>
<circle cx="268" cy="26" r="4" fill="#2582ED" fill-opacity="0.12"/>
<circle cx="48" cy="4" r="4" fill="#2582ED" fill-opacity="0.12"/>
<circle cx="180" cy="4" r="4" fill="#2582ED" fill-opacity="0.12"/>
<circle cx="92" cy="4" r="4" fill="#2582ED" fill-opacity="0.12"/>
<circle cx="224" cy="4" r="4" fill="#2582ED" fill-opacity="0.12"/>
<circle cx="136" cy="4" r="4" fill="#2582ED" fill-opacity="0.12"/>
<circle cx="268" cy="4" r="4" fill="#2582ED" fill-opacity="0.12"/>
<circle cx="26" cy="396" r="4" fill="#2582ED" fill-opacity="0.12"/>
<circle cx="158" cy="396" r="4" fill="#2582ED" fill-opacity="0.12"/>
<circle cx="70" cy="396" r="4" fill="#2582ED" fill-opacity="0.12"/>
<circle cx="202" cy="396" r="4" fill="#2582ED" fill-opacity="0.12"/>
<circle cx="114" cy="396" r="4" fill="#2582ED" fill-opacity="0.12"/>
<circle cx="246" cy="396" r="4" fill="#2582ED" fill-opacity="0.12"/>
<circle cx="26" cy="418" r="4" fill="#2582ED" fill-opacity="0.12"/>
<circle cx="158" cy="418" r="4" fill="#2582ED" fill-opacity="0.12"/>
<circle cx="70" cy="418" r="4" fill="#2582ED" fill-opacity="0.12"/>
<circle cx="202" cy="418" r="4" fill="#2582ED" fill-opacity="0.12"/>
<circle cx="114" cy="418" r="4" fill="#2582ED" fill-opacity="0.12"/>
<circle cx="246" cy="418" r="4" fill="#2582ED" fill-opacity="0.12"/>
<circle cx="26" cy="440" r="4" fill="#2582ED" fill-opacity="0.12"/>
<circle cx="158" cy="440" r="4" fill="#2582ED" fill-opacity="0.12"/>
<circle cx="70" cy="440" r="4" fill="#2582ED" fill-opacity="0.12"/>
<circle cx="202" cy="440" r="4" fill="#2582ED" fill-opacity="0.12"/>
<circle cx="114" cy="440" r="4" fill="#2582ED" fill-opacity="0.12"/>
<circle cx="246" cy="440" r="4" fill="#2582ED" fill-opacity="0.12"/>
<circle cx="26" cy="462" r="4" fill="#2582ED" fill-opacity="0.12"/>
<circle cx="4" cy="462" r="4" fill="#2582ED" fill-opacity="0.12"/>
<circle cx="158" cy="462" r="4" fill="#2582ED" fill-opacity="0.12"/>
<circle cx="70" cy="462" r="4" fill="#2582ED" fill-opacity="0.12"/>
<circle cx="202" cy="462" r="4" fill="#2582ED" fill-opacity="0.12"/>
<circle cx="114" cy="462" r="4" fill="#2582ED" fill-opacity="0.12"/>
<circle cx="246" cy="462" r="4" fill="#2582ED" fill-opacity="0.12"/>
<circle cx="26" cy="484" r="4" fill="#2582ED" fill-opacity="0.12"/>
<circle cx="4" cy="484" r="4" fill="#2582ED" fill-opacity="0.12"/>
<circle cx="26" cy="506" r="4" fill="#2582ED" fill-opacity="0.12"/>
<circle cx="4" cy="506" r="4" fill="#2582ED" fill-opacity="0.12"/>
<circle cx="158" cy="484" r="4" fill="#2582ED" fill-opacity="0.12"/>
<circle cx="158" cy="506" r="4" fill="#2582ED" fill-opacity="0.12"/>
<circle cx="70" cy="484" r="4" fill="#2582ED" fill-opacity="0.12"/>
<circle cx="70" cy="506" r="4" fill="#2582ED" fill-opacity="0.12"/>
<circle cx="202" cy="484" r="4" fill="#2582ED" fill-opacity="0.12"/>
<circle cx="202" cy="506" r="4" fill="#2582ED" fill-opacity="0.12"/>
<circle cx="114" cy="484" r="4" fill="#2582ED" fill-opacity="0.12"/>
<circle cx="114" cy="506" r="4" fill="#2582ED" fill-opacity="0.12"/>
<circle cx="246" cy="484" r="4" fill="#2582ED" fill-opacity="0.12"/>
<circle cx="246" cy="506" r="4" fill="#2582ED" fill-opacity="0.12"/>
<circle cx="48" cy="484" r="4" fill="#2582ED" fill-opacity="0.12"/>
<circle cx="48" cy="506" r="4" fill="#2582ED" fill-opacity="0.12"/>
<circle cx="180" cy="484" r="4" fill="#2582ED" fill-opacity="0.12"/>
<circle cx="180" cy="506" r="4" fill="#2582ED" fill-opacity="0.12"/>
<circle cx="92" cy="484" r="4" fill="#2582ED" fill-opacity="0.12"/>
<circle cx="92" cy="506" r="4" fill="#2582ED" fill-opacity="0.12"/>
<circle cx="224" cy="484" r="4" fill="#2582ED" fill-opacity="0.12"/>
<circle cx="224" cy="506" r="4" fill="#2582ED" fill-opacity="0.12"/>
<circle cx="136" cy="484" r="4" fill="#2582ED" fill-opacity="0.12"/>
<circle cx="136" cy="506" r="4" fill="#2582ED" fill-opacity="0.12"/>
<circle cx="268" cy="484" r="4" fill="#2582ED" fill-opacity="0.12"/>
<circle cx="268" cy="506" r="4" fill="#2582ED" fill-opacity="0.12"/>
<circle cx="48" cy="462" r="4" fill="#2582ED" fill-opacity="0.12"/>
<circle cx="180" cy="462" r="4" fill="#2582ED" fill-opacity="0.12"/>
<circle cx="92" cy="462" r="4" fill="#2582ED" fill-opacity="0.12"/>
<circle cx="224" cy="462" r="4" fill="#2582ED" fill-opacity="0.12"/>
<circle cx="136" cy="462" r="4" fill="#2582ED" fill-opacity="0.12"/>
<circle cx="268" cy="462" r="4" fill="#2582ED" fill-opacity="0.12"/>
<circle cx="48" cy="440" r="4" fill="#2582ED" fill-opacity="0.12"/>
<circle cx="180" cy="440" r="4" fill="#2582ED" fill-opacity="0.12"/>
<circle cx="92" cy="440" r="4" fill="#2582ED" fill-opacity="0.12"/>
<circle cx="224" cy="440" r="4" fill="#2582ED" fill-opacity="0.12"/>
<circle cx="136" cy="440" r="4" fill="#2582ED" fill-opacity="0.12"/>
<circle cx="268" cy="440" r="4" fill="#2582ED" fill-opacity="0.12"/>
<circle cx="48" cy="418" r="4" fill="#2582ED" fill-opacity="0.12"/>
<circle cx="180" cy="418" r="4" fill="#2582ED" fill-opacity="0.12"/>
<circle cx="92" cy="418" r="4" fill="#2582ED" fill-opacity="0.12"/>
<circle cx="224" cy="418" r="4" fill="#2582ED" fill-opacity="0.12"/>
<circle cx="136" cy="418" r="4" fill="#2582ED" fill-opacity="0.12"/>
<circle cx="268" cy="418" r="4" fill="#2582ED" fill-opacity="0.12"/>
<circle cx="48" cy="396" r="4" fill="#2582ED" fill-opacity="0.12"/>
<circle cx="180" cy="396" r="4" fill="#2582ED" fill-opacity="0.12"/>
<circle cx="92" cy="396" r="4" fill="#2582ED" fill-opacity="0.12"/>
<circle cx="224" cy="396" r="4" fill="#2582ED" fill-opacity="0.12"/>
<circle cx="136" cy="396" r="4" fill="#2582ED" fill-opacity="0.12"/>
<circle cx="268" cy="396" r="4" fill="#2582ED" fill-opacity="0.12"/>
</svg>
