<svg width="514" height="113" viewBox="0 0 514 113" fill="none" xmlns="http://www.w3.org/2000/svg">
<ellipse cx="4" cy="3.79856" rx="4" ry="3.79856" fill="white" fill-opacity="0.1"/>
<ellipse cx="136" cy="3.79856" rx="4" ry="3.79856" fill="white" fill-opacity="0.1"/>
<ellipse cx="48" cy="3.79856" rx="4" ry="3.79856" fill="white" fill-opacity="0.1"/>
<ellipse cx="180" cy="3.79856" rx="4" ry="3.79856" fill="white" fill-opacity="0.1"/>
<ellipse cx="92" cy="3.79856" rx="4" ry="3.79856" fill="white" fill-opacity="0.1"/>
<ellipse cx="224" cy="3.79856" rx="4" ry="3.79856" fill="white" fill-opacity="0.1"/>
<ellipse cx="4" cy="24.6907" rx="4" ry="3.79856" fill="white" fill-opacity="0.1"/>
<ellipse cx="136" cy="24.6907" rx="4" ry="3.79856" fill="white" fill-opacity="0.1"/>
<ellipse cx="48" cy="24.6907" rx="4" ry="3.79856" fill="white" fill-opacity="0.1"/>
<ellipse cx="180" cy="24.6907" rx="4" ry="3.79856" fill="white" fill-opacity="0.1"/>
<ellipse cx="92" cy="24.6907" rx="4" ry="3.79856" fill="white" fill-opacity="0.1"/>
<ellipse cx="224" cy="24.6907" rx="4" ry="3.79856" fill="white" fill-opacity="0.1"/>
<ellipse cx="4" cy="45.5828" rx="4" ry="3.79856" fill="white" fill-opacity="0.1"/>
<ellipse cx="136" cy="45.5828" rx="4" ry="3.79856" fill="white" fill-opacity="0.1"/>
<ellipse cx="48" cy="45.5828" rx="4" ry="3.79856" fill="white" fill-opacity="0.1"/>
<ellipse cx="180" cy="45.5828" rx="4" ry="3.79856" fill="white" fill-opacity="0.1"/>
<ellipse cx="92" cy="45.5828" rx="4" ry="3.79856" fill="white" fill-opacity="0.1"/>
<ellipse cx="224" cy="45.5828" rx="4" ry="3.79856" fill="white" fill-opacity="0.1"/>
<ellipse cx="4" cy="66.4749" rx="4" ry="3.79856" fill="white" fill-opacity="0.1"/>
<ellipse cx="136" cy="66.4749" rx="4" ry="3.79856" fill="white" fill-opacity="0.1"/>
<ellipse cx="48" cy="66.4749" rx="4" ry="3.79856" fill="white" fill-opacity="0.1"/>
<ellipse cx="180" cy="66.4749" rx="4" ry="3.79856" fill="white" fill-opacity="0.1"/>
<ellipse cx="92" cy="66.4749" rx="4" ry="3.79856" fill="white" fill-opacity="0.1"/>
<ellipse cx="224" cy="66.4749" rx="4" ry="3.79856" fill="white" fill-opacity="0.1"/>
<ellipse cx="4" cy="87.3669" rx="4" ry="3.79856" fill="white" fill-opacity="0.1"/>
<ellipse cx="4" cy="108.259" rx="4" ry="3.79856" fill="white" fill-opacity="0.1"/>
<ellipse cx="136" cy="87.3669" rx="4" ry="3.79856" fill="white" fill-opacity="0.1"/>
<ellipse cx="136" cy="108.259" rx="4" ry="3.79856" fill="white" fill-opacity="0.1"/>
<ellipse cx="48" cy="87.3669" rx="4" ry="3.79856" fill="white" fill-opacity="0.1"/>
<ellipse cx="48" cy="108.259" rx="4" ry="3.79856" fill="white" fill-opacity="0.1"/>
<ellipse cx="180" cy="87.3669" rx="4" ry="3.79856" fill="white" fill-opacity="0.1"/>
<ellipse cx="180" cy="108.259" rx="4" ry="3.79856" fill="white" fill-opacity="0.1"/>
<ellipse cx="92" cy="87.3669" rx="4" ry="3.79856" fill="white" fill-opacity="0.1"/>
<ellipse cx="92" cy="108.259" rx="4" ry="3.79856" fill="white" fill-opacity="0.1"/>
<ellipse cx="224" cy="87.3669" rx="4" ry="3.79856" fill="white" fill-opacity="0.1"/>
<ellipse cx="224" cy="108.259" rx="4" ry="3.79856" fill="white" fill-opacity="0.1"/>
<ellipse cx="26" cy="87.3669" rx="4" ry="3.79856" fill="white" fill-opacity="0.1"/>
<ellipse cx="26" cy="108.259" rx="4" ry="3.79856" fill="white" fill-opacity="0.1"/>
<ellipse cx="158" cy="87.3669" rx="4" ry="3.79856" fill="white" fill-opacity="0.1"/>
<ellipse cx="158" cy="108.259" rx="4" ry="3.79856" fill="white" fill-opacity="0.1"/>
<ellipse cx="70" cy="87.3669" rx="4" ry="3.79856" fill="white" fill-opacity="0.1"/>
<ellipse cx="70" cy="108.259" rx="4" ry="3.79856" fill="white" fill-opacity="0.1"/>
<ellipse cx="202" cy="87.3669" rx="4" ry="3.79856" fill="white" fill-opacity="0.1"/>
<ellipse cx="202" cy="108.259" rx="4" ry="3.79856" fill="white" fill-opacity="0.1"/>
<ellipse cx="114" cy="87.3669" rx="4" ry="3.79856" fill="white" fill-opacity="0.1"/>
<ellipse cx="114" cy="108.259" rx="4" ry="3.79856" fill="white" fill-opacity="0.1"/>
<ellipse cx="246" cy="87.3669" rx="4" ry="3.79856" fill="white" fill-opacity="0.1"/>
<ellipse cx="246" cy="108.259" rx="4" ry="3.79856" fill="white" fill-opacity="0.1"/>
<ellipse cx="26" cy="66.4749" rx="4" ry="3.79856" fill="white" fill-opacity="0.1"/>
<ellipse cx="158" cy="66.4749" rx="4" ry="3.79856" fill="white" fill-opacity="0.1"/>
<ellipse cx="70" cy="66.4749" rx="4" ry="3.79856" fill="white" fill-opacity="0.1"/>
<ellipse cx="202" cy="66.4749" rx="4" ry="3.79856" fill="white" fill-opacity="0.1"/>
<ellipse cx="114" cy="66.4749" rx="4" ry="3.79856" fill="white" fill-opacity="0.1"/>
<ellipse cx="246" cy="66.4749" rx="4" ry="3.79856" fill="white" fill-opacity="0.1"/>
<ellipse cx="26" cy="45.5828" rx="4" ry="3.79856" fill="white" fill-opacity="0.1"/>
<ellipse cx="158" cy="45.5828" rx="4" ry="3.79856" fill="white" fill-opacity="0.1"/>
<ellipse cx="70" cy="45.5828" rx="4" ry="3.79856" fill="white" fill-opacity="0.1"/>
<ellipse cx="202" cy="45.5828" rx="4" ry="3.79856" fill="white" fill-opacity="0.1"/>
<ellipse cx="114" cy="45.5828" rx="4" ry="3.79856" fill="white" fill-opacity="0.1"/>
<ellipse cx="246" cy="45.5828" rx="4" ry="3.79856" fill="white" fill-opacity="0.1"/>
<ellipse cx="26" cy="24.6907" rx="4" ry="3.79856" fill="white" fill-opacity="0.1"/>
<ellipse cx="158" cy="24.6907" rx="4" ry="3.79856" fill="white" fill-opacity="0.1"/>
<ellipse cx="70" cy="24.6907" rx="4" ry="3.79856" fill="white" fill-opacity="0.1"/>
<ellipse cx="202" cy="24.6907" rx="4" ry="3.79856" fill="white" fill-opacity="0.1"/>
<ellipse cx="114" cy="24.6907" rx="4" ry="3.79856" fill="white" fill-opacity="0.1"/>
<ellipse cx="246" cy="24.6907" rx="4" ry="3.79856" fill="white" fill-opacity="0.1"/>
<ellipse cx="26" cy="3.79856" rx="4" ry="3.79856" fill="white" fill-opacity="0.1"/>
<ellipse cx="158" cy="3.79856" rx="4" ry="3.79856" fill="white" fill-opacity="0.1"/>
<ellipse cx="70" cy="3.79856" rx="4" ry="3.79856" fill="white" fill-opacity="0.1"/>
<ellipse cx="202" cy="3.79856" rx="4" ry="3.79856" fill="white" fill-opacity="0.1"/>
<ellipse cx="114" cy="3.79856" rx="4" ry="3.79856" fill="white" fill-opacity="0.1"/>
<ellipse cx="246" cy="3.79856" rx="4" ry="3.79856" fill="white" fill-opacity="0.1"/>
<ellipse cx="268" cy="3.79856" rx="4" ry="3.79856" fill="white" fill-opacity="0.1"/>
<ellipse cx="400" cy="3.79856" rx="4" ry="3.79856" fill="white" fill-opacity="0.1"/>
<ellipse cx="312" cy="3.79856" rx="4" ry="3.79856" fill="white" fill-opacity="0.1"/>
<ellipse cx="444" cy="3.79856" rx="4" ry="3.79856" fill="white" fill-opacity="0.1"/>
<ellipse cx="356" cy="3.79856" rx="4" ry="3.79856" fill="white" fill-opacity="0.1"/>
<ellipse cx="488" cy="3.79856" rx="4" ry="3.79856" fill="white" fill-opacity="0.1"/>
<ellipse cx="268" cy="24.6907" rx="4" ry="3.79856" fill="white" fill-opacity="0.1"/>
<ellipse cx="400" cy="24.6907" rx="4" ry="3.79856" fill="white" fill-opacity="0.1"/>
<ellipse cx="312" cy="24.6907" rx="4" ry="3.79856" fill="white" fill-opacity="0.1"/>
<ellipse cx="444" cy="24.6907" rx="4" ry="3.79856" fill="white" fill-opacity="0.1"/>
<ellipse cx="356" cy="24.6907" rx="4" ry="3.79856" fill="white" fill-opacity="0.1"/>
<ellipse cx="488" cy="24.6907" rx="4" ry="3.79856" fill="white" fill-opacity="0.1"/>
<ellipse cx="268" cy="45.5828" rx="4" ry="3.79856" fill="white" fill-opacity="0.1"/>
<ellipse cx="400" cy="45.5828" rx="4" ry="3.79856" fill="white" fill-opacity="0.1"/>
<ellipse cx="312" cy="45.5828" rx="4" ry="3.79856" fill="white" fill-opacity="0.1"/>
<ellipse cx="444" cy="45.5828" rx="4" ry="3.79856" fill="white" fill-opacity="0.1"/>
<ellipse cx="356" cy="45.5828" rx="4" ry="3.79856" fill="white" fill-opacity="0.1"/>
<ellipse cx="488" cy="45.5828" rx="4" ry="3.79856" fill="white" fill-opacity="0.1"/>
<ellipse cx="268" cy="66.4749" rx="4" ry="3.79856" fill="white" fill-opacity="0.1"/>
<ellipse cx="400" cy="66.4749" rx="4" ry="3.79856" fill="white" fill-opacity="0.1"/>
<ellipse cx="312" cy="66.4749" rx="4" ry="3.79856" fill="white" fill-opacity="0.1"/>
<ellipse cx="444" cy="66.4749" rx="4" ry="3.79856" fill="white" fill-opacity="0.1"/>
<ellipse cx="356" cy="66.4749" rx="4" ry="3.79856" fill="white" fill-opacity="0.1"/>
<ellipse cx="488" cy="66.4749" rx="4" ry="3.79856" fill="white" fill-opacity="0.1"/>
<ellipse cx="268" cy="87.3669" rx="4" ry="3.79856" fill="white" fill-opacity="0.1"/>
<ellipse cx="268" cy="108.259" rx="4" ry="3.79856" fill="white" fill-opacity="0.1"/>
<ellipse cx="400" cy="87.3669" rx="4" ry="3.79856" fill="white" fill-opacity="0.1"/>
<ellipse cx="400" cy="108.259" rx="4" ry="3.79856" fill="white" fill-opacity="0.1"/>
<ellipse cx="312" cy="87.3669" rx="4" ry="3.79856" fill="white" fill-opacity="0.1"/>
<ellipse cx="312" cy="108.259" rx="4" ry="3.79856" fill="white" fill-opacity="0.1"/>
<ellipse cx="444" cy="87.3669" rx="4" ry="3.79856" fill="white" fill-opacity="0.1"/>
<ellipse cx="444" cy="108.259" rx="4" ry="3.79856" fill="white" fill-opacity="0.1"/>
<ellipse cx="356" cy="87.3669" rx="4" ry="3.79856" fill="white" fill-opacity="0.1"/>
<ellipse cx="356" cy="108.259" rx="4" ry="3.79856" fill="white" fill-opacity="0.1"/>
<ellipse cx="488" cy="87.3669" rx="4" ry="3.79856" fill="white" fill-opacity="0.1"/>
<ellipse cx="488" cy="108.259" rx="4" ry="3.79856" fill="white" fill-opacity="0.1"/>
<ellipse cx="290" cy="87.3669" rx="4" ry="3.79856" fill="white" fill-opacity="0.1"/>
<ellipse cx="290" cy="108.259" rx="4" ry="3.79856" fill="white" fill-opacity="0.1"/>
<ellipse cx="422" cy="87.3669" rx="4" ry="3.79856" fill="white" fill-opacity="0.1"/>
<ellipse cx="422" cy="108.259" rx="4" ry="3.79856" fill="white" fill-opacity="0.1"/>
<ellipse cx="334" cy="87.3669" rx="4" ry="3.79856" fill="white" fill-opacity="0.1"/>
<ellipse cx="334" cy="108.259" rx="4" ry="3.79856" fill="white" fill-opacity="0.1"/>
<ellipse cx="466" cy="87.3669" rx="4" ry="3.79856" fill="white" fill-opacity="0.1"/>
<ellipse cx="466" cy="108.259" rx="4" ry="3.79856" fill="white" fill-opacity="0.1"/>
<ellipse cx="378" cy="87.3669" rx="4" ry="3.79856" fill="white" fill-opacity="0.1"/>
<ellipse cx="378" cy="108.259" rx="4" ry="3.79856" fill="white" fill-opacity="0.1"/>
<ellipse cx="510" cy="87.3669" rx="4" ry="3.79856" fill="white" fill-opacity="0.1"/>
<ellipse cx="510" cy="108.259" rx="4" ry="3.79856" fill="white" fill-opacity="0.1"/>
<ellipse cx="290" cy="66.4749" rx="4" ry="3.79856" fill="white" fill-opacity="0.1"/>
<ellipse cx="422" cy="66.4749" rx="4" ry="3.79856" fill="white" fill-opacity="0.1"/>
<ellipse cx="334" cy="66.4749" rx="4" ry="3.79856" fill="white" fill-opacity="0.1"/>
<ellipse cx="466" cy="66.4749" rx="4" ry="3.79856" fill="white" fill-opacity="0.1"/>
<ellipse cx="378" cy="66.4749" rx="4" ry="3.79856" fill="white" fill-opacity="0.1"/>
<ellipse cx="510" cy="66.4749" rx="4" ry="3.79856" fill="white" fill-opacity="0.1"/>
<ellipse cx="290" cy="45.5828" rx="4" ry="3.79856" fill="white" fill-opacity="0.1"/>
<ellipse cx="422" cy="45.5828" rx="4" ry="3.79856" fill="white" fill-opacity="0.1"/>
<ellipse cx="334" cy="45.5828" rx="4" ry="3.79856" fill="white" fill-opacity="0.1"/>
<ellipse cx="466" cy="45.5828" rx="4" ry="3.79856" fill="white" fill-opacity="0.1"/>
<ellipse cx="378" cy="45.5828" rx="4" ry="3.79856" fill="white" fill-opacity="0.1"/>
<ellipse cx="510" cy="45.5828" rx="4" ry="3.79856" fill="white" fill-opacity="0.1"/>
<ellipse cx="290" cy="24.6907" rx="4" ry="3.79856" fill="white" fill-opacity="0.1"/>
<ellipse cx="422" cy="24.6907" rx="4" ry="3.79856" fill="white" fill-opacity="0.1"/>
<ellipse cx="334" cy="24.6907" rx="4" ry="3.79856" fill="white" fill-opacity="0.1"/>
<ellipse cx="466" cy="24.6907" rx="4" ry="3.79856" fill="white" fill-opacity="0.1"/>
<ellipse cx="378" cy="24.6907" rx="4" ry="3.79856" fill="white" fill-opacity="0.1"/>
<ellipse cx="510" cy="24.6907" rx="4" ry="3.79856" fill="white" fill-opacity="0.1"/>
<ellipse cx="290" cy="3.79856" rx="4" ry="3.79856" fill="white" fill-opacity="0.1"/>
<ellipse cx="422" cy="3.79856" rx="4" ry="3.79856" fill="white" fill-opacity="0.1"/>
<ellipse cx="334" cy="3.79856" rx="4" ry="3.79856" fill="white" fill-opacity="0.1"/>
<ellipse cx="466" cy="3.79856" rx="4" ry="3.79856" fill="white" fill-opacity="0.1"/>
<ellipse cx="378" cy="3.79856" rx="4" ry="3.79856" fill="white" fill-opacity="0.1"/>
<ellipse cx="510" cy="3.79856" rx="4" ry="3.79856" fill="white" fill-opacity="0.1"/>
</svg>
