<svg width="369" height="281" viewBox="0 0 369 281" fill="none" xmlns="http://www.w3.org/2000/svg">
<circle cx="233.388" cy="2.19845" r="2.19845" fill="#2582ED" fill-opacity="0.12"/>
<circle cx="305.936" cy="2.19845" r="2.19845" fill="#2582ED" fill-opacity="0.12"/>
<circle cx="257.571" cy="2.19845" r="2.19845" fill="#2582ED" fill-opacity="0.12"/>
<circle cx="330.119" cy="2.19845" r="2.19845" fill="#2582ED" fill-opacity="0.12"/>
<circle cx="281.754" cy="2.19845" r="2.19845" fill="#2582ED" fill-opacity="0.12"/>
<circle cx="354.302" cy="2.19845" r="2.19845" fill="#2582ED" fill-opacity="0.12"/>
<circle cx="233.388" cy="14.2899" r="2.19845" fill="#2582ED" fill-opacity="0.12"/>
<circle cx="305.936" cy="14.2899" r="2.19845" fill="#2582ED" fill-opacity="0.12"/>
<circle cx="257.571" cy="14.2899" r="2.19845" fill="#2582ED" fill-opacity="0.12"/>
<circle cx="330.119" cy="14.2899" r="2.19845" fill="#2582ED" fill-opacity="0.12"/>
<circle cx="281.754" cy="14.2899" r="2.19845" fill="#2582ED" fill-opacity="0.12"/>
<circle cx="354.302" cy="14.2899" r="2.19845" fill="#2582ED" fill-opacity="0.12"/>
<circle cx="233.388" cy="26.3814" r="2.19845" fill="#2582ED" fill-opacity="0.12"/>
<circle cx="305.936" cy="26.3814" r="2.19845" fill="#2582ED" fill-opacity="0.12"/>
<circle cx="257.571" cy="26.3814" r="2.19845" fill="#2582ED" fill-opacity="0.12"/>
<circle cx="330.119" cy="26.3814" r="2.19845" fill="#2582ED" fill-opacity="0.12"/>
<circle cx="281.754" cy="26.3814" r="2.19845" fill="#2582ED" fill-opacity="0.12"/>
<circle cx="354.302" cy="26.3814" r="2.19845" fill="#2582ED" fill-opacity="0.12"/>
<circle cx="233.388" cy="38.4729" r="2.19845" fill="#2582ED" fill-opacity="0.12"/>
<circle cx="305.936" cy="38.4729" r="2.19845" fill="#2582ED" fill-opacity="0.12"/>
<circle cx="257.571" cy="38.4729" r="2.19845" fill="#2582ED" fill-opacity="0.12"/>
<circle cx="330.119" cy="38.4729" r="2.19845" fill="#2582ED" fill-opacity="0.12"/>
<circle cx="281.754" cy="38.4729" r="2.19845" fill="#2582ED" fill-opacity="0.12"/>
<circle cx="354.302" cy="38.4729" r="2.19845" fill="#2582ED" fill-opacity="0.12"/>
<circle cx="233.388" cy="50.5643" r="2.19845" fill="#2582ED" fill-opacity="0.12"/>
<circle cx="233.388" cy="62.6558" r="2.19845" fill="#2582ED" fill-opacity="0.12"/>
<circle cx="305.936" cy="50.5643" r="2.19845" fill="#2582ED" fill-opacity="0.12"/>
<circle cx="305.936" cy="62.6558" r="2.19845" fill="#2582ED" fill-opacity="0.12"/>
<circle cx="257.571" cy="50.5643" r="2.19845" fill="#2582ED" fill-opacity="0.12"/>
<circle cx="257.571" cy="62.6558" r="2.19845" fill="#2582ED" fill-opacity="0.12"/>
<circle cx="330.119" cy="50.5643" r="2.19845" fill="#2582ED" fill-opacity="0.12"/>
<circle cx="330.119" cy="62.6558" r="2.19845" fill="#2582ED" fill-opacity="0.12"/>
<circle cx="281.754" cy="50.5643" r="2.19845" fill="#2582ED" fill-opacity="0.12"/>
<circle cx="281.754" cy="62.6558" r="2.19845" fill="#2582ED" fill-opacity="0.12"/>
<circle cx="354.302" cy="50.5643" r="2.19845" fill="#2582ED" fill-opacity="0.12"/>
<circle cx="354.302" cy="62.6558" r="2.19845" fill="#2582ED" fill-opacity="0.12"/>
<circle cx="245.479" cy="50.5643" r="2.19845" fill="#2582ED" fill-opacity="0.12"/>
<circle cx="245.479" cy="62.6558" r="2.19845" fill="#2582ED" fill-opacity="0.12"/>
<circle cx="318.028" cy="50.5643" r="2.19845" fill="#2582ED" fill-opacity="0.12"/>
<circle cx="318.028" cy="62.6558" r="2.19845" fill="#2582ED" fill-opacity="0.12"/>
<circle cx="269.662" cy="50.5643" r="2.19845" fill="#2582ED" fill-opacity="0.12"/>
<circle cx="269.662" cy="62.6558" r="2.19845" fill="#2582ED" fill-opacity="0.12"/>
<circle cx="342.211" cy="50.5643" r="2.19845" fill="#2582ED" fill-opacity="0.12"/>
<circle cx="342.211" cy="62.6558" r="2.19845" fill="#2582ED" fill-opacity="0.12"/>
<circle cx="293.845" cy="50.5643" r="2.19845" fill="#2582ED" fill-opacity="0.12"/>
<circle cx="293.845" cy="62.6558" r="2.19845" fill="#2582ED" fill-opacity="0.12"/>
<circle cx="366.394" cy="50.5643" r="2.19845" fill="#2582ED" fill-opacity="0.12"/>
<circle cx="366.394" cy="62.6558" r="2.19845" fill="#2582ED" fill-opacity="0.12"/>
<circle cx="245.479" cy="38.4729" r="2.19845" fill="#2582ED" fill-opacity="0.12"/>
<circle cx="318.028" cy="38.4729" r="2.19845" fill="#2582ED" fill-opacity="0.12"/>
<circle cx="269.662" cy="38.4729" r="2.19845" fill="#2582ED" fill-opacity="0.12"/>
<circle cx="342.211" cy="38.4729" r="2.19845" fill="#2582ED" fill-opacity="0.12"/>
<circle cx="293.845" cy="38.4729" r="2.19845" fill="#2582ED" fill-opacity="0.12"/>
<circle cx="366.394" cy="38.4729" r="2.19845" fill="#2582ED" fill-opacity="0.12"/>
<circle cx="245.479" cy="26.3814" r="2.19845" fill="#2582ED" fill-opacity="0.12"/>
<circle cx="318.028" cy="26.3814" r="2.19845" fill="#2582ED" fill-opacity="0.12"/>
<circle cx="269.662" cy="26.3814" r="2.19845" fill="#2582ED" fill-opacity="0.12"/>
<circle cx="342.211" cy="26.3814" r="2.19845" fill="#2582ED" fill-opacity="0.12"/>
<circle cx="293.845" cy="26.3814" r="2.19845" fill="#2582ED" fill-opacity="0.12"/>
<circle cx="366.394" cy="26.3814" r="2.19845" fill="#2582ED" fill-opacity="0.12"/>
<circle cx="245.479" cy="14.2899" r="2.19845" fill="#2582ED" fill-opacity="0.12"/>
<circle cx="318.028" cy="14.2899" r="2.19845" fill="#2582ED" fill-opacity="0.12"/>
<circle cx="269.662" cy="14.2899" r="2.19845" fill="#2582ED" fill-opacity="0.12"/>
<circle cx="342.211" cy="14.2899" r="2.19845" fill="#2582ED" fill-opacity="0.12"/>
<circle cx="293.845" cy="14.2899" r="2.19845" fill="#2582ED" fill-opacity="0.12"/>
<circle cx="366.394" cy="14.2899" r="2.19845" fill="#2582ED" fill-opacity="0.12"/>
<circle cx="245.479" cy="2.19845" r="2.19845" fill="#2582ED" fill-opacity="0.12"/>
<circle cx="318.028" cy="2.19845" r="2.19845" fill="#2582ED" fill-opacity="0.12"/>
<circle cx="269.662" cy="2.19845" r="2.19845" fill="#2582ED" fill-opacity="0.12"/>
<circle cx="342.211" cy="2.19845" r="2.19845" fill="#2582ED" fill-opacity="0.12"/>
<circle cx="293.845" cy="2.19845" r="2.19845" fill="#2582ED" fill-opacity="0.12"/>
<circle cx="366.394" cy="2.19845" r="2.19845" fill="#2582ED" fill-opacity="0.12"/>
<circle cx="159.388" cy="217.646" r="2.19845" fill="#2582ED" fill-opacity="0.12"/>
<circle cx="231.936" cy="217.646" r="2.19845" fill="#2582ED" fill-opacity="0.12"/>
<circle cx="183.571" cy="217.646" r="2.19845" fill="#2582ED" fill-opacity="0.12"/>
<circle cx="256.119" cy="217.646" r="2.19845" fill="#2582ED" fill-opacity="0.12"/>
<circle cx="207.754" cy="217.646" r="2.19845" fill="#2582ED" fill-opacity="0.12"/>
<circle cx="280.302" cy="217.646" r="2.19845" fill="#2582ED" fill-opacity="0.12"/>
<circle cx="159.388" cy="229.738" r="2.19845" fill="#2582ED" fill-opacity="0.12"/>
<circle cx="231.936" cy="229.738" r="2.19845" fill="#2582ED" fill-opacity="0.12"/>
<circle cx="183.571" cy="229.738" r="2.19845" fill="#2582ED" fill-opacity="0.12"/>
<circle cx="256.119" cy="229.738" r="2.19845" fill="#2582ED" fill-opacity="0.12"/>
<circle cx="207.754" cy="229.738" r="2.19845" fill="#2582ED" fill-opacity="0.12"/>
<circle cx="280.302" cy="229.738" r="2.19845" fill="#2582ED" fill-opacity="0.12"/>
<circle cx="159.388" cy="241.829" r="2.19845" fill="#2582ED" fill-opacity="0.12"/>
<circle cx="231.936" cy="241.829" r="2.19845" fill="#2582ED" fill-opacity="0.12"/>
<circle cx="183.571" cy="241.829" r="2.19845" fill="#2582ED" fill-opacity="0.12"/>
<circle cx="256.119" cy="241.829" r="2.19845" fill="#2582ED" fill-opacity="0.12"/>
<circle cx="207.754" cy="241.829" r="2.19845" fill="#2582ED" fill-opacity="0.12"/>
<circle cx="280.302" cy="241.829" r="2.19845" fill="#2582ED" fill-opacity="0.12"/>
<circle cx="159.388" cy="253.921" r="2.19845" fill="#2582ED" fill-opacity="0.12"/>
<circle cx="231.936" cy="253.921" r="2.19845" fill="#2582ED" fill-opacity="0.12"/>
<circle cx="183.571" cy="253.921" r="2.19845" fill="#2582ED" fill-opacity="0.12"/>
<circle cx="256.119" cy="253.921" r="2.19845" fill="#2582ED" fill-opacity="0.12"/>
<circle cx="207.754" cy="253.921" r="2.19845" fill="#2582ED" fill-opacity="0.12"/>
<circle cx="280.302" cy="253.921" r="2.19845" fill="#2582ED" fill-opacity="0.12"/>
<circle cx="159.388" cy="266.012" r="2.19845" fill="#2582ED" fill-opacity="0.12"/>
<circle cx="159.388" cy="278.104" r="2.19845" fill="#2582ED" fill-opacity="0.12"/>
<circle cx="231.936" cy="266.012" r="2.19845" fill="#2582ED" fill-opacity="0.12"/>
<circle cx="231.936" cy="278.104" r="2.19845" fill="#2582ED" fill-opacity="0.12"/>
<circle cx="183.571" cy="266.012" r="2.19845" fill="#2582ED" fill-opacity="0.12"/>
<circle cx="183.571" cy="278.104" r="2.19845" fill="#2582ED" fill-opacity="0.12"/>
<circle cx="256.119" cy="266.012" r="2.19845" fill="#2582ED" fill-opacity="0.12"/>
<circle cx="256.119" cy="278.104" r="2.19845" fill="#2582ED" fill-opacity="0.12"/>
<circle cx="207.754" cy="266.012" r="2.19845" fill="#2582ED" fill-opacity="0.12"/>
<circle cx="207.754" cy="278.104" r="2.19845" fill="#2582ED" fill-opacity="0.12"/>
<circle cx="280.302" cy="266.012" r="2.19845" fill="#2582ED" fill-opacity="0.12"/>
<circle cx="280.302" cy="278.104" r="2.19845" fill="#2582ED" fill-opacity="0.12"/>
<circle cx="171.479" cy="266.012" r="2.19845" fill="#2582ED" fill-opacity="0.12"/>
<circle cx="171.479" cy="278.104" r="2.19845" fill="#2582ED" fill-opacity="0.12"/>
<circle cx="244.028" cy="266.012" r="2.19845" fill="#2582ED" fill-opacity="0.12"/>
<circle cx="244.028" cy="278.104" r="2.19845" fill="#2582ED" fill-opacity="0.12"/>
<circle cx="195.662" cy="266.012" r="2.19845" fill="#2582ED" fill-opacity="0.12"/>
<circle cx="195.662" cy="278.104" r="2.19845" fill="#2582ED" fill-opacity="0.12"/>
<circle cx="268.211" cy="266.012" r="2.19845" fill="#2582ED" fill-opacity="0.12"/>
<circle cx="268.211" cy="278.104" r="2.19845" fill="#2582ED" fill-opacity="0.12"/>
<circle cx="219.845" cy="266.012" r="2.19845" fill="#2582ED" fill-opacity="0.12"/>
<circle cx="219.845" cy="278.104" r="2.19845" fill="#2582ED" fill-opacity="0.12"/>
<circle cx="292.394" cy="266.012" r="2.19845" fill="#2582ED" fill-opacity="0.12"/>
<circle cx="292.394" cy="278.104" r="2.19845" fill="#2582ED" fill-opacity="0.12"/>
<circle cx="171.479" cy="253.921" r="2.19845" fill="#2582ED" fill-opacity="0.12"/>
<circle cx="244.028" cy="253.921" r="2.19845" fill="#2582ED" fill-opacity="0.12"/>
<circle cx="195.662" cy="253.921" r="2.19845" fill="#2582ED" fill-opacity="0.12"/>
<circle cx="268.211" cy="253.921" r="2.19845" fill="#2582ED" fill-opacity="0.12"/>
<circle cx="219.845" cy="253.921" r="2.19845" fill="#2582ED" fill-opacity="0.12"/>
<circle cx="292.394" cy="253.921" r="2.19845" fill="#2582ED" fill-opacity="0.12"/>
<circle cx="171.479" cy="241.829" r="2.19845" fill="#2582ED" fill-opacity="0.12"/>
<circle cx="244.028" cy="241.829" r="2.19845" fill="#2582ED" fill-opacity="0.12"/>
<circle cx="195.662" cy="241.829" r="2.19845" fill="#2582ED" fill-opacity="0.12"/>
<circle cx="268.211" cy="241.829" r="2.19845" fill="#2582ED" fill-opacity="0.12"/>
<circle cx="219.845" cy="241.829" r="2.19845" fill="#2582ED" fill-opacity="0.12"/>
<circle cx="292.394" cy="241.829" r="2.19845" fill="#2582ED" fill-opacity="0.12"/>
<circle cx="171.479" cy="229.738" r="2.19845" fill="#2582ED" fill-opacity="0.12"/>
<circle cx="244.028" cy="229.738" r="2.19845" fill="#2582ED" fill-opacity="0.12"/>
<circle cx="195.662" cy="229.738" r="2.19845" fill="#2582ED" fill-opacity="0.12"/>
<circle cx="268.211" cy="229.738" r="2.19845" fill="#2582ED" fill-opacity="0.12"/>
<circle cx="219.845" cy="229.738" r="2.19845" fill="#2582ED" fill-opacity="0.12"/>
<circle cx="292.394" cy="229.738" r="2.19845" fill="#2582ED" fill-opacity="0.12"/>
<circle cx="171.479" cy="217.646" r="2.19845" fill="#2582ED" fill-opacity="0.12"/>
<circle cx="244.028" cy="217.646" r="2.19845" fill="#2582ED" fill-opacity="0.12"/>
<circle cx="195.662" cy="217.646" r="2.19845" fill="#2582ED" fill-opacity="0.12"/>
<circle cx="268.211" cy="217.646" r="2.19845" fill="#2582ED" fill-opacity="0.12"/>
<circle cx="219.845" cy="217.646" r="2.19845" fill="#2582ED" fill-opacity="0.12"/>
<circle cx="292.394" cy="217.646" r="2.19845" fill="#2582ED" fill-opacity="0.12"/>
<circle cx="88.2899" cy="2.19845" r="2.19845" fill="#2582ED" fill-opacity="0.12"/>
<circle cx="76.1984" cy="2.19845" r="2.19845" fill="#2582ED" fill-opacity="0.12"/>
<circle cx="160.839" cy="2.19845" r="2.19845" fill="#2582ED" fill-opacity="0.12"/>
<circle cx="112.473" cy="2.19845" r="2.19845" fill="#2582ED" fill-opacity="0.12"/>
<circle cx="185.022" cy="2.19845" r="2.19845" fill="#2582ED" fill-opacity="0.12"/>
<circle cx="136.656" cy="2.19845" r="2.19845" fill="#2582ED" fill-opacity="0.12"/>
<circle cx="209.205" cy="2.19845" r="2.19845" fill="#2582ED" fill-opacity="0.12"/>
<circle cx="88.2899" cy="14.2899" r="2.19845" fill="#2582ED" fill-opacity="0.12"/>
<circle cx="76.1984" cy="14.2899" r="2.19845" fill="#2582ED" fill-opacity="0.12"/>
<circle cx="160.839" cy="14.2899" r="2.19845" fill="#2582ED" fill-opacity="0.12"/>
<circle cx="112.473" cy="14.2899" r="2.19845" fill="#2582ED" fill-opacity="0.12"/>
<circle cx="185.022" cy="14.2899" r="2.19845" fill="#2582ED" fill-opacity="0.12"/>
<circle cx="136.656" cy="14.2899" r="2.19845" fill="#2582ED" fill-opacity="0.12"/>
<circle cx="209.205" cy="14.2899" r="2.19845" fill="#2582ED" fill-opacity="0.12"/>
<circle cx="88.2899" cy="26.3814" r="2.19845" fill="#2582ED" fill-opacity="0.12"/>
<circle cx="76.1984" cy="26.3814" r="2.19845" fill="#2582ED" fill-opacity="0.12"/>
<circle cx="160.839" cy="26.3814" r="2.19845" fill="#2582ED" fill-opacity="0.12"/>
<circle cx="112.473" cy="26.3814" r="2.19845" fill="#2582ED" fill-opacity="0.12"/>
<circle cx="185.022" cy="26.3814" r="2.19845" fill="#2582ED" fill-opacity="0.12"/>
<circle cx="136.656" cy="26.3814" r="2.19845" fill="#2582ED" fill-opacity="0.12"/>
<circle cx="209.205" cy="26.3814" r="2.19845" fill="#2582ED" fill-opacity="0.12"/>
<circle cx="88.2899" cy="38.4729" r="2.19845" fill="#2582ED" fill-opacity="0.12"/>
<circle cx="160.839" cy="38.4729" r="2.19845" fill="#2582ED" fill-opacity="0.12"/>
<circle cx="112.473" cy="38.4729" r="2.19845" fill="#2582ED" fill-opacity="0.12"/>
<circle cx="185.022" cy="38.4729" r="2.19845" fill="#2582ED" fill-opacity="0.12"/>
<circle cx="136.656" cy="38.4729" r="2.19845" fill="#2582ED" fill-opacity="0.12"/>
<circle cx="209.205" cy="38.4729" r="2.19845" fill="#2582ED" fill-opacity="0.12"/>
<circle cx="88.2899" cy="50.5643" r="2.19845" fill="#2582ED" fill-opacity="0.12"/>
<circle cx="88.2899" cy="62.6558" r="2.19845" fill="#2582ED" fill-opacity="0.12"/>
<circle cx="160.839" cy="50.5643" r="2.19845" fill="#2582ED" fill-opacity="0.12"/>
<circle cx="160.839" cy="62.6558" r="2.19845" fill="#2582ED" fill-opacity="0.12"/>
<circle cx="112.473" cy="50.5643" r="2.19845" fill="#2582ED" fill-opacity="0.12"/>
<circle cx="112.473" cy="62.6558" r="2.19845" fill="#2582ED" fill-opacity="0.12"/>
<circle cx="185.022" cy="50.5643" r="2.19845" fill="#2582ED" fill-opacity="0.12"/>
<circle cx="185.022" cy="62.6558" r="2.19845" fill="#2582ED" fill-opacity="0.12"/>
<circle cx="136.656" cy="50.5643" r="2.19845" fill="#2582ED" fill-opacity="0.12"/>
<circle cx="136.656" cy="62.6558" r="2.19845" fill="#2582ED" fill-opacity="0.12"/>
<circle cx="209.205" cy="50.5643" r="2.19845" fill="#2582ED" fill-opacity="0.12"/>
<circle cx="209.205" cy="62.6558" r="2.19845" fill="#2582ED" fill-opacity="0.12"/>
<circle cx="100.381" cy="50.5643" r="2.19845" fill="#2582ED" fill-opacity="0.12"/>
<circle cx="100.381" cy="62.6558" r="2.19845" fill="#2582ED" fill-opacity="0.12"/>
<circle cx="172.93" cy="50.5643" r="2.19845" fill="#2582ED" fill-opacity="0.12"/>
<circle cx="172.93" cy="62.6558" r="2.19845" fill="#2582ED" fill-opacity="0.12"/>
<circle cx="124.564" cy="50.5643" r="2.19845" fill="#2582ED" fill-opacity="0.12"/>
<circle cx="124.564" cy="62.6558" r="2.19845" fill="#2582ED" fill-opacity="0.12"/>
<circle cx="197.113" cy="50.5643" r="2.19845" fill="#2582ED" fill-opacity="0.12"/>
<circle cx="197.113" cy="62.6558" r="2.19845" fill="#2582ED" fill-opacity="0.12"/>
<circle cx="148.747" cy="50.5643" r="2.19845" fill="#2582ED" fill-opacity="0.12"/>
<circle cx="148.747" cy="62.6558" r="2.19845" fill="#2582ED" fill-opacity="0.12"/>
<circle cx="221.296" cy="50.5643" r="2.19845" fill="#2582ED" fill-opacity="0.12"/>
<circle cx="221.296" cy="62.6558" r="2.19845" fill="#2582ED" fill-opacity="0.12"/>
<circle cx="100.381" cy="38.4729" r="2.19845" fill="#2582ED" fill-opacity="0.12"/>
<circle cx="172.93" cy="38.4729" r="2.19845" fill="#2582ED" fill-opacity="0.12"/>
<circle cx="124.564" cy="38.4729" r="2.19845" fill="#2582ED" fill-opacity="0.12"/>
<circle cx="197.113" cy="38.4729" r="2.19845" fill="#2582ED" fill-opacity="0.12"/>
<circle cx="148.747" cy="38.4729" r="2.19845" fill="#2582ED" fill-opacity="0.12"/>
<circle cx="221.296" cy="38.4729" r="2.19845" fill="#2582ED" fill-opacity="0.12"/>
<circle cx="100.381" cy="26.3814" r="2.19845" fill="#2582ED" fill-opacity="0.12"/>
<circle cx="172.93" cy="26.3814" r="2.19845" fill="#2582ED" fill-opacity="0.12"/>
<circle cx="124.564" cy="26.3814" r="2.19845" fill="#2582ED" fill-opacity="0.12"/>
<circle cx="197.113" cy="26.3814" r="2.19845" fill="#2582ED" fill-opacity="0.12"/>
<circle cx="148.747" cy="26.3814" r="2.19845" fill="#2582ED" fill-opacity="0.12"/>
<circle cx="221.296" cy="26.3814" r="2.19845" fill="#2582ED" fill-opacity="0.12"/>
<circle cx="100.381" cy="14.2899" r="2.19845" fill="#2582ED" fill-opacity="0.12"/>
<circle cx="172.93" cy="14.2899" r="2.19845" fill="#2582ED" fill-opacity="0.12"/>
<circle cx="124.564" cy="14.2899" r="2.19845" fill="#2582ED" fill-opacity="0.12"/>
<circle cx="197.113" cy="14.2899" r="2.19845" fill="#2582ED" fill-opacity="0.12"/>
<circle cx="148.747" cy="14.2899" r="2.19845" fill="#2582ED" fill-opacity="0.12"/>
<circle cx="221.296" cy="14.2899" r="2.19845" fill="#2582ED" fill-opacity="0.12"/>
<circle cx="100.381" cy="2.19845" r="2.19845" fill="#2582ED" fill-opacity="0.12"/>
<circle cx="172.93" cy="2.19845" r="2.19845" fill="#2582ED" fill-opacity="0.12"/>
<circle cx="124.564" cy="2.19845" r="2.19845" fill="#2582ED" fill-opacity="0.12"/>
<circle cx="197.113" cy="2.19845" r="2.19845" fill="#2582ED" fill-opacity="0.12"/>
<circle cx="148.747" cy="2.19845" r="2.19845" fill="#2582ED" fill-opacity="0.12"/>
<circle cx="221.296" cy="2.19845" r="2.19845" fill="#2582ED" fill-opacity="0.12"/>
<circle cx="14.2899" cy="217.646" r="2.19845" fill="#2582ED" fill-opacity="0.12"/>
<circle cx="86.8388" cy="217.646" r="2.19845" fill="#2582ED" fill-opacity="0.12"/>
<circle cx="38.4729" cy="217.646" r="2.19845" fill="#2582ED" fill-opacity="0.12"/>
<circle cx="111.022" cy="217.646" r="2.19845" fill="#2582ED" fill-opacity="0.12"/>
<circle cx="62.6558" cy="217.646" r="2.19845" fill="#2582ED" fill-opacity="0.12"/>
<circle cx="135.205" cy="217.646" r="2.19845" fill="#2582ED" fill-opacity="0.12"/>
<circle cx="14.2899" cy="229.738" r="2.19845" fill="#2582ED" fill-opacity="0.12"/>
<circle cx="86.8388" cy="229.738" r="2.19845" fill="#2582ED" fill-opacity="0.12"/>
<circle cx="38.4729" cy="229.738" r="2.19845" fill="#2582ED" fill-opacity="0.12"/>
<circle cx="111.022" cy="229.738" r="2.19845" fill="#2582ED" fill-opacity="0.12"/>
<circle cx="62.6558" cy="229.738" r="2.19845" fill="#2582ED" fill-opacity="0.12"/>
<circle cx="135.205" cy="229.738" r="2.19845" fill="#2582ED" fill-opacity="0.12"/>
<circle cx="14.2899" cy="241.829" r="2.19845" fill="#2582ED" fill-opacity="0.12"/>
<circle cx="86.8388" cy="241.829" r="2.19845" fill="#2582ED" fill-opacity="0.12"/>
<circle cx="38.4729" cy="241.829" r="2.19845" fill="#2582ED" fill-opacity="0.12"/>
<circle cx="111.022" cy="241.829" r="2.19845" fill="#2582ED" fill-opacity="0.12"/>
<circle cx="62.6558" cy="241.829" r="2.19845" fill="#2582ED" fill-opacity="0.12"/>
<circle cx="135.205" cy="241.829" r="2.19845" fill="#2582ED" fill-opacity="0.12"/>
<circle cx="14.2899" cy="253.921" r="2.19845" fill="#2582ED" fill-opacity="0.12"/>
<circle cx="2.19845" cy="253.921" r="2.19845" fill="#2582ED" fill-opacity="0.12"/>
<circle cx="86.8388" cy="253.921" r="2.19845" fill="#2582ED" fill-opacity="0.12"/>
<circle cx="38.4729" cy="253.921" r="2.19845" fill="#2582ED" fill-opacity="0.12"/>
<circle cx="111.022" cy="253.921" r="2.19845" fill="#2582ED" fill-opacity="0.12"/>
<circle cx="62.6558" cy="253.921" r="2.19845" fill="#2582ED" fill-opacity="0.12"/>
<circle cx="135.205" cy="253.921" r="2.19845" fill="#2582ED" fill-opacity="0.12"/>
<circle cx="14.2899" cy="266.012" r="2.19845" fill="#2582ED" fill-opacity="0.12"/>
<circle cx="2.19845" cy="266.012" r="2.19845" fill="#2582ED" fill-opacity="0.12"/>
<circle cx="14.2899" cy="278.104" r="2.19845" fill="#2582ED" fill-opacity="0.12"/>
<circle cx="2.19845" cy="278.104" r="2.19845" fill="#2582ED" fill-opacity="0.12"/>
<circle cx="86.8388" cy="266.012" r="2.19845" fill="#2582ED" fill-opacity="0.12"/>
<circle cx="86.8388" cy="278.104" r="2.19845" fill="#2582ED" fill-opacity="0.12"/>
<circle cx="38.4729" cy="266.012" r="2.19845" fill="#2582ED" fill-opacity="0.12"/>
<circle cx="38.4729" cy="278.104" r="2.19845" fill="#2582ED" fill-opacity="0.12"/>
<circle cx="111.022" cy="266.012" r="2.19845" fill="#2582ED" fill-opacity="0.12"/>
<circle cx="111.022" cy="278.104" r="2.19845" fill="#2582ED" fill-opacity="0.12"/>
<circle cx="62.6558" cy="266.012" r="2.19845" fill="#2582ED" fill-opacity="0.12"/>
<circle cx="62.6558" cy="278.104" r="2.19845" fill="#2582ED" fill-opacity="0.12"/>
<circle cx="135.205" cy="266.012" r="2.19845" fill="#2582ED" fill-opacity="0.12"/>
<circle cx="135.205" cy="278.104" r="2.19845" fill="#2582ED" fill-opacity="0.12"/>
<circle cx="26.3813" cy="266.012" r="2.19845" fill="#2582ED" fill-opacity="0.12"/>
<circle cx="26.3813" cy="278.104" r="2.19845" fill="#2582ED" fill-opacity="0.12"/>
<circle cx="98.9303" cy="266.012" r="2.19845" fill="#2582ED" fill-opacity="0.12"/>
<circle cx="98.9303" cy="278.104" r="2.19845" fill="#2582ED" fill-opacity="0.12"/>
<circle cx="50.5643" cy="266.012" r="2.19845" fill="#2582ED" fill-opacity="0.12"/>
<circle cx="50.5643" cy="278.104" r="2.19845" fill="#2582ED" fill-opacity="0.12"/>
<circle cx="123.113" cy="266.012" r="2.19845" fill="#2582ED" fill-opacity="0.12"/>
<circle cx="123.113" cy="278.104" r="2.19845" fill="#2582ED" fill-opacity="0.12"/>
<circle cx="74.7473" cy="266.012" r="2.19845" fill="#2582ED" fill-opacity="0.12"/>
<circle cx="74.7473" cy="278.104" r="2.19845" fill="#2582ED" fill-opacity="0.12"/>
<circle cx="147.296" cy="266.012" r="2.19845" fill="#2582ED" fill-opacity="0.12"/>
<circle cx="147.296" cy="278.104" r="2.19845" fill="#2582ED" fill-opacity="0.12"/>
<circle cx="26.3813" cy="253.921" r="2.19845" fill="#2582ED" fill-opacity="0.12"/>
<circle cx="98.9303" cy="253.921" r="2.19845" fill="#2582ED" fill-opacity="0.12"/>
<circle cx="50.5643" cy="253.921" r="2.19845" fill="#2582ED" fill-opacity="0.12"/>
<circle cx="123.113" cy="253.921" r="2.19845" fill="#2582ED" fill-opacity="0.12"/>
<circle cx="74.7473" cy="253.921" r="2.19845" fill="#2582ED" fill-opacity="0.12"/>
<circle cx="147.296" cy="253.921" r="2.19845" fill="#2582ED" fill-opacity="0.12"/>
<circle cx="26.3813" cy="241.829" r="2.19845" fill="#2582ED" fill-opacity="0.12"/>
<circle cx="98.9303" cy="241.829" r="2.19845" fill="#2582ED" fill-opacity="0.12"/>
<circle cx="50.5643" cy="241.829" r="2.19845" fill="#2582ED" fill-opacity="0.12"/>
<circle cx="123.113" cy="241.829" r="2.19845" fill="#2582ED" fill-opacity="0.12"/>
<circle cx="74.7473" cy="241.829" r="2.19845" fill="#2582ED" fill-opacity="0.12"/>
<circle cx="147.296" cy="241.829" r="2.19845" fill="#2582ED" fill-opacity="0.12"/>
<circle cx="26.3813" cy="229.738" r="2.19845" fill="#2582ED" fill-opacity="0.12"/>
<circle cx="98.9303" cy="229.738" r="2.19845" fill="#2582ED" fill-opacity="0.12"/>
<circle cx="50.5643" cy="229.738" r="2.19845" fill="#2582ED" fill-opacity="0.12"/>
<circle cx="123.113" cy="229.738" r="2.19845" fill="#2582ED" fill-opacity="0.12"/>
<circle cx="74.7473" cy="229.738" r="2.19845" fill="#2582ED" fill-opacity="0.12"/>
<circle cx="147.296" cy="229.738" r="2.19845" fill="#2582ED" fill-opacity="0.12"/>
<circle cx="26.3813" cy="217.646" r="2.19845" fill="#2582ED" fill-opacity="0.12"/>
<circle cx="98.9303" cy="217.646" r="2.19845" fill="#2582ED" fill-opacity="0.12"/>
<circle cx="50.5643" cy="217.646" r="2.19845" fill="#2582ED" fill-opacity="0.12"/>
<circle cx="123.113" cy="217.646" r="2.19845" fill="#2582ED" fill-opacity="0.12"/>
<circle cx="74.7473" cy="217.646" r="2.19845" fill="#2582ED" fill-opacity="0.12"/>
<circle cx="147.296" cy="217.646" r="2.19845" fill="#2582ED" fill-opacity="0.12"/>
</svg>
