<svg width="80" height="80" viewBox="0 0 80 80" fill="none" xmlns="http://www.w3.org/2000/svg">
<path fill-rule="evenodd" clip-rule="evenodd" d="M48.7719 45.4262C47.8857 45.9024 47.1028 46.8425 46.868 47.7122C46.7836 48.0248 46.7142 48.8814 46.7138 49.6157L46.7129 50.9508H44.4402C41.9075 50.9508 41.2026 51.1075 40.3029 51.8703C40.0089 52.1196 39.5955 52.6805 39.3842 53.1167L39 53.9099V61.8347C39 67.5159 39.05 69.931 39.1764 70.3651C39.4273 71.227 40.4895 72.3836 41.3403 72.7213C41.9979 72.9824 42.8014 72.9993 54.4999 72.9993C68.6273 72.9993 67.7875 73.0712 68.9611 71.7614C70.0418 70.5553 69.9998 70.9508 69.9998 61.9717V53.9099L69.6156 53.1167C69.4043 52.6805 68.9909 52.1196 68.6969 51.8703C67.7972 51.1075 67.0923 50.9508 64.5595 50.9508H62.2869L62.2837 49.4631C62.2789 47.2935 61.6993 46.1732 60.1777 45.3934L59.4105 45H54.4877H49.5648L48.7719 45.4262ZM59.4176 47.9295C59.7755 48.2978 59.8249 48.4794 59.8844 49.646L59.951 50.9508H54.5926H49.2344V49.6041C49.2344 48.4019 49.2701 48.224 49.5681 47.9452C49.7517 47.7734 50.002 47.5936 50.1243 47.5457C50.2467 47.498 52.2977 47.472 54.6822 47.4882L59.0174 47.5176L59.4176 47.9295Z" fill="#363636"/>
<g filter="url(#filter0_ii_889_209)">
<path fill-rule="evenodd" clip-rule="evenodd" d="M31.21 9.06518C28.5857 9.32323 26.1264 10.5309 24.1088 12.5526C22.5748 14.0896 21.7608 15.3999 21.0491 17.4774C20.5839 18.8356 20.5407 19.1412 20.5375 21.0924C20.5345 22.8786 20.6067 23.5149 20.9835 25.0221C21.806 28.3129 22.5878 31.5 25.126 33.897C30 38.5 38.6915 37.5 42.2137 30.5036C43.8843 27.1852 44.7377 24.0259 44.7338 21.1743C44.7305 18.8999 44.4585 17.7389 43.443 15.6674C41.2146 11.1214 36.45 8.54988 31.21 9.06518ZM23.486 37.707C18.3201 38.1975 13.5057 41.8467 11.4893 46.8005C10.9859 48.0373 10.7538 49.2094 9.46042 57.0529C8.65723 61.9237 8 67.9615 8 68.2545C8 68.5993 8.13357 68.9127 8.37876 69.1436C8.7531 69.4957 8.82692 69.5 14.5987 69.5H23.2369H29.1222H35.0076L35.0076 60.7537C35.0076 53.3885 35.059 52.7981 35.8324 51.2797C36.5878 49.7966 38.5258 48.2232 40.0474 47.8575C40.4785 47.754 41.4524 47.6174 42.2119 47.5543L43.5926 47.4394L43.7131 46.7305C44.1285 44.2863 46.5953 41.7267 48.8897 41.3591C49.2668 41.2988 49.5753 41.1888 49.5753 41.1147C49.5753 40.8799 47.5205 39.5004 46.4402 39.0099C44.2092 37.9969 40.8267 37.3491 39.7244 37.7236C39.4058 37.8318 38.3782 39.134 35.9812 42.4668C33.2534 46.2596 32.6404 47.0225 32.4666 46.8403C32.3507 46.719 30.8499 44.6676 29.1313 42.2818C27.4128 39.8962 25.9143 37.8947 25.8013 37.8341C25.3638 37.5996 24.8898 37.5737 23.486 37.707Z" fill="url(#paint0_linear_889_209)"/>
</g>
<defs>
<filter id="filter0_ii_889_209" x="5" y="6" width="47.5754" height="66.5" filterUnits="userSpaceOnUse" color-interpolation-filters="sRGB">
<feFlood flood-opacity="0" result="BackgroundImageFix"/>
<feBlend mode="normal" in="SourceGraphic" in2="BackgroundImageFix" result="shape"/>
<feColorMatrix in="SourceAlpha" type="matrix" values="0 0 0 0 0 0 0 0 0 0 0 0 0 0 0 0 0 0 127 0" result="hardAlpha"/>
<feOffset dx="3" dy="3"/>
<feGaussianBlur stdDeviation="4"/>
<feComposite in2="hardAlpha" operator="arithmetic" k2="-1" k3="1"/>
<feColorMatrix type="matrix" values="0 0 0 0 0.366667 0 0 0 0 0.729006 0 0 0 0 1 0 0 0 1 0"/>
<feBlend mode="normal" in2="shape" result="effect1_innerShadow_889_209"/>
<feColorMatrix in="SourceAlpha" type="matrix" values="0 0 0 0 0 0 0 0 0 0 0 0 0 0 0 0 0 0 127 0" result="hardAlpha"/>
<feOffset dx="-3" dy="-3"/>
<feGaussianBlur stdDeviation="4"/>
<feComposite in2="hardAlpha" operator="arithmetic" k2="-1" k3="1"/>
<feColorMatrix type="matrix" values="0 0 0 0 0.149479 0 0 0 0 0.488778 0 0 0 0 0.875 0 0 0 1 0"/>
<feBlend mode="normal" in2="effect1_innerShadow_889_209" result="effect2_innerShadow_889_209"/>
</filter>
<linearGradient id="paint0_linear_889_209" x1="49.5753" y1="40.2707" x2="7.99728" y2="40.3272" gradientUnits="userSpaceOnUse">
<stop stop-color="#2581ED"/>
<stop offset="1" stop-color="#2EA7FF"/>
</linearGradient>
</defs>
</svg>
