<svg width="80" height="80" viewBox="0 0 80 80" fill="none" xmlns="http://www.w3.org/2000/svg">
<path fill-rule="evenodd" clip-rule="evenodd" d="M65.9679 8.12404C62.3987 8.69521 59.3941 11.4382 58.371 15.0596C57.5932 17.8128 58.0235 20.4974 59.8032 23.9961C60.8815 26.1159 62.8022 28.9046 64.7782 31.2194C65.8516 32.4768 67.3478 34 67.5094 34C67.6965 34 69.7039 31.8805 70.8323 30.4916C75.2901 25.0048 77.3296 20.455 76.9568 16.83C76.7263 14.5898 75.8581 12.6369 74.3855 11.0459C72.1938 8.67833 69.1365 7.61709 65.9679 8.12404ZM68.892 13.5183C70.6657 14.1444 71.8173 15.7883 71.8146 17.6905C71.8127 19.0297 71.4331 19.9937 70.5485 20.9057C68.2646 23.26 64.2978 22.23 63.3527 19.0372C63.2006 18.5233 63.1704 18.223 63.1987 17.5028C63.23 16.7025 63.2687 16.5316 63.5633 15.8952C64.5438 13.7767 66.7881 12.7756 68.892 13.5183Z" fill="#363636"/>
<path fill-rule="evenodd" clip-rule="evenodd" d="M8.53235 24.1907C7.71377 24.4717 7.19611 24.9439 6.76886 25.7991C6.51065 26.316 6.50206 26.8094 6.49914 41.2965C6.49609 56.2347 6.49651 56.2606 6.78356 56.6116L7.07089 56.9633H24.6029C41.7823 56.9633 42.1402 56.9581 42.4043 56.7038C42.5527 56.561 42.7115 56.2458 42.7573 56.0031C42.803 55.7605 42.8222 48.9854 42.7997 40.9474C42.7613 27.2162 42.7437 26.3008 42.5095 25.801C42.164 25.0636 41.7649 24.6817 40.9561 24.3146L40.2627 24L24.6621 24.0045C11.8637 24.0083 8.96653 24.0416 8.53235 24.1907ZM47.0576 30.1972C46.3863 30.4338 45.941 30.901 45.7474 31.5718C45.6518 31.9036 45.6028 36.7565 45.6024 45.9858L45.6016 59.8995H37.8078H30.014L30.5013 60.4C31.5864 61.5146 32.3345 62.8113 32.6385 64.1037L32.7954 64.771L41.0565 64.8055L49.3176 64.8399L49.4855 64.1381C50.0129 61.9337 51.8258 59.7699 54.0456 58.6957C55.4597 58.0114 58.1075 57.7922 59.6768 58.2296C62.6416 59.056 64.7049 61.0663 65.5686 63.9702L65.8069 64.771H70.1384H74.47L74.735 64.4559C74.9664 64.1807 75 63.914 75 62.3478C75 60.622 74.9872 60.5424 74.6596 60.2272C74.3434 59.9228 74.2204 59.8995 72.9262 59.8995H71.5332V53.0378C71.5332 45.3809 71.4798 44.7838 70.6555 43.2293C70.0218 42.034 64.0875 33.5934 63.2176 32.6498C62.3096 31.6649 61.0581 30.8851 59.6768 30.4433L58.5674 30.0887L53.0898 30.0452C48.542 30.0091 47.5181 30.0349 47.0576 30.1972ZM59.4245 35.5134C59.5909 35.6026 60.8858 37.2613 62.302 39.1992C65.0165 42.9137 65.1643 43.2067 64.5996 43.7502C64.3299 44.0098 64.1374 44.0171 57.5967 44.0171C51.0559 44.0171 50.8635 44.0098 50.5938 43.7502C50.3294 43.4958 50.3164 43.3054 50.3164 39.6893V35.8951L50.6818 35.6186C51.0328 35.3528 51.2061 35.342 55.0846 35.3466C57.9851 35.35 59.2072 35.397 59.4245 35.5134ZM4.34044 60.2272C4.01276 60.5424 4 60.622 4 62.3478C4 63.914 4.03356 64.1807 4.265 64.4559L4.53 64.771L10.4211 64.8085L16.3121 64.846L16.4842 64.1412C16.7647 62.9927 17.5144 61.6266 18.3541 60.7337L19.1385 59.8995H11.9096H4.68074L4.34044 60.2272ZM23.2904 60.0439C22.2288 60.2445 21.0028 60.8914 20.1762 61.6869C17.6909 64.079 17.6694 67.8509 20.128 70.2084C23.1948 73.1494 28.3187 72.34 30.1677 68.6222C30.9123 67.1248 31.0295 65.6619 30.5277 64.1244C29.5807 61.223 26.4352 59.4495 23.2904 60.0439ZM56.2943 60.0355C54.0231 60.4961 52.0746 62.285 51.4937 64.4424C50.5631 67.899 52.9427 71.3788 56.6135 71.9288C60.7126 72.5431 64.3212 69.0921 63.7482 65.1056C63.4338 62.9188 61.6383 60.8571 59.4965 60.2239C58.6467 59.9727 57.0633 59.8795 56.2943 60.0355ZM25.8408 63.2183C26.9184 63.6906 27.7114 64.8579 27.7114 65.9722C27.7114 67.0865 26.9184 68.2538 25.8408 68.7261C24.5315 69.3 22.8339 68.8304 21.9898 67.6605C21.5762 67.0873 21.542 66.9584 21.542 65.9722C21.542 65.0062 21.5817 64.8479 21.9587 64.3106C22.7842 63.1337 24.5284 62.6429 25.8408 63.2183ZM58.8525 63.221C60.0233 63.7328 60.8546 65.1557 60.6616 66.3175C60.3034 68.4731 58.1186 69.5779 56.1318 68.6082C54.4745 67.7994 53.9283 65.7832 54.96 64.2828C55.3072 63.7779 56.1096 63.1945 56.6335 63.0663C57.2561 62.9138 58.3194 62.9879 58.8525 63.221Z" fill="url(#paint0_linear_889_215)"/>
<defs>
<linearGradient id="paint0_linear_889_215" x1="75" y1="50.6667" x2="3.99586" y2="50.8784" gradientUnits="userSpaceOnUse">
<stop stop-color="#2581ED"/>
<stop offset="1" stop-color="#2EA7FF"/>
</linearGradient>
</defs>
</svg>
