<svg width="80" height="80" viewBox="0 0 80 80" fill="none" xmlns="http://www.w3.org/2000/svg">
<path fill-rule="evenodd" clip-rule="evenodd" d="M39.187 8.19907C38.9806 8.31076 38.2697 8.87131 37.6072 9.44475C36.9447 10.0183 36.3365 10.4876 36.2554 10.4876C36.1745 10.4876 35.4219 10.2024 34.5831 9.85397C32.0262 8.79164 31.6544 8.91046 30.2316 11.2434C29.141 13.0316 29.5579 12.8524 26.8664 12.6909C25.4218 12.6043 25.2724 12.6163 24.9031 12.8496C24.1982 13.2947 24.1482 13.4233 23.304 16.9503C23.2476 17.1861 23.0137 17.2755 21.5468 17.6218C19.6706 18.0648 19.1609 18.3287 18.8138 19.037C18.5963 19.4808 18.5894 19.6378 18.7204 21.1615C18.7982 22.0664 18.8617 22.9011 18.8615 23.0163C18.8612 23.15 18.2893 23.5766 17.2832 24.1938C14.8995 25.6559 14.8017 25.9749 15.9185 28.6373L16.6033 30.2697L15.4232 31.6347C13.5477 33.804 13.5465 34.1418 15.4058 36.3106C16.3631 37.4272 16.5639 37.7301 16.4835 37.9365C16.4292 38.0759 16.1198 38.8347 15.7958 39.6225C15.297 40.8353 15.2157 41.1477 15.265 41.6608C15.3413 42.4543 15.6418 42.7589 17.4027 43.8261C18.1704 44.2915 18.8182 44.6873 18.8423 44.7058C18.8663 44.7243 18.8204 45.5349 18.7404 46.5072C18.6602 47.4793 18.6317 48.4432 18.677 48.6491C18.7221 48.8549 18.9478 49.212 19.1784 49.4425C19.5508 49.8148 19.7908 49.9066 21.3246 50.2631C22.2743 50.4838 23.1115 50.739 23.1852 50.8301C23.2587 50.9212 23.4761 51.6883 23.6682 52.5348C24.0836 54.3646 24.3342 54.8319 25.0752 55.1596C25.5741 55.3804 25.7397 55.3896 27.0252 55.2693C29.4454 55.0425 29.1914 54.9469 30.0488 56.4088C30.9106 57.8783 31.2627 58.3271 31.7532 58.5807C32.3485 58.8885 32.9009 58.792 34.6243 58.0795L36.2795 57.395L36.6259 57.673C36.8164 57.8258 37.4562 58.3647 38.0477 58.8706C39.1897 59.8473 39.6847 60.0593 40.4304 59.8911C40.8867 59.7883 40.9863 59.7167 42.656 58.2947L43.7207 57.3879L45.3783 58.0758C48.0694 59.1927 48.3625 59.086 49.944 56.4132C50.8094 54.9506 50.5696 55.0422 52.9451 55.2674C54.5373 55.4184 55.1886 55.2637 55.642 54.6271C55.7851 54.4261 56.0895 53.4985 56.3184 52.5656C56.5473 51.6326 56.7694 50.8345 56.8119 50.7919C56.8546 50.7493 57.6547 50.527 58.5901 50.298C60.4485 49.8428 60.8727 49.6208 61.1991 48.9333C61.3958 48.5189 61.4017 48.3109 61.2661 46.6072C61.1842 45.5783 61.136 44.7223 61.1593 44.7052C61.1824 44.688 61.8255 44.2972 62.5882 43.8365C64.3413 42.7778 64.6586 42.4562 64.735 41.6608C64.7843 41.1477 64.703 40.8353 64.2042 39.6225C63.8802 38.8347 63.5708 38.0759 63.5165 37.9365C63.4361 37.7301 63.6369 37.4272 64.5942 36.3106C66.4535 34.1418 66.4523 33.804 64.5768 31.6347L63.3967 30.2697L64.0815 28.6373C65.1988 25.9739 65.0995 25.6504 62.7145 24.1874C61.7221 23.5787 61.1388 23.1443 61.1385 23.0139C61.1383 22.8999 61.2018 22.0664 61.2796 21.1615C61.4106 19.6378 61.4037 19.4808 61.1862 19.037C60.8373 18.3252 60.3165 18.0551 58.4454 17.6154C56.9877 17.273 56.7517 17.1831 56.6956 16.949C55.8526 13.4252 55.8017 13.2947 55.0969 12.8496C54.7276 12.6163 54.5782 12.6043 53.1336 12.6909C50.4421 12.8524 50.859 13.0316 49.7684 11.2434C48.3447 8.90896 47.9589 8.78489 45.441 9.85184C44.6158 10.2015 43.8634 10.4876 43.769 10.4876C43.6745 10.4876 43.0485 10.0096 42.3776 9.42536C41.7067 8.84117 40.9958 8.27874 40.7978 8.17543C40.3327 7.93292 39.661 7.9428 39.187 8.19907ZM49.0946 22.5595C49.5643 22.7557 54.4725 27.5082 55.4 28.665C55.8173 29.1852 55.8855 29.3575 55.8855 29.8905C55.8855 30.2317 55.805 30.6628 55.7066 30.8486C55.6083 31.0344 51.7948 34.9108 47.2323 39.4631C39.9044 46.7744 38.8821 47.7498 38.4677 47.8254C37.3142 48.0354 37.5439 48.2223 31.2669 41.9648C28.0803 38.7881 25.3926 36.0371 25.2942 35.8514C25.0644 35.4179 25.0647 34.5834 25.2946 34.1504C25.3931 33.9647 26.8747 32.4161 28.587 30.7092C32.8295 26.4796 32.4575 26.525 35.7692 29.8326L37.9993 32.0599L42.7209 27.3446C45.3177 24.7511 47.5831 22.5743 47.7551 22.5071C48.2094 22.3295 48.5788 22.344 49.0946 22.5595ZM11.8361 54.105C9.9362 56.0138 8.29124 57.7558 8.18042 57.9759C7.79867 58.7343 8.04571 59.802 8.70489 60.2428C8.87725 60.3579 10.7931 61.0467 12.9624 61.7733L16.9067 63.0943L18.2278 67.0381C18.9545 69.2071 19.6433 71.1228 19.7585 71.2951C20.1991 71.954 21.2667 72.2011 22.0257 71.8201C22.3914 71.6365 31.4944 62.6828 31.4944 62.5067C31.4944 62.4647 31.2552 62.3589 30.9628 62.2716C29.6003 61.8645 28.6308 61.1322 27.7996 59.8821L27.2141 59.0016L26.3835 59.0829C23.6798 59.3478 21.1772 57.6296 20.4391 55.0017C20.1219 53.8723 20.1184 53.868 19.2919 53.6419C17.7518 53.2203 16.508 52.3548 15.7749 51.1945C15.5804 50.8867 15.3918 50.6348 15.3558 50.6347C15.3197 50.6345 13.7358 52.1962 11.8361 54.105ZM64.3311 51.0387C63.6318 52.2226 62.3685 53.161 60.906 53.5828C60.3842 53.7332 59.9189 53.9334 59.8718 54.0276C59.8248 54.1218 59.6848 54.5602 59.5609 55.0017C58.8228 57.6296 56.3202 59.3478 53.6165 59.0829L52.7859 59.0016L52.2004 59.8821C51.3692 61.1322 50.3997 61.8645 49.0372 62.2716C48.7449 62.3589 48.5056 62.4647 48.5056 62.5067C48.5056 62.6828 57.6086 71.6365 57.9743 71.8201C58.7333 72.2011 59.8009 71.954 60.2415 71.2951C60.3567 71.1228 61.0455 69.2071 61.7722 67.0381L63.0933 63.0943L67.0376 61.7733C69.2069 61.0467 71.1227 60.3579 71.2951 60.2428C71.9543 59.802 72.2013 58.7343 71.8196 57.9759C71.6392 57.6175 64.8101 50.6344 64.6399 50.6344C64.6015 50.6344 64.4626 50.8164 64.3311 51.0387Z" fill="url(#paint0_linear_889_206)"/>
<path d="M31.3228 31.5023L28.6815 34.2827C28.3039 34.6801 28.3167 35.3073 28.71 35.6891L37.5824 44.2991C37.9805 44.6855 38.6171 44.6739 39.0009 44.2733L52.3347 30.3559C52.7063 29.968 52.7051 29.356 52.3321 28.9695L49.2533 25.7803C48.8475 25.36 48.1694 25.3755 47.7833 25.814L38.9794 35.8126C38.609 36.2332 37.9653 36.2674 37.5525 35.8883L32.7242 31.4545C32.3223 31.0854 31.6987 31.1067 31.3228 31.5023Z" fill="#363636"/>
<defs>
<linearGradient id="paint0_linear_889_206" x1="72" y1="43.5556" x2="7.99596" y2="43.6846" gradientUnits="userSpaceOnUse">
<stop stop-color="#2581ED"/>
<stop offset="1" stop-color="#2EA7FF"/>
</linearGradient>
</defs>
</svg>
