<svg width="80" height="80" viewBox="0 0 80 80" fill="none" xmlns="http://www.w3.org/2000/svg">
<path fill-rule="evenodd" clip-rule="evenodd" d="M61.5584 3.02353C59.7057 3.20096 58.3277 3.5928 56.7676 4.38582C54.9196 5.32516 53.2613 6.81056 52.0521 8.60955C51.5402 9.37126 50.9145 10.6572 50.6141 11.5651C50.3717 12.298 50.1791 13.1321 50.0613 13.9589C49.9796 14.5334 49.9796 16.462 50.0613 17.0366C50.2662 18.4755 50.6467 19.736 51.2413 20.9448C51.914 22.3124 52.5729 23.2311 53.6608 24.3183C54.7367 25.3935 55.6704 26.0649 56.9876 26.7106C57.9067 27.1612 58.5001 27.3805 59.4319 27.6141C61.8768 28.2269 64.3289 28.1094 66.7176 27.2649C67.4417 27.009 68.7056 26.3759 69.3555 25.9438C70.8164 24.9723 72.1575 23.5984 73.1146 22.0928C73.4666 21.5389 74.0325 20.3702 74.2634 19.7202C75.4118 16.4863 75.2119 13.0154 73.7026 9.98265C73.0935 8.75875 72.4154 7.79953 71.4633 6.81501C70.4076 5.72316 69.372 4.96985 67.9867 4.28582C66.5387 3.57087 65.1895 3.18923 63.5871 3.04126C63.089 2.99529 61.9568 2.98537 61.5584 3.02353ZM62.9733 8.32875C63.0878 8.38928 63.2507 8.53432 63.3354 8.65108L63.4893 8.86339L63.5025 12.2172L63.5157 15.5709L66.0731 18.1357C68.2653 20.3343 68.6386 20.7293 68.6875 20.9016C68.7748 21.2099 68.7564 21.4145 68.6162 21.6957C68.397 22.1352 67.9371 22.3486 67.4512 22.2361C67.212 22.1808 67.1204 22.0952 64.4267 19.4124C62.8707 17.8626 61.6071 16.5653 61.5539 16.4628C61.4618 16.2855 61.4592 16.1631 61.4719 12.5709L61.485 8.86217L61.6317 8.65411C61.9278 8.23398 62.5215 8.09001 62.9733 8.32875Z" fill="#363636"/>
<g filter="url(#filter0_ii_889_212)">
<path fill-rule="evenodd" clip-rule="evenodd" d="M4 37.5829V52.1658L6.63136 52.1652C9.5382 52.1646 9.99553 52.0438 10.4589 51.154C10.6643 50.7599 17.2035 29.6266 17.5902 28.1074C17.739 27.5229 17.7259 27.3058 17.5073 26.7397C17.1876 25.9118 16.7608 25.6019 15.0349 24.9443C12.1862 23.859 9.32602 23.2781 5.96642 23.1026L4 23V37.5829ZM40.6864 26.47C39.3897 26.6405 37.3021 27.5763 35.4237 28.8291C32.8769 30.5276 29.502 34.3159 28.2185 36.917C27.6901 37.9878 27.5794 38.3756 27.522 39.358C27.4641 40.3458 27.506 40.633 27.7937 41.2208C28.7836 43.2434 32.1857 42.9684 34.8081 40.6537C37.2192 38.5256 40.589 36.8956 42.1536 37.1005C42.4315 37.137 45.5155 39.8381 52.2911 45.9796C57.6472 50.8343 62.1816 54.9261 62.3677 55.0725C62.6925 55.3279 62.7413 55.3255 63.5857 55.013C64.2574 54.7645 64.729 54.4269 65.5801 53.5849C66.1932 52.9784 66.6913 52.3602 66.6867 52.2108C66.6821 52.0616 65.0862 47.6657 63.1401 42.4421L59.6017 32.9447L51.822 29.8746C47.5432 28.1861 43.5962 26.7068 43.0508 26.5873C42.0772 26.3738 41.5986 26.3499 40.6864 26.47ZM73.6375 26.6663C73.6375 26.6663 72.372 28.9675 71.05 30.1111C68.791 32.0653 66.55 33.2222 63.4 33.2222L61.2699 32.9447C61.2691 33.7747 69.1261 54.4644 69.6327 55.0011C70.3123 55.7208 70.6298 55.7871 73.3992 55.7871H76V41.2267V26.6663H73.6375ZM18.5111 30.3253C18.4249 30.5949 17.1444 34.7741 15.6654 39.6122L12.9762 48.4087L14.1703 49.7164C15.9871 51.7061 19.9628 55.5817 22.6864 58.0182C28.7114 63.4078 38.1292 70.7413 39.3067 70.9597C40.9293 71.2608 42.369 69.8273 42.0663 68.2118C41.9724 67.7103 41.4731 67.1491 38.3855 64.0756C36.0807 61.7811 34.8136 60.4111 34.8136 60.2137C34.8136 59.8729 35.2572 59.4083 35.5825 59.4083C35.6986 59.4083 37.7524 61.3347 40.1467 63.6891C44.8219 68.2865 45.0042 68.4211 46.3514 68.2708C48.1837 68.0667 49.36 66.0439 48.6391 64.3373C48.5245 64.066 46.7398 62.1011 44.673 59.9713C42.4898 57.7211 40.9153 55.9798 40.9153 55.8153C40.9153 55.4799 41.3726 55.0327 41.7156 55.0327C41.8491 55.0327 43.9595 57.0866 46.4057 59.5969C48.8519 62.1072 51.1055 64.3136 51.414 64.4999C52.0344 64.8747 53.2385 64.9589 53.9859 64.6796C54.9501 64.3193 55.8542 63.0304 55.8611 62.0062C55.8684 60.9149 55.5258 60.504 50.6742 55.7871C48.0709 53.256 45.9427 51.1003 45.945 50.9965C45.9508 50.7318 46.5131 50.2043 46.7895 50.2043C46.9161 50.2043 49.4387 52.5242 52.3954 55.3595C56.2439 59.0501 57.962 60.5982 58.443 60.8087C60.2245 61.5884 62.2712 60.206 62.2712 58.223C62.2712 57.2706 61.8335 56.5958 60.3408 55.2462C59.5986 54.5753 55.1818 50.5781 50.5254 46.3636C45.8691 42.1489 41.9745 38.668 41.8708 38.6282C41.5234 38.4945 39.6304 39.1735 38.4746 39.8463C37.8453 40.2125 36.7573 41.0025 36.0565 41.602C34.0467 43.321 32.3302 44.0452 30.2895 44.0347C26.8882 44.017 25.1793 41.2661 26.3218 37.6476C26.9186 35.7576 28.5238 33.3115 30.6597 31.0375L31.7891 29.8349H25.2284H18.6677L18.5111 30.3253Z" fill="url(#paint0_linear_889_212)"/>
</g>
<defs>
<filter id="filter0_ii_889_212" x="1" y="20" width="78" height="54" filterUnits="userSpaceOnUse" color-interpolation-filters="sRGB">
<feFlood flood-opacity="0" result="BackgroundImageFix"/>
<feBlend mode="normal" in="SourceGraphic" in2="BackgroundImageFix" result="shape"/>
<feColorMatrix in="SourceAlpha" type="matrix" values="0 0 0 0 0 0 0 0 0 0 0 0 0 0 0 0 0 0 127 0" result="hardAlpha"/>
<feOffset dx="3" dy="3"/>
<feGaussianBlur stdDeviation="4"/>
<feComposite in2="hardAlpha" operator="arithmetic" k2="-1" k3="1"/>
<feColorMatrix type="matrix" values="0 0 0 0 0.366667 0 0 0 0 0.729006 0 0 0 0 1 0 0 0 1 0"/>
<feBlend mode="normal" in2="shape" result="effect1_innerShadow_889_212"/>
<feColorMatrix in="SourceAlpha" type="matrix" values="0 0 0 0 0 0 0 0 0 0 0 0 0 0 0 0 0 0 127 0" result="hardAlpha"/>
<feOffset dx="-3" dy="-3"/>
<feGaussianBlur stdDeviation="4"/>
<feComposite in2="hardAlpha" operator="arithmetic" k2="-1" k3="1"/>
<feColorMatrix type="matrix" values="0 0 0 0 0.149479 0 0 0 0 0.488778 0 0 0 0 0.875 0 0 0 1 0"/>
<feBlend mode="normal" in2="effect1_innerShadow_889_212" result="effect2_innerShadow_889_212"/>
</filter>
<linearGradient id="paint0_linear_889_212" x1="76" y1="49.6667" x2="3.99582" y2="49.8844" gradientUnits="userSpaceOnUse">
<stop stop-color="#2581ED"/>
<stop offset="1" stop-color="#2EA7FF"/>
</linearGradient>
</defs>
</svg>
