<svg width="80" height="80" viewBox="0 0 80 80" fill="none" xmlns="http://www.w3.org/2000/svg">
<g clip-path="url(#clip0_618_4350)">
<path fill-rule="evenodd" clip-rule="evenodd" d="M48.7718 45.4262C47.8856 45.9024 47.1027 46.8425 46.868 47.7122C46.7836 48.0248 46.7141 48.8814 46.7137 49.6157L46.7128 50.9508H44.4402C41.9074 50.9508 41.2026 51.1075 40.3028 51.8703C40.0088 52.1196 39.5955 52.6805 39.3841 53.1167L38.9999 53.9099V61.8347C38.9999 67.5159 39.0499 69.931 39.1763 70.3651C39.4273 71.227 40.4894 72.3836 41.3402 72.7213C41.9979 72.9824 42.8013 72.9993 54.4998 72.9993C68.6273 72.9993 67.7875 73.0712 68.961 71.7614C70.0417 70.5553 69.9997 70.9508 69.9997 61.9717V53.9099L69.6156 53.1167C69.4042 52.6805 68.9908 52.1196 68.6968 51.8703C67.7971 51.1075 67.0923 50.9508 64.5595 50.9508H62.2869L62.2836 49.4631C62.2788 47.2935 61.6992 46.1732 60.1777 45.3934L59.4104 45H54.4877H49.5648L48.7718 45.4262ZM59.4175 47.9295C59.7754 48.2978 59.8248 48.4794 59.8843 49.646L59.9509 50.9508H54.5925H49.2343V49.6041C49.2343 48.4019 49.2701 48.224 49.568 47.9452C49.7517 47.7734 50.0019 47.5936 50.1243 47.5457C50.2466 47.498 52.2977 47.472 54.6821 47.4882L59.0173 47.5176L59.4175 47.9295Z" fill="#363636"/>
<g filter="url(#filter0_ddii_618_4350)">
<path fill-rule="evenodd" clip-rule="evenodd" d="M31.2099 9.06518C28.5856 9.32323 26.1263 10.5309 24.1087 12.5526C22.5747 14.0896 21.7607 15.3999 21.049 17.4774C20.5838 18.8356 20.5406 19.1412 20.5373 21.0924C20.5344 22.8786 20.6066 23.5149 20.9834 25.0221C21.8059 28.3129 22.5877 31.5 25.1258 33.897C29.9999 38.5 38.6914 37.5 42.2136 30.5036C43.8842 27.1852 44.7376 24.0259 44.7337 21.1743C44.7304 18.8999 44.4584 17.7389 43.4429 15.6674C41.2145 11.1214 36.4499 8.54988 31.2099 9.06518ZM23.4859 37.707C18.3199 38.1975 13.5056 41.8467 11.4892 46.8005C10.9858 48.0373 10.7537 49.2094 9.46031 57.0529C8.65712 61.9237 7.99989 67.9615 7.99989 68.2545C7.99989 68.5993 8.13346 68.9127 8.37865 69.1436C8.753 69.4957 8.82682 69.5 14.5986 69.5H23.2367H29.1221H35.0075L35.0075 60.7537C35.0075 53.3885 35.0589 52.7981 35.8323 51.2797C36.5877 49.7966 38.5257 48.2232 40.0473 47.8575C40.4784 47.754 41.4523 47.6174 42.2118 47.5543L43.5925 47.4394L43.713 46.7305C44.1284 44.2863 46.5952 41.7267 48.8896 41.3591C49.2667 41.2988 49.5752 41.1888 49.5752 41.1147C49.5752 40.8799 47.5204 39.5004 46.4401 39.0099C44.2091 37.9969 40.8266 37.3491 39.7243 37.7236C39.4057 37.8318 38.3781 39.134 35.9811 42.4668C33.2533 46.2596 32.6403 47.0225 32.4665 46.8403C32.3506 46.719 30.8498 44.6676 29.1312 42.2818C27.4127 39.8962 25.9141 37.8947 25.8012 37.8341C25.3637 37.5996 24.8897 37.5737 23.4859 37.707Z" fill="url(#paint0_linear_618_4350)"/>
</g>
</g>
<defs>
<filter id="filter0_ddii_618_4350" x="-9.00011" y="-8" width="71.5753" height="90.5" filterUnits="userSpaceOnUse" color-interpolation-filters="sRGB">
<feFlood flood-opacity="0" result="BackgroundImageFix"/>
<feColorMatrix in="SourceAlpha" type="matrix" values="0 0 0 0 0 0 0 0 0 0 0 0 0 0 0 0 0 0 127 0" result="hardAlpha"/>
<feOffset dx="2" dy="2"/>
<feGaussianBlur stdDeviation="4"/>
<feComposite in2="hardAlpha" operator="out"/>
<feColorMatrix type="matrix" values="0 0 0 0 0.145098 0 0 0 0 0.501961 0 0 0 0 0.917647 0 0 0 0.3 0"/>
<feBlend mode="normal" in2="BackgroundImageFix" result="effect1_dropShadow_618_4350"/>
<feColorMatrix in="SourceAlpha" type="matrix" values="0 0 0 0 0 0 0 0 0 0 0 0 0 0 0 0 0 0 127 0" result="hardAlpha"/>
<feOffset dx="-2" dy="-2"/>
<feGaussianBlur stdDeviation="7.5"/>
<feComposite in2="hardAlpha" operator="out"/>
<feColorMatrix type="matrix" values="0 0 0 0 1 0 0 0 0 1 0 0 0 0 1 0 0 0 0.05 0"/>
<feBlend mode="normal" in2="effect1_dropShadow_618_4350" result="effect2_dropShadow_618_4350"/>
<feBlend mode="normal" in="SourceGraphic" in2="effect2_dropShadow_618_4350" result="shape"/>
<feColorMatrix in="SourceAlpha" type="matrix" values="0 0 0 0 0 0 0 0 0 0 0 0 0 0 0 0 0 0 127 0" result="hardAlpha"/>
<feOffset dx="3" dy="3"/>
<feGaussianBlur stdDeviation="4"/>
<feComposite in2="hardAlpha" operator="arithmetic" k2="-1" k3="1"/>
<feColorMatrix type="matrix" values="0 0 0 0 0.366667 0 0 0 0 0.729006 0 0 0 0 1 0 0 0 1 0"/>
<feBlend mode="normal" in2="shape" result="effect3_innerShadow_618_4350"/>
<feColorMatrix in="SourceAlpha" type="matrix" values="0 0 0 0 0 0 0 0 0 0 0 0 0 0 0 0 0 0 127 0" result="hardAlpha"/>
<feOffset dx="-3" dy="-3"/>
<feGaussianBlur stdDeviation="4"/>
<feComposite in2="hardAlpha" operator="arithmetic" k2="-1" k3="1"/>
<feColorMatrix type="matrix" values="0 0 0 0 0.149479 0 0 0 0 0.488778 0 0 0 0 0.875 0 0 0 1 0"/>
<feBlend mode="normal" in2="effect3_innerShadow_618_4350" result="effect4_innerShadow_618_4350"/>
</filter>
<linearGradient id="paint0_linear_618_4350" x1="49.5752" y1="40.2707" x2="7.99718" y2="40.3272" gradientUnits="userSpaceOnUse">
<stop stop-color="#2581ED"/>
<stop offset="1" stop-color="#2EA7FF"/>
</linearGradient>
<clipPath id="clip0_618_4350">
<rect width="80" height="80" fill="white"/>
</clipPath>
</defs>
</svg>
