<svg width="80" height="80" viewBox="0 0 80 80" fill="none" xmlns="http://www.w3.org/2000/svg">
<g clip-path="url(#clip0_618_4329)">
<g filter="url(#filter0_ddii_618_4329)">
<path fill-rule="evenodd" clip-rule="evenodd" d="M39.1869 8.19907C38.9805 8.31076 38.2697 8.87131 37.6071 9.44475C36.9447 10.0183 36.3364 10.4876 36.2553 10.4876C36.1744 10.4876 35.4218 10.2024 34.583 9.85397C32.0262 8.79164 31.6543 8.91046 30.2315 11.2434C29.1409 13.0316 29.5578 12.8524 26.8663 12.6909C25.4217 12.6043 25.2724 12.6163 24.903 12.8496C24.1982 13.2947 24.1481 13.4233 23.3039 16.9503C23.2475 17.1861 23.0136 17.2755 21.5468 17.6218C19.6706 18.0648 19.1608 18.3287 18.8137 19.037C18.5962 19.4808 18.5893 19.6378 18.7203 21.1615C18.7981 22.0664 18.8616 22.9011 18.8614 23.0163C18.8611 23.15 18.2893 23.5766 17.2831 24.1938C14.8994 25.6559 14.8016 25.9749 15.9185 28.6373L16.6033 30.2697L15.4231 31.6347C13.5476 33.804 13.5464 34.1418 15.4057 36.3106C16.363 37.4272 16.5639 37.7301 16.4835 37.9365C16.4292 38.0759 16.1197 38.8347 15.7957 39.6225C15.2969 40.8353 15.2156 41.1477 15.2649 41.6608C15.3412 42.4543 15.6418 42.7589 17.4027 43.8261C18.1703 44.2915 18.8181 44.6873 18.8423 44.7058C18.8663 44.7243 18.8204 45.5349 18.7403 46.5072C18.6601 47.4793 18.6316 48.4432 18.6769 48.6491C18.7221 48.8549 18.9477 49.212 19.1784 49.4425C19.5507 49.8148 19.7908 49.9066 21.3245 50.2631C22.2743 50.4838 23.1114 50.739 23.1851 50.8301C23.2587 50.9212 23.4761 51.6883 23.6682 52.5348C24.0836 54.3646 24.3341 54.8319 25.0751 55.1596C25.5741 55.3804 25.7397 55.3896 27.0251 55.2693C29.4454 55.0425 29.1913 54.9469 30.0488 56.4088C30.9106 57.8783 31.2627 58.3271 31.7531 58.5807C32.3484 58.8885 32.9009 58.792 34.6243 58.0794L36.2795 57.395L36.6258 57.673C36.8163 57.8258 37.4561 58.3647 38.0477 58.8706C39.1897 59.8473 39.6846 60.0593 40.4303 59.8911C40.8866 59.7883 40.9862 59.7167 42.6559 58.2947L43.7206 57.388L45.3782 58.0758C48.0694 59.1927 48.3624 59.086 49.944 56.4132C50.8093 54.9506 50.5695 55.0422 52.9451 55.2674C54.5373 55.4184 55.1886 55.2637 55.642 54.6271C55.7851 54.4261 56.0894 53.4985 56.3183 52.5656C56.5472 51.6326 56.7694 50.8345 56.8119 50.7919C56.8545 50.7493 57.6547 50.527 58.5901 50.298C60.4484 49.8428 60.8727 49.6208 61.199 48.9333C61.3958 48.5189 61.4017 48.3109 61.2661 46.6072C61.1841 45.5783 61.136 44.7223 61.1592 44.7052C61.1824 44.688 61.8254 44.2972 62.5882 43.8365C64.3412 42.7778 64.6586 42.4562 64.735 41.6608C64.7843 41.1477 64.703 40.8353 64.2041 39.6225C63.8802 38.8347 63.5707 38.0759 63.5164 37.9365C63.436 37.7301 63.6369 37.4272 64.5941 36.3106C66.4535 34.1418 66.4522 33.804 64.5767 31.6347L63.3966 30.2697L64.0814 28.6373C65.1988 25.9739 65.0995 25.6504 62.7144 24.1874C61.722 23.5787 61.1387 23.1443 61.1385 23.0139C61.1382 22.8999 61.2018 22.0664 61.2796 21.1615C61.4105 19.6378 61.4037 19.4808 61.1861 19.037C60.8373 18.3252 60.3164 18.0551 58.4453 17.6154C56.9876 17.273 56.7516 17.1831 56.6956 16.949C55.8525 13.4252 55.8016 13.2947 55.0969 12.8496C54.7275 12.6163 54.5782 12.6043 53.1336 12.6909C50.4421 12.8524 50.859 13.0316 49.7684 11.2434C48.3447 8.90896 47.9588 8.78489 45.4409 9.85184C44.6157 10.2015 43.8634 10.4876 43.7689 10.4876C43.6745 10.4876 43.0484 10.0096 42.3775 9.42536C41.7067 8.84117 40.9957 8.27874 40.7977 8.17543C40.3327 7.93292 39.661 7.9428 39.1869 8.19907ZM49.0946 22.5595C49.5642 22.7557 54.4725 27.5082 55.4 28.665C55.8172 29.1852 55.8854 29.3575 55.8854 29.8905C55.8854 30.2317 55.805 30.6628 55.7065 30.8486C55.6082 31.0344 51.7947 34.9108 47.2322 39.4631C39.9044 46.7744 38.8821 47.7498 38.4677 47.8254C37.3142 48.0354 37.5438 48.2223 31.2668 41.9648C28.0802 38.7881 25.3926 36.0371 25.2941 35.8514C25.0644 35.4179 25.0646 34.5834 25.2945 34.1504C25.3931 33.9647 26.8747 32.4161 28.5869 30.7092C32.8295 26.4796 32.4575 26.525 35.7692 29.8326L37.9992 32.0599L42.7209 27.3446C45.3177 24.7511 47.5831 22.5743 47.755 22.5071C48.2093 22.3295 48.5787 22.344 49.0946 22.5595ZM11.836 54.105C9.93614 56.0138 8.29118 57.7558 8.18036 57.9759C7.79861 58.7343 8.04564 59.802 8.70483 60.2428C8.87719 60.3579 10.7931 61.0467 12.9624 61.7733L16.9066 63.0943L18.2277 67.0381C18.9545 69.2071 19.6433 71.1228 19.7585 71.2951C20.199 71.954 21.2666 72.2011 22.0256 71.82C22.3913 71.6365 31.4943 62.6828 31.4943 62.5067C31.4943 62.4647 31.2552 62.3589 30.9627 62.2716C29.6002 61.8645 28.6307 61.1322 27.7995 59.8821L27.214 59.0016L26.3835 59.0829C23.6797 59.3478 21.1772 57.6296 20.4391 55.0017C20.1218 53.8723 20.1183 53.868 19.2918 53.6419C17.7518 53.2203 16.508 52.3548 15.7749 51.1945C15.5804 50.8867 15.3917 50.6348 15.3557 50.6347C15.3197 50.6345 13.7358 52.1963 11.836 54.105ZM64.3311 51.0387C63.6317 52.2226 62.3684 53.161 60.906 53.5828C60.3841 53.7332 59.9188 53.9334 59.8718 54.0276C59.8247 54.1218 59.6848 54.5602 59.5608 55.0017C58.8227 57.6296 56.3202 59.3478 53.6164 59.0829L52.7859 59.0016L52.2003 59.8821C51.3692 61.1322 50.3997 61.8645 49.0371 62.2716C48.7448 62.3589 48.5055 62.4647 48.5055 62.5067C48.5055 62.6828 57.6085 71.6365 57.9743 71.82C58.7333 72.2011 59.8009 71.954 60.2414 71.2951C60.3566 71.1228 61.0454 69.2071 61.7722 67.0381L63.0933 63.0943L67.0375 61.7733C69.2068 61.0467 71.1227 60.3579 71.295 60.2428C71.9542 59.802 72.2013 58.7343 71.8195 57.9759C71.6391 57.6175 64.81 50.6344 64.6398 50.6344C64.6014 50.6344 64.4625 50.8164 64.3311 51.0387Z" fill="url(#paint0_linear_618_4329)"/>
</g>
<path d="M31.3228 31.5023L28.6814 34.2827C28.3039 34.6801 28.3166 35.3073 28.71 35.6891L37.5823 44.2991C37.9804 44.6855 38.617 44.6739 39.0008 44.2733L52.3346 30.3559C52.7062 29.968 52.705 29.356 52.332 28.9695L49.2532 25.7803C48.8474 25.36 48.1693 25.3755 47.7832 25.814L38.9793 35.8126C38.609 36.2332 37.9653 36.2674 37.5524 35.8883L32.7241 31.4545C32.3222 31.0854 31.6986 31.1067 31.3228 31.5023Z" fill="#363636"/>
</g>
<defs>
<filter id="filter0_ddii_618_4329" x="-9.00006" y="-9" width="94" height="94" filterUnits="userSpaceOnUse" color-interpolation-filters="sRGB">
<feFlood flood-opacity="0" result="BackgroundImageFix"/>
<feColorMatrix in="SourceAlpha" type="matrix" values="0 0 0 0 0 0 0 0 0 0 0 0 0 0 0 0 0 0 127 0" result="hardAlpha"/>
<feOffset dx="2" dy="2"/>
<feGaussianBlur stdDeviation="4"/>
<feComposite in2="hardAlpha" operator="out"/>
<feColorMatrix type="matrix" values="0 0 0 0 0.145098 0 0 0 0 0.501961 0 0 0 0 0.917647 0 0 0 0.3 0"/>
<feBlend mode="normal" in2="BackgroundImageFix" result="effect1_dropShadow_618_4329"/>
<feColorMatrix in="SourceAlpha" type="matrix" values="0 0 0 0 0 0 0 0 0 0 0 0 0 0 0 0 0 0 127 0" result="hardAlpha"/>
<feOffset dx="-2" dy="-2"/>
<feGaussianBlur stdDeviation="7.5"/>
<feComposite in2="hardAlpha" operator="out"/>
<feColorMatrix type="matrix" values="0 0 0 0 1 0 0 0 0 1 0 0 0 0 1 0 0 0 0.05 0"/>
<feBlend mode="normal" in2="effect1_dropShadow_618_4329" result="effect2_dropShadow_618_4329"/>
<feBlend mode="normal" in="SourceGraphic" in2="effect2_dropShadow_618_4329" result="shape"/>
<feColorMatrix in="SourceAlpha" type="matrix" values="0 0 0 0 0 0 0 0 0 0 0 0 0 0 0 0 0 0 127 0" result="hardAlpha"/>
<feOffset dx="3" dy="3"/>
<feGaussianBlur stdDeviation="4"/>
<feComposite in2="hardAlpha" operator="arithmetic" k2="-1" k3="1"/>
<feColorMatrix type="matrix" values="0 0 0 0 0.366667 0 0 0 0 0.729006 0 0 0 0 1 0 0 0 1 0"/>
<feBlend mode="normal" in2="shape" result="effect3_innerShadow_618_4329"/>
<feColorMatrix in="SourceAlpha" type="matrix" values="0 0 0 0 0 0 0 0 0 0 0 0 0 0 0 0 0 0 127 0" result="hardAlpha"/>
<feOffset dx="-3" dy="-3"/>
<feGaussianBlur stdDeviation="4"/>
<feComposite in2="hardAlpha" operator="arithmetic" k2="-1" k3="1"/>
<feColorMatrix type="matrix" values="0 0 0 0 0.149479 0 0 0 0 0.488778 0 0 0 0 0.875 0 0 0 1 0"/>
<feBlend mode="normal" in2="effect3_innerShadow_618_4329" result="effect4_innerShadow_618_4329"/>
</filter>
<linearGradient id="paint0_linear_618_4329" x1="71.9999" y1="43.5556" x2="7.9959" y2="43.6846" gradientUnits="userSpaceOnUse">
<stop stop-color="#2581ED"/>
<stop offset="1" stop-color="#2EA7FF"/>
</linearGradient>
<clipPath id="clip0_618_4329">
<rect width="80" height="80" fill="white"/>
</clipPath>
</defs>
</svg>
