<svg width="210" height="58" viewBox="0 0 210 58" fill="none" xmlns="http://www.w3.org/2000/svg">
<path d="M68.5782 44.2356H74.3709C76.5432 44.2356 77.4483 43.4334 77.4483 41.5079V28.5111C77.4483 26.8664 77.1316 24.4997 77.1316 24.4997H77.2221C77.2221 24.4997 78.625 26.9065 79.8922 28.5111L92.1113 44.2356H97.4062V21.09C97.4062 20.5284 97.7683 20.2075 98.4018 20.2075H100.348V15.7549H94.5551C92.3828 15.7549 91.4777 16.5973 91.4777 18.4826V31.5196C91.4777 33.1642 91.7945 35.531 91.7945 35.531H91.704C91.704 35.531 90.301 33.1642 89.0339 31.5196L76.86 15.7549H71.5198V38.9005C71.5198 39.4621 71.1578 39.783 70.5242 39.783H68.5782V44.2356Z" fill="#363636"/>
<path d="M101.925 44.2356H105.501C107.763 44.2356 108.578 43.7142 109.257 41.909L111.293 36.9349H122.11L124.146 41.909C124.825 43.7142 125.64 44.2356 127.902 44.2356H131.432V39.783H130.708C129.939 39.783 129.622 39.6226 129.305 38.9005L119.802 15.7549H113.601L104.052 38.9005C103.781 39.6226 103.464 39.783 102.695 39.783H101.925V44.2356ZM112.651 32.6027L115.366 25.4624C115.955 23.898 116.634 21.2104 116.634 21.2104H116.724C116.724 21.2104 117.448 23.898 118.037 25.4624L120.797 32.6027H112.651Z" fill="#363636"/>
<path d="M136.347 41.6538C136.347 43.4692 137.255 44.2356 139.297 44.2356H147.422C153.051 44.2356 157.726 41.4925 157.726 36.1271C157.726 32.9402 155.819 30.1163 152.46 29.2288V29.1481C154.594 28.2203 156.455 26.1225 156.455 23.0163C156.455 18.4174 152.551 15.7549 147.15 15.7549H133.397V19.2242H136.347V41.6538ZM140.886 27.7362V19.2242H147.059C150.1 19.2242 151.825 20.9185 151.825 23.4197C151.825 25.9208 150.009 27.7362 147.15 27.7362H140.886ZM140.886 39.8788V31.0441H147.604C150.917 31.0441 153.051 33.0208 153.051 35.9254C153.051 38.8299 151.008 40.7663 147.649 40.7663H141.885C141.249 40.7663 140.886 40.4436 140.886 39.8788Z" fill="#363636"/>
<path d="M136.347 41.6538C136.347 43.4692 137.255 44.2356 139.297 44.2356H147.422C153.051 44.2356 157.726 41.4925 157.726 36.1271C157.726 32.9402 155.819 30.1163 152.46 29.2288V29.1481C154.594 28.2203 156.455 26.1225 156.455 23.0163C156.455 18.4174 152.551 15.7549 147.15 15.7549H133.397V19.2242H136.347V41.6538ZM140.886 27.7362V19.2242H147.059C150.1 19.2242 151.825 20.9185 151.825 23.4197C151.825 25.9208 150.009 27.7362 147.15 27.7362H140.886ZM140.886 39.8788V31.0441H147.604C150.917 31.0441 153.051 33.0208 153.051 35.9254C153.051 38.8299 151.008 40.7663 147.649 40.7663H141.885C141.249 40.7663 140.886 40.4436 140.886 39.8788Z" fill="url(#paint0_linear_656_938)"/>
<path d="M164.007 41.6538C164.007 43.4692 164.914 44.2356 166.957 44.2356H181.164C183.207 44.2356 184.069 43.4692 184.069 41.6538V38.0635H179.939V39.8788C179.939 40.4436 179.575 40.7663 178.94 40.7663H169.544C168.909 40.7663 168.546 40.4436 168.546 39.8788V31.6089H179.802V28.1396H168.546V19.2242H177.669C178.304 19.2242 178.668 19.5066 178.668 20.1117V21.9271H182.844V18.3367C182.844 16.5214 181.981 15.7549 179.939 15.7549H161.056V19.2242H164.007V41.6538Z" fill="#363636"/>
<path d="M164.007 41.6538C164.007 43.4692 164.914 44.2356 166.957 44.2356H181.164C183.207 44.2356 184.069 43.4692 184.069 41.6538V38.0635H179.939V39.8788C179.939 40.4436 179.575 40.7663 178.94 40.7663H169.544C168.909 40.7663 168.546 40.4436 168.546 39.8788V31.6089H179.802V28.1396H168.546V19.2242H177.669C178.304 19.2242 178.668 19.5066 178.668 20.1117V21.9271H182.844V18.3367C182.844 16.5214 181.981 15.7549 179.939 15.7549H161.056V19.2242H164.007V41.6538Z" fill="url(#paint1_linear_656_938)"/>
<path d="M189.938 41.6538C189.938 43.4692 190.845 44.2356 192.888 44.2356H207.095C209.138 44.2356 210 43.4692 210 41.6538V38.0635H205.869V39.8788C205.869 40.4436 205.506 40.7663 204.871 40.7663H195.475C194.84 40.7663 194.477 40.4436 194.477 39.8788V31.6089H205.733V28.1396H194.477V19.2242H203.6C204.235 19.2242 204.599 19.5066 204.599 20.1117V21.9271H208.774V18.3367C208.774 16.5214 207.912 15.7549 205.869 15.7549H186.987V19.2242H189.938V41.6538Z" fill="#363636"/>
<path d="M189.938 41.6538C189.938 43.4692 190.845 44.2356 192.888 44.2356H207.095C209.138 44.2356 210 43.4692 210 41.6538V38.0635H205.869V39.8788C205.869 40.4436 205.506 40.7663 204.871 40.7663H195.475C194.84 40.7663 194.477 40.4436 194.477 39.8788V31.6089H205.733V28.1396H194.477V19.2242H203.6C204.235 19.2242 204.599 19.5066 204.599 20.1117V21.9271H208.774V18.3367C208.774 16.5214 207.912 15.7549 205.869 15.7549H186.987V19.2242H189.938V41.6538Z" fill="url(#paint2_linear_656_938)"/>
<path fill-rule="evenodd" clip-rule="evenodd" d="M56.7942 29.3692C56.7942 45.0524 44.0804 57.7663 28.3971 57.7663C12.7138 57.7663 0 45.0524 0 29.3692C0 13.6859 12.7138 0.972046 28.3971 0.972046C44.0804 0.972046 56.7942 13.6859 56.7942 29.3692ZM3.44369 29.3692C3.44369 43.1505 14.6157 54.3226 28.3971 54.3226C42.1785 54.3226 53.3505 43.1505 53.3505 29.3692C53.3505 15.5878 42.1785 4.41573 28.3971 4.41573C14.6157 4.41573 3.44369 15.5878 3.44369 29.3692ZM42.5957 42.5676C42.5957 43.1199 42.148 43.5676 41.5957 43.5676H34.9381C34.6025 43.5676 34.2892 43.3992 34.1041 43.1193L16.6447 16.7223C16.205 16.0575 16.6817 15.1707 17.4787 15.1706L23.195 15.1705C23.5408 15.1705 23.8621 15.3492 24.0445 15.6429L36.9325 36.3966C36.949 36.4231 36.9779 36.4392 37.0091 36.4392C37.061 36.4392 37.1021 36.395 37.0992 36.3433C36.8948 32.7035 36.7926 30.1262 36.7926 28.6115V16.1705C36.7926 15.6182 37.2403 15.1705 37.7926 15.1705H41.5957C42.148 15.1705 42.5957 15.6182 42.5957 16.1705V42.5676ZM19.4356 43.8862C21.6341 43.8862 23.4162 42.1041 23.4162 39.9057C23.4162 37.7072 21.6341 35.9251 19.4356 35.9251C17.2372 35.9251 15.4551 37.7072 15.4551 39.9057C15.4551 42.1041 17.2372 43.8862 19.4356 43.8862Z" fill="#363636"/>
<path fill-rule="evenodd" clip-rule="evenodd" d="M56.7942 29.3692C56.7942 45.0524 44.0804 57.7663 28.3971 57.7663C12.7138 57.7663 0 45.0524 0 29.3692C0 13.6859 12.7138 0.972046 28.3971 0.972046C44.0804 0.972046 56.7942 13.6859 56.7942 29.3692ZM3.44369 29.3692C3.44369 43.1505 14.6157 54.3226 28.3971 54.3226C42.1785 54.3226 53.3505 43.1505 53.3505 29.3692C53.3505 15.5878 42.1785 4.41573 28.3971 4.41573C14.6157 4.41573 3.44369 15.5878 3.44369 29.3692ZM42.5957 42.5676C42.5957 43.1199 42.148 43.5676 41.5957 43.5676H34.9381C34.6025 43.5676 34.2892 43.3992 34.1041 43.1193L16.6447 16.7223C16.205 16.0575 16.6817 15.1707 17.4787 15.1706L23.195 15.1705C23.5408 15.1705 23.8621 15.3492 24.0445 15.6429L36.9325 36.3966C36.949 36.4231 36.9779 36.4392 37.0091 36.4392C37.061 36.4392 37.1021 36.395 37.0992 36.3433C36.8948 32.7035 36.7926 30.1262 36.7926 28.6115V16.1705C36.7926 15.6182 37.2403 15.1705 37.7926 15.1705H41.5957C42.148 15.1705 42.5957 15.6182 42.5957 16.1705V42.5676ZM19.4356 43.8862C21.6341 43.8862 23.4162 42.1041 23.4162 39.9057C23.4162 37.7072 21.6341 35.9251 19.4356 35.9251C17.2372 35.9251 15.4551 37.7072 15.4551 39.9057C15.4551 42.1041 17.2372 43.8862 19.4356 43.8862Z" fill="url(#paint3_linear_656_938)"/>
<defs>
<linearGradient id="paint0_linear_656_938" x1="217.636" y1="34.1504" x2="131.894" y2="34.4442" gradientUnits="userSpaceOnUse">
<stop stop-color="#2EA7FF"/>
<stop offset="1" stop-color="#2581ED"/>
</linearGradient>
<linearGradient id="paint1_linear_656_938" x1="217.636" y1="34.1504" x2="131.894" y2="34.4442" gradientUnits="userSpaceOnUse">
<stop stop-color="#2EA7FF"/>
<stop offset="1" stop-color="#2581ED"/>
</linearGradient>
<linearGradient id="paint2_linear_656_938" x1="217.636" y1="34.1504" x2="131.894" y2="34.4442" gradientUnits="userSpaceOnUse">
<stop stop-color="#2EA7FF"/>
<stop offset="1" stop-color="#2581ED"/>
</linearGradient>
<linearGradient id="paint3_linear_656_938" x1="56.7942" y1="32.5244" x2="-0.00358339" y2="32.6389" gradientUnits="userSpaceOnUse">
<stop stop-color="#2EA7FF"/>
<stop offset="1" stop-color="#2581ED"/>
</linearGradient>
</defs>
</svg>
