<svg width="24" height="24" viewBox="0 0 24 24" fill="none" xmlns="http://www.w3.org/2000/svg">
<path d="M24 21.75V9.42188C24 8.71875 23.625 8.0625 23.1094 7.64062C21.9375 6.75 21 6 15.4219 1.96875C14.625 1.40625 13.0781 0 12 0.046875C10.875 0 9.32812 1.40625 8.53125 1.96875C2.95312 6 2.01562 6.75 0.84375 7.64062C0.328125 8.0625 0 8.71875 0 9.42188V21.75C0 23.0156 0.984375 24 2.25 24H21.75C22.9688 24 24 23.0156 24 21.75ZM20.9062 12.5625L21.3281 13.1719C21.375 13.2188 21.375 13.3125 21.375 13.4062C21.375 13.5 21.3281 13.6406 21.2344 13.6875C20.1562 14.4844 18.6562 15.6094 16.3125 17.2969C15.3281 18 13.6406 19.5469 12 19.5C10.3125 19.5469 8.625 18 7.64062 17.2969C5.29688 15.6094 3.79688 14.4844 2.71875 13.6875C2.625 13.6406 2.57812 13.5 2.57812 13.4062C2.57812 13.3125 2.57812 13.2188 2.625 13.1719L3.04688 12.5625C3.1875 12.375 3.42188 12.3281 3.60938 12.4688C4.64062 13.2656 6.1875 14.3906 8.53125 16.0781C9.32812 16.6406 10.875 18.0469 12 18C13.0781 18.0469 14.625 16.6406 15.4219 16.0781C17.7656 14.3906 19.3125 13.2656 20.3438 12.4688C20.5312 12.3281 20.7656 12.375 20.9062 12.5625Z" fill="#2580EA"/>
</svg>
