<svg width="21" height="25" viewBox="0 0 21 25" fill="none" xmlns="http://www.w3.org/2000/svg">
<path d="M6.54688 24.7656C6.6875 24.9531 6.875 25 7.10938 25C7.25 25 7.39062 25 7.53125 24.9062L10.5781 22.9844C10.8125 22.8438 10.9531 22.6094 10.9531 22.3281C10.9531 22.2344 10.9531 22.0938 10.9062 22L9.35938 18.2031C9.26562 17.9219 8.98438 17.7344 8.60938 17.7344H8.5625L5.9375 17.9688C4.95312 15.2969 4.95312 12.2969 5.9375 9.57812L8.5625 9.8125H8.60938C8.98438 9.8125 9.26562 9.625 9.35938 9.34375L10.9062 5.54688C10.9531 5.45312 10.9531 5.3125 10.9531 5.21875C10.9531 4.9375 10.8125 4.70312 10.5781 4.5625L7.53125 2.64062C7.20312 2.45312 6.82812 2.5 6.54688 2.78125C0.453125 8.82812 0.453125 18.7188 6.54688 24.7656ZM13.5781 5.5C13.3906 5.17188 12.9688 5.125 12.6875 5.35938L12.4062 5.64062C12.2188 5.82812 12.1719 6.10938 12.3125 6.34375C12.4062 6.53125 12.4531 6.76562 12.4531 7.04688C12.4531 7.28125 12.4062 7.51562 12.3125 7.70312C12.1719 7.9375 12.2188 8.21875 12.4062 8.40625L12.6875 8.6875C12.9688 8.92188 13.3906 8.875 13.5781 8.54688C14.0938 7.60938 14.0938 6.4375 13.5781 5.5ZM17.8438 1.23438C17.6562 0.953125 17.2812 0.953125 17.0469 1.1875L16.7656 1.42188C16.5781 1.65625 16.5312 1.98438 16.7188 2.21875C19.0625 4.98438 19.0625 9.0625 16.7188 11.8281C16.5312 12.0625 16.5781 12.3906 16.7656 12.625L17.0469 12.8594C17.2812 13.0938 17.6562 13.0938 17.8438 12.8125C20.7031 9.48438 20.7031 4.5625 17.8438 1.23438ZM15.6875 3.34375C15.5 3.0625 15.125 3.01562 14.8906 3.25L14.6094 3.53125C14.375 3.71875 14.375 4.04688 14.5156 4.28125C15.7812 5.875 15.7812 8.17188 14.5156 9.76562C14.375 10 14.375 10.3281 14.6094 10.5156L14.8906 10.7969C15.125 11.0312 15.5 10.9844 15.6875 10.7031C17.4219 8.54688 17.375 5.5 15.6875 3.34375Z" fill="#2580EA"/>
</svg>
